%TF.GenerationSoftware,KiCad,Pcbnew,9.0.7*%
%TF.CreationDate,2026-04-14T08:08:21-07:00*%
%TF.ProjectId,#1PCB,23315043-422e-46b6-9963-61645f706362,1*%
%TF.SameCoordinates,Original*%
%TF.FileFunction,Copper,L1,Top*%
%TF.FilePolarity,Positive*%
%FSLAX46Y46*%
G04 Gerber Fmt 4.6, Leading zero omitted, Abs format (unit mm)*
G04 Created by KiCad (PCBNEW 9.0.7) date 2026-04-14 08:08:21*
%MOMM*%
%LPD*%
G01*
G04 APERTURE LIST*
G04 Aperture macros list*
%AMRoundRect*
0 Rectangle with rounded corners*
0 $1 Rounding radius*
0 $2 $3 $4 $5 $6 $7 $8 $9 X,Y pos of 4 corners*
0 Add a 4 corners polygon primitive as box body*
4,1,4,$2,$3,$4,$5,$6,$7,$8,$9,$2,$3,0*
0 Add four circle primitives for the rounded corners*
1,1,$1+$1,$2,$3*
1,1,$1+$1,$4,$5*
1,1,$1+$1,$6,$7*
1,1,$1+$1,$8,$9*
0 Add four rect primitives between the rounded corners*
20,1,$1+$1,$2,$3,$4,$5,0*
20,1,$1+$1,$4,$5,$6,$7,0*
20,1,$1+$1,$6,$7,$8,$9,0*
20,1,$1+$1,$8,$9,$2,$3,0*%
G04 Aperture macros list end*
%TA.AperFunction,ComponentPad*%
%ADD10C,1.400000*%
%TD*%
%TA.AperFunction,SMDPad,CuDef*%
%ADD11C,0.750000*%
%TD*%
%TA.AperFunction,ComponentPad*%
%ADD12RoundRect,0.250000X-0.350000X0.350000X-0.350000X-0.350000X0.350000X-0.350000X0.350000X0.350000X0*%
%TD*%
%TA.AperFunction,ComponentPad*%
%ADD13C,1.200000*%
%TD*%
%TA.AperFunction,ComponentPad*%
%ADD14R,1.700000X1.700000*%
%TD*%
%TA.AperFunction,ComponentPad*%
%ADD15C,1.700000*%
%TD*%
%TA.AperFunction,SMDPad,CuDef*%
%ADD16RoundRect,0.162500X-0.650000X-0.162500X0.650000X-0.162500X0.650000X0.162500X-0.650000X0.162500X0*%
%TD*%
%TA.AperFunction,ComponentPad*%
%ADD17C,1.600000*%
%TD*%
%TA.AperFunction,SMDPad,CuDef*%
%ADD18RoundRect,0.225000X0.250000X-0.225000X0.250000X0.225000X-0.250000X0.225000X-0.250000X-0.225000X0*%
%TD*%
%TA.AperFunction,ComponentPad*%
%ADD19RoundRect,0.250000X0.350000X0.350000X-0.350000X0.350000X-0.350000X-0.350000X0.350000X-0.350000X0*%
%TD*%
%TA.AperFunction,ComponentPad*%
%ADD20RoundRect,0.250000X0.350000X-0.350000X0.350000X0.350000X-0.350000X0.350000X-0.350000X-0.350000X0*%
%TD*%
%TA.AperFunction,ComponentPad*%
%ADD21R,1.800000X1.800000*%
%TD*%
%TA.AperFunction,ComponentPad*%
%ADD22C,1.800000*%
%TD*%
%TA.AperFunction,SMDPad,CuDef*%
%ADD23RoundRect,0.150000X-0.150000X0.875000X-0.150000X-0.875000X0.150000X-0.875000X0.150000X0.875000X0*%
%TD*%
%TA.AperFunction,SMDPad,CuDef*%
%ADD24RoundRect,0.225000X-0.250000X0.225000X-0.250000X-0.225000X0.250000X-0.225000X0.250000X0.225000X0*%
%TD*%
%TA.AperFunction,ComponentPad*%
%ADD25RoundRect,0.250000X-0.550000X0.550000X-0.550000X-0.550000X0.550000X-0.550000X0.550000X0.550000X0*%
%TD*%
%TA.AperFunction,ComponentPad*%
%ADD26R,1.600000X1.600000*%
%TD*%
%TA.AperFunction,ComponentPad*%
%ADD27O,1.600000X1.600000*%
%TD*%
%TA.AperFunction,ComponentPad*%
%ADD28RoundRect,0.249999X-0.850001X0.850001X-0.850001X-0.850001X0.850001X-0.850001X0.850001X0.850001X0*%
%TD*%
%TA.AperFunction,ComponentPad*%
%ADD29C,2.200000*%
%TD*%
%TA.AperFunction,SMDPad,CuDef*%
%ADD30RoundRect,0.250000X-2.000000X-0.750000X2.000000X-0.750000X2.000000X0.750000X-2.000000X0.750000X0*%
%TD*%
%TA.AperFunction,SMDPad,CuDef*%
%ADD31RoundRect,0.175000X0.325000X0.175000X-0.325000X0.175000X-0.325000X-0.175000X0.325000X-0.175000X0*%
%TD*%
%TA.AperFunction,ComponentPad*%
%ADD32RoundRect,0.250000X0.550000X0.550000X-0.550000X0.550000X-0.550000X-0.550000X0.550000X-0.550000X0*%
%TD*%
%TA.AperFunction,ComponentPad*%
%ADD33R,2.895000X2.895000*%
%TD*%
%TA.AperFunction,ComponentPad*%
%ADD34C,2.895000*%
%TD*%
%TA.AperFunction,ComponentPad*%
%ADD35RoundRect,0.249999X0.850001X0.850001X-0.850001X0.850001X-0.850001X-0.850001X0.850001X-0.850001X0*%
%TD*%
%TA.AperFunction,SMDPad,CuDef*%
%ADD36RoundRect,0.250000X0.315000X-0.295000X0.315000X0.295000X-0.315000X0.295000X-0.315000X-0.295000X0*%
%TD*%
%TA.AperFunction,SMDPad,CuDef*%
%ADD37RoundRect,0.175000X0.175000X-0.325000X0.175000X0.325000X-0.175000X0.325000X-0.175000X-0.325000X0*%
%TD*%
%TA.AperFunction,ComponentPad*%
%ADD38RoundRect,0.250000X-0.350000X-0.350000X0.350000X-0.350000X0.350000X0.350000X-0.350000X0.350000X0*%
%TD*%
%TA.AperFunction,ViaPad*%
%ADD39C,0.600000*%
%TD*%
%TA.AperFunction,Conductor*%
%ADD40C,0.600000*%
%TD*%
%TA.AperFunction,Conductor*%
%ADD41C,1.000000*%
%TD*%
%TA.AperFunction,Conductor*%
%ADD42C,0.200000*%
%TD*%
G04 APERTURE END LIST*
D10*
%TO.P,R21,1*%
%TO.N,Net-(C18-Pad1)*%
X106445000Y-69251500D03*
%TO.P,R21,2*%
%TO.N,NES55_Out2*%
X106445000Y-61631500D03*
%TD*%
D11*
%TO.P,REF\u002A\u002A,*%
%TO.N,*%
X129500000Y-30000000D03*
%TD*%
D10*
%TO.P,R8,1*%
%TO.N,+5V*%
X127325000Y-45006500D03*
%TO.P,R8,2*%
%TO.N,Hall2_IN*%
X127325000Y-52626500D03*
%TD*%
%TO.P,R9,1*%
%TO.N,+5V*%
X113825000Y-47316500D03*
%TO.P,R9,2*%
%TO.N,Net-(D4-K)*%
X121445000Y-47316500D03*
%TD*%
D12*
%TO.P,C11,1*%
%TO.N,+5V*%
X101690000Y-47159901D03*
D13*
%TO.P,C11,2*%
%TO.N,GND*%
X101690000Y-49159901D03*
%TD*%
D11*
%TO.P,,*%
%TO.N,*%
X131000000Y-84000000D03*
%TD*%
D10*
%TO.P,R13,1*%
%TO.N,Net-(D5-K)*%
X104790000Y-32822500D03*
%TO.P,R13,2*%
%TO.N,Hall3_IN*%
X97170000Y-32822500D03*
%TD*%
D14*
%TO.P,J1,1,Pin_1*%
%TO.N,Hall1_IN*%
X102700000Y-93100000D03*
D15*
%TO.P,J1,2,Pin_2*%
%TO.N,GND*%
X100160000Y-93100000D03*
%TO.P,J1,3,Pin_3*%
%TO.N,+5V*%
X97620000Y-93100000D03*
%TD*%
D10*
%TO.P,R10,1*%
%TO.N,+5V*%
X113825000Y-51006500D03*
%TO.P,R10,2*%
%TO.N,Net-(D4-A)*%
X113825000Y-58626500D03*
%TD*%
%TO.P,R17,1*%
%TO.N,Net-(R17-Pad1)*%
X100460000Y-60632500D03*
%TO.P,R17,2*%
%TO.N,Net-(U6-DIS)*%
X100460000Y-53012500D03*
%TD*%
D16*
%TO.P,U8,1,TXD*%
%TO.N,Net-(U7-TXCAN)*%
X52102500Y-45477500D03*
%TO.P,U8,2,GND*%
%TO.N,0*%
X52102500Y-46747500D03*
%TO.P,U8,3,VCC*%
%TO.N,+5V*%
X52102500Y-48017500D03*
%TO.P,U8,4,RXD*%
%TO.N,Net-(U7-RXCAN)*%
X52102500Y-49287500D03*
%TO.P,U8,5,SPLIT*%
%TO.N,unconnected-(U8-SPLIT-Pad5)*%
X59277500Y-49287500D03*
%TO.P,U8,6,CANL*%
%TO.N,Low*%
X59277500Y-48017500D03*
%TO.P,U8,7,CANH*%
%TO.N,High*%
X59277500Y-46747500D03*
%TO.P,U8,8,STB*%
%TO.N,0*%
X59277500Y-45477500D03*
%TD*%
D17*
%TO.P,C14,1*%
%TO.N,Net-(U6-CV)*%
X88460000Y-57382500D03*
%TO.P,C14,2*%
%TO.N,Net-(C14-Pad2)*%
X88460000Y-59882500D03*
%TD*%
D18*
%TO.P,C25,1,1*%
%TO.N,Net-(U7-OSC1)*%
X39190000Y-43157500D03*
%TO.P,C25,2,2*%
%TO.N,0*%
X39190000Y-41607500D03*
%TD*%
D10*
%TO.P,R18,1*%
%TO.N,+5V*%
X103460000Y-53322500D03*
%TO.P,R18,2*%
%TO.N,Net-(R17-Pad1)*%
X103460000Y-60942500D03*
%TD*%
%TO.P,R14,1*%
%TO.N,+5V*%
X104790000Y-35822500D03*
%TO.P,R14,2*%
%TO.N,Hall3_IN*%
X97170000Y-35822500D03*
%TD*%
%TO.P,R1,1*%
%TO.N,Net-(D1-K)*%
X112993500Y-87282700D03*
%TO.P,R1,2*%
%TO.N,Hall1_IN*%
X105373500Y-87282700D03*
%TD*%
D19*
%TO.P,C19,1*%
%TO.N,Nano_Input2*%
X109067600Y-57941500D03*
D13*
%TO.P,C19,2*%
%TO.N,GND*%
X107067600Y-57941500D03*
%TD*%
D20*
%TO.P,C16,1*%
%TO.N,Net-(C16-Pad1)*%
X83190000Y-68605100D03*
D13*
%TO.P,C16,2*%
%TO.N,GND*%
X83190000Y-66605100D03*
%TD*%
D21*
%TO.P,D5,1,K*%
%TO.N,Net-(D5-K)*%
X105190000Y-39362500D03*
D22*
%TO.P,D5,2,A*%
%TO.N,+5V*%
X105190000Y-41902500D03*
%TD*%
D10*
%TO.P,R3,1*%
%TO.N,+5V*%
X110683500Y-76972700D03*
%TO.P,R3,2*%
%TO.N,Net-(D2-K)*%
X110683500Y-84592700D03*
%TD*%
%TO.P,R7,1*%
%TO.N,Net-(D3-K)*%
X124825000Y-45006500D03*
%TO.P,R7,2*%
%TO.N,Hall2_IN*%
X124825000Y-52626500D03*
%TD*%
D12*
%TO.P,C10,1*%
%TO.N,Net-(U4-DIS)*%
X117825000Y-72343900D03*
D13*
%TO.P,C10,2*%
%TO.N,Net-(C10-Pad2)*%
X117825000Y-74343900D03*
%TD*%
D23*
%TO.P,U7,1,TXCAN*%
%TO.N,Net-(U7-TXCAN)*%
X55770000Y-52232500D03*
%TO.P,U7,2,RXCAN*%
%TO.N,Net-(U7-RXCAN)*%
X54500000Y-52232500D03*
%TO.P,U7,3,CLKOUT/SOF*%
%TO.N,unconnected-(U7-CLKOUT{slash}SOF-Pad3)*%
X53230000Y-52232500D03*
%TO.P,U7,4,~{TX0RTS}*%
%TO.N,unconnected-(U7-~{TX0RTS}-Pad4)*%
X51960000Y-52232500D03*
%TO.P,U7,5,~{TX1RTS}*%
%TO.N,unconnected-(U7-~{TX1RTS}-Pad5)*%
X50690000Y-52232500D03*
%TO.P,U7,6,~{TX2RTS}*%
%TO.N,unconnected-(U7-~{TX2RTS}-Pad6)*%
X49420000Y-52232500D03*
%TO.P,U7,7,OSC2*%
%TO.N,Net-(U7-OSC2)*%
X48150000Y-52232500D03*
%TO.P,U7,8,OSC1*%
%TO.N,Net-(U7-OSC1)*%
X46880000Y-52232500D03*
%TO.P,U7,9,VSS*%
%TO.N,0*%
X45610000Y-52232500D03*
%TO.P,U7,10,~{RX1BF}*%
%TO.N,unconnected-(U7-~{RX1BF}-Pad10)*%
X45610000Y-61532500D03*
%TO.P,U7,11,~{RX0BF}*%
%TO.N,unconnected-(U7-~{RX0BF}-Pad11)*%
X46880000Y-61532500D03*
%TO.P,U7,12,~{INT}*%
%TO.N,INT*%
X48150000Y-61532500D03*
%TO.P,U7,13,SCK*%
%TO.N,SCK*%
X49420000Y-61532500D03*
%TO.P,U7,14,SI*%
%TO.N,SI*%
X50690000Y-61532500D03*
%TO.P,U7,15,SO*%
%TO.N,SO*%
X51960000Y-61532500D03*
%TO.P,U7,16,~{CS}*%
%TO.N,CS*%
X53230000Y-61532500D03*
%TO.P,U7,17,~{RESET}*%
%TO.N,Net-(U7-~{RESET})*%
X54500000Y-61532500D03*
%TO.P,U7,18,VDD*%
%TO.N,+5V*%
X55770000Y-61532500D03*
%TD*%
D24*
%TO.P,C26,1,1*%
%TO.N,0*%
X55190000Y-40607500D03*
%TO.P,C26,2,2*%
%TO.N,+5V*%
X55190000Y-42157500D03*
%TD*%
D10*
%TO.P,R22,1*%
%TO.N,Nano_Input2*%
X109595000Y-61631500D03*
%TO.P,R22,2*%
%TO.N,Net-(C18-Pad1)*%
X109595000Y-69251500D03*
%TD*%
%TO.P,R16,1*%
%TO.N,+5V*%
X86190000Y-36632500D03*
%TO.P,R16,2*%
%TO.N,Net-(D6-A)*%
X86190000Y-44252500D03*
%TD*%
%TO.P,R25,1*%
%TO.N,+5V*%
X54690000Y-72192500D03*
%TO.P,R25,2*%
%TO.N,Net-(U7-~{RESET})*%
X54690000Y-64572500D03*
%TD*%
%TO.P,R24,1*%
%TO.N,Nano_Input3*%
X81960000Y-54852500D03*
%TO.P,R24,2*%
%TO.N,Net-(C20-Pad1)*%
X81960000Y-47232500D03*
%TD*%
D17*
%TO.P,C3,1*%
%TO.N,Net-(D2-K)*%
X107683500Y-83894000D03*
%TO.P,C3,2*%
%TO.N,Hall1_IN*%
X105183500Y-83894000D03*
%TD*%
D10*
%TO.P,R12,1*%
%TO.N,+5V*%
X125325000Y-72506500D03*
%TO.P,R12,2*%
%TO.N,Net-(R11-Pad1)*%
X125325000Y-80126500D03*
%TD*%
D12*
%TO.P,C15,1*%
%TO.N,Net-(U6-DIS)*%
X93960000Y-58159900D03*
D13*
%TO.P,C15,2*%
%TO.N,Net-(C14-Pad2)*%
X93960000Y-60159900D03*
%TD*%
D19*
%TO.P,C1,1*%
%TO.N,+5V*%
X91162600Y-84632500D03*
D13*
%TO.P,C1,2*%
%TO.N,GND*%
X89162600Y-84632500D03*
%TD*%
D14*
%TO.P,J2,1,Pin_1*%
%TO.N,Hall2_IN*%
X130700000Y-51640000D03*
D15*
%TO.P,J2,2,Pin_2*%
%TO.N,GND*%
X130700000Y-49100000D03*
%TO.P,J2,3,Pin_3*%
%TO.N,+5V*%
X130700000Y-46560000D03*
%TD*%
D25*
%TO.P,U4,1,GND*%
%TO.N,GND*%
X121135000Y-61511500D03*
D17*
%TO.P,U4,2,TR*%
%TO.N,Net-(D4-A)*%
X118595000Y-61511500D03*
%TO.P,U4,3,Q*%
%TO.N,NES55_Out2*%
X116055000Y-61511500D03*
%TO.P,U4,4,R*%
%TO.N,+5V*%
X113515000Y-61511500D03*
%TO.P,U4,5,CV*%
%TO.N,Net-(U4-CV)*%
X113515000Y-69131500D03*
%TO.P,U4,6,THR*%
%TO.N,Net-(U4-DIS)*%
X116055000Y-69131500D03*
%TO.P,U4,7,DIS*%
X118595000Y-69131500D03*
%TO.P,U4,8,VCC*%
%TO.N,+5V*%
X121135000Y-69131500D03*
%TD*%
D26*
%TO.P,A1,1,TX1*%
%TO.N,unconnected-(A1-TX1-Pad1)*%
X63080000Y-36582500D03*
D27*
%TO.P,A1,2,RX1*%
%TO.N,unconnected-(A1-RX1-Pad2)*%
X63080000Y-39122500D03*
%TO.P,A1,3,~{RESET}*%
%TO.N,unconnected-(A1-~{RESET}-Pad3)*%
X63080000Y-41662500D03*
%TO.P,A1,4,GND*%
%TO.N,GND*%
X63080000Y-44202500D03*
%TO.P,A1,5,D2*%
%TO.N,INT*%
X63080000Y-46742500D03*
%TO.P,A1,6,D3*%
%TO.N,unconnected-(A1-D3-Pad6)*%
X63080000Y-49282500D03*
%TO.P,A1,7,D4*%
%TO.N,unconnected-(A1-D4-Pad7)*%
X63080000Y-51822500D03*
%TO.P,A1,8,D5*%
%TO.N,unconnected-(A1-D5-Pad8)*%
X63080000Y-54362500D03*
%TO.P,A1,9,D6*%
%TO.N,unconnected-(A1-D6-Pad9)*%
X63080000Y-56902500D03*
%TO.P,A1,10,D7*%
%TO.N,unconnected-(A1-D7-Pad10)*%
X63080000Y-59442500D03*
%TO.P,A1,11,D8*%
%TO.N,unconnected-(A1-D8-Pad11)*%
X63080000Y-61982500D03*
%TO.P,A1,12,D9*%
%TO.N,unconnected-(A1-D9-Pad12)*%
X63080000Y-64522500D03*
%TO.P,A1,13,D10*%
%TO.N,CS*%
X63080000Y-67062500D03*
%TO.P,A1,14,MOSI*%
%TO.N,SI*%
X63080000Y-69602500D03*
%TO.P,A1,15,MISO*%
%TO.N,SO*%
X63080000Y-72142500D03*
%TO.P,A1,16,SCK*%
%TO.N,SCK*%
X78320000Y-72142500D03*
%TO.P,A1,17,3V3*%
%TO.N,unconnected-(A1-3V3-Pad17)*%
X78320000Y-69602500D03*
%TO.P,A1,18,AREF*%
%TO.N,unconnected-(A1-AREF-Pad18)*%
X78320000Y-67062500D03*
%TO.P,A1,19,A0*%
%TO.N,Nano_Input1*%
X78320000Y-64522500D03*
%TO.P,A1,20,A1*%
%TO.N,Nano_Input2*%
X78320000Y-61982500D03*
%TO.P,A1,21,A2*%
%TO.N,Nano_Input3*%
X78320000Y-59442500D03*
%TO.P,A1,22,A3*%
%TO.N,Hall1_IN*%
X78320000Y-56902500D03*
%TO.P,A1,23,SDA/A4*%
%TO.N,unconnected-(A1-SDA{slash}A4-Pad23)*%
X78320000Y-54362500D03*
%TO.P,A1,24,SCL/A5*%
%TO.N,unconnected-(A1-SCL{slash}A5-Pad24)*%
X78320000Y-51822500D03*
%TO.P,A1,25,A6*%
%TO.N,Hall2_IN*%
X78320000Y-49282500D03*
%TO.P,A1,26,A7*%
%TO.N,Hall3_IN*%
X78320000Y-46742500D03*
%TO.P,A1,27,+5V*%
%TO.N,+5V*%
X78320000Y-44202500D03*
%TO.P,A1,28,~{RESET}*%
%TO.N,unconnected-(A1-~{RESET}-Pad28)*%
X78320000Y-41662500D03*
%TO.P,A1,29,GND*%
%TO.N,GND*%
X78320000Y-39122500D03*
%TO.P,A1,30,VIN*%
%TO.N,+5V*%
X78320000Y-36582500D03*
%TD*%
D14*
%TO.P,J4,1,Pin_1*%
%TO.N,Hall3_IN*%
X102240000Y-27600000D03*
D15*
%TO.P,J4,2,Pin_2*%
%TO.N,GND*%
X99700000Y-27600000D03*
%TO.P,J4,3,Pin_3*%
%TO.N,+5V*%
X97160000Y-27600000D03*
%TD*%
D10*
%TO.P,R4,1*%
%TO.N,+5V*%
X106500000Y-76632500D03*
%TO.P,R4,2*%
%TO.N,Net-(D2-A)*%
X98880000Y-76632500D03*
%TD*%
D28*
%TO.P,D4,1,K*%
%TO.N,Net-(D4-K)*%
X117825000Y-50506500D03*
D29*
%TO.P,D4,2,A*%
%TO.N,Net-(D4-A)*%
X117825000Y-58126500D03*
%TD*%
D19*
%TO.P,C18,1*%
%TO.N,Net-(C18-Pad1)*%
X109067600Y-72941500D03*
D13*
%TO.P,C18,2*%
%TO.N,GND*%
X107067600Y-72941500D03*
%TD*%
D21*
%TO.P,D1,1,K*%
%TO.N,Net-(D1-K)*%
X115190000Y-80132500D03*
D22*
%TO.P,D1,2,A*%
%TO.N,+5V*%
X115190000Y-82672500D03*
%TD*%
D30*
%TO.P,X1,1,1*%
%TO.N,Net-(U7-OSC1)*%
X39440000Y-47382500D03*
%TO.P,X1,2,2*%
%TO.N,Net-(U7-OSC2)*%
X47940000Y-47382500D03*
%TD*%
D17*
%TO.P,C4,1*%
%TO.N,Net-(U2-CV)*%
X86433500Y-73132500D03*
%TO.P,C4,2*%
%TO.N,Net-(C4-Pad2)*%
X83933500Y-73132500D03*
%TD*%
D31*
%TO.P,U3,1,V_{CC}*%
%TO.N,+5V*%
X124025000Y-57266500D03*
%TO.P,U3,2,V_{OUT}*%
%TO.N,Hall2_IN*%
X124025000Y-55366500D03*
%TO.P,U3,3,GND*%
%TO.N,GND*%
X121625000Y-56316500D03*
%TD*%
D32*
%TO.P,U2,1,GND*%
%TO.N,GND*%
X96495000Y-80442500D03*
D17*
%TO.P,U2,2,TR*%
%TO.N,Net-(D2-A)*%
X96495000Y-77902500D03*
%TO.P,U2,3,Q*%
%TO.N,NES55_Out1*%
X96495000Y-75362500D03*
%TO.P,U2,4,R*%
%TO.N,+5V*%
X96495000Y-72822500D03*
%TO.P,U2,5,CV*%
%TO.N,Net-(U2-CV)*%
X88875000Y-72822500D03*
%TO.P,U2,6,THR*%
%TO.N,Net-(U2-DIS)*%
X88875000Y-75362500D03*
%TO.P,U2,7,DIS*%
X88875000Y-77902500D03*
%TO.P,U2,8,VCC*%
%TO.N,+5V*%
X88875000Y-80442500D03*
%TD*%
D11*
%TO.P,,*%
%TO.N,*%
X30500000Y-83500000D03*
%TD*%
D20*
%TO.P,C7,1*%
%TO.N,+5V*%
X129825000Y-57289099D03*
D13*
%TO.P,C7,2*%
%TO.N,GND*%
X129825000Y-55289099D03*
%TD*%
D31*
%TO.P,U5,1,V_{CC}*%
%TO.N,+5V*%
X95390000Y-43582500D03*
%TO.P,U5,2,V_{OUT}*%
%TO.N,Hall3_IN*%
X95390000Y-41682500D03*
%TO.P,U5,3,GND*%
%TO.N,GND*%
X92990000Y-42632500D03*
%TD*%
D17*
%TO.P,C9,1*%
%TO.N,Net-(U4-CV)*%
X113325000Y-72066500D03*
%TO.P,C9,2*%
%TO.N,Net-(C10-Pad2)*%
X113325000Y-74566500D03*
%TD*%
D11*
%TO.P,,*%
%TO.N,*%
X30500000Y-29500000D03*
%TD*%
D17*
%TO.P,C8,1*%
%TO.N,Net-(D4-K)*%
X121325000Y-50066500D03*
%TO.P,C8,2*%
%TO.N,Hall2_IN*%
X121325000Y-52566500D03*
%TD*%
D25*
%TO.P,U6,1,GND*%
%TO.N,GND*%
X96500000Y-46827500D03*
D17*
%TO.P,U6,2,TR*%
%TO.N,Net-(D6-A)*%
X93960000Y-46827500D03*
%TO.P,U6,3,Q*%
%TO.N,NES55_Out3*%
X91420000Y-46827500D03*
%TO.P,U6,4,R*%
%TO.N,+5V*%
X88880000Y-46827500D03*
%TO.P,U6,5,CV*%
%TO.N,Net-(U6-CV)*%
X88880000Y-54447500D03*
%TO.P,U6,6,THR*%
%TO.N,Net-(U6-DIS)*%
X91420000Y-54447500D03*
%TO.P,U6,7,DIS*%
X93960000Y-54447500D03*
%TO.P,U6,8,VCC*%
%TO.N,+5V*%
X96500000Y-54447500D03*
%TD*%
D19*
%TO.P,C20,1*%
%TO.N,Net-(C20-Pad1)*%
X83662600Y-42632500D03*
D13*
%TO.P,C20,2*%
%TO.N,GND*%
X81662600Y-42632500D03*
%TD*%
D19*
%TO.P,C5,1*%
%TO.N,Net-(U2-DIS)*%
X86156100Y-77132500D03*
D13*
%TO.P,C5,2*%
%TO.N,Net-(C4-Pad2)*%
X84156100Y-77132500D03*
%TD*%
D33*
%TO.P,J3,1,1*%
%TO.N,+5V*%
X56505000Y-85927500D03*
D34*
%TO.P,J3,2,2*%
%TO.N,GND*%
X60955000Y-85927500D03*
%TO.P,J3,3,3*%
%TO.N,Low*%
X65395000Y-85927500D03*
%TO.P,J3,4,4*%
%TO.N,High*%
X65395000Y-90377500D03*
%TO.P,J3,5,5*%
%TO.N,Low*%
X60955000Y-90377500D03*
%TO.P,J3,6,6*%
%TO.N,High*%
X56505000Y-90377500D03*
%TD*%
D10*
%TO.P,R15,1*%
%TO.N,+5V*%
X86380000Y-33132500D03*
%TO.P,R15,2*%
%TO.N,Net-(D6-K)*%
X94000000Y-33132500D03*
%TD*%
D18*
%TO.P,C24,1,1*%
%TO.N,Net-(U7-OSC2)*%
X47690000Y-43157500D03*
%TO.P,C24,2,2*%
%TO.N,0*%
X47690000Y-41607500D03*
%TD*%
D21*
%TO.P,D3,1,K*%
%TO.N,Net-(D3-K)*%
X125055000Y-40816500D03*
D22*
%TO.P,D3,2,A*%
%TO.N,+5V*%
X127595000Y-40816500D03*
%TD*%
D24*
%TO.P,C23,1,1*%
%TO.N,0*%
X51690000Y-41607500D03*
%TO.P,C23,2,2*%
%TO.N,+5V*%
X51690000Y-43157500D03*
%TD*%
D10*
%TO.P,R6,1*%
%TO.N,+5V*%
X86000000Y-86132500D03*
%TO.P,R6,2*%
%TO.N,Net-(R5-Pad1)*%
X78380000Y-86132500D03*
%TD*%
D12*
%TO.P,C6,1*%
%TO.N,+5V*%
X125825000Y-59843900D03*
D13*
%TO.P,C6,2*%
%TO.N,GND*%
X125825000Y-61843900D03*
%TD*%
D35*
%TO.P,D2,1,K*%
%TO.N,Net-(D2-K)*%
X107000000Y-79632500D03*
D29*
%TO.P,D2,2,A*%
%TO.N,Net-(D2-A)*%
X99380000Y-79632500D03*
%TD*%
D10*
%TO.P,R5,1*%
%TO.N,Net-(R5-Pad1)*%
X78380000Y-83132500D03*
%TO.P,R5,2*%
%TO.N,Net-(U2-DIS)*%
X86000000Y-83132500D03*
%TD*%
D28*
%TO.P,D6,1,K*%
%TO.N,Net-(D6-K)*%
X89690000Y-36322500D03*
D29*
%TO.P,D6,2,A*%
%TO.N,Net-(D6-A)*%
X89690000Y-43942500D03*
%TD*%
D10*
%TO.P,R11,1*%
%TO.N,Net-(R11-Pad1)*%
X122325000Y-80126500D03*
%TO.P,R11,2*%
%TO.N,Net-(U4-DIS)*%
X122325000Y-72506500D03*
%TD*%
%TO.P,R19,1*%
%TO.N,Net-(C16-Pad1)*%
X87380000Y-69132500D03*
%TO.P,R19,2*%
%TO.N,NES55_Out1*%
X95000000Y-69132500D03*
%TD*%
%TO.P,R23,1*%
%TO.N,Net-(C20-Pad1)*%
X85460000Y-46732500D03*
%TO.P,R23,2*%
%TO.N,NES55_Out3*%
X85460000Y-54352500D03*
%TD*%
D20*
%TO.P,C12,1*%
%TO.N,+5V*%
X99190000Y-43105100D03*
D13*
%TO.P,C12,2*%
%TO.N,GND*%
X99190000Y-41105100D03*
%TD*%
D10*
%TO.P,R2,1*%
%TO.N,+5V*%
X112993500Y-90282700D03*
%TO.P,R2,2*%
%TO.N,Hall1_IN*%
X105373500Y-90282700D03*
%TD*%
D36*
%TO.P,C22,1,1*%
%TO.N,+5V*%
X58190000Y-42097500D03*
%TO.P,C22,2,2*%
%TO.N,0*%
X58190000Y-40667500D03*
%TD*%
D10*
%TO.P,R20,1*%
%TO.N,Nano_Input1*%
X95000000Y-66132500D03*
%TO.P,R20,2*%
%TO.N,Net-(C16-Pad1)*%
X87380000Y-66132500D03*
%TD*%
D37*
%TO.P,U1,1,V_{CC}*%
%TO.N,+5V*%
X100233500Y-85982700D03*
%TO.P,U1,2,V_{OUT}*%
%TO.N,Hall1_IN*%
X102133500Y-85982700D03*
%TO.P,U1,3,GND*%
%TO.N,GND*%
X101183500Y-83582700D03*
%TD*%
D17*
%TO.P,C13,1*%
%TO.N,Net-(D6-K)*%
X93690000Y-36382500D03*
%TO.P,C13,2*%
%TO.N,Hall3_IN*%
X93690000Y-38882500D03*
%TD*%
D38*
%TO.P,C21,1*%
%TO.N,Nano_Input3*%
X82987401Y-58352500D03*
D13*
%TO.P,C21,2*%
%TO.N,GND*%
X84987401Y-58352500D03*
%TD*%
D12*
%TO.P,C17,1*%
%TO.N,Nano_Input1*%
X99690000Y-66132500D03*
D13*
%TO.P,C17,2*%
%TO.N,GND*%
X99690000Y-68132500D03*
%TD*%
D38*
%TO.P,C2,1*%
%TO.N,+5V*%
X94717401Y-85132500D03*
D13*
%TO.P,C2,2*%
%TO.N,GND*%
X96717401Y-85132500D03*
%TD*%
D39*
%TO.N,SI*%
X50690000Y-64132500D03*
%TO.N,+5V*%
X56690000Y-39606500D03*
X53690000Y-44132500D03*
X59690000Y-51132500D03*
X56690000Y-42157500D03*
%TO.N,GND*%
X101190000Y-81632500D03*
X120190000Y-56132500D03*
X91690000Y-41632500D03*
%TO.N,INT*%
X65200000Y-31201000D03*
%TO.N,Low*%
X56690000Y-27632500D03*
X61263185Y-46705685D03*
X46690000Y-82132500D03*
%TO.N,High*%
X61190000Y-43632500D03*
X61190000Y-30600000D03*
X58690000Y-29132500D03*
%TO.N,Hall1_IN*%
X81200000Y-80100000D03*
X82200000Y-92600000D03*
X82200000Y-88600000D03*
X78700000Y-77600000D03*
%TO.N,NES55_Out3*%
X83690000Y-50632500D03*
%TO.N,Hall2_IN*%
X69700000Y-30100000D03*
X133200000Y-51600000D03*
X69700000Y-35100000D03*
X136700000Y-51600000D03*
%TO.N,Hall3_IN*%
X73200000Y-35100000D03*
X73200000Y-30600000D03*
%TO.N,0*%
X42690000Y-51632500D03*
X50932501Y-46389999D03*
%TO.N,Net-(U7-TXCAN)*%
X51190000Y-50632500D03*
X55690000Y-50632500D03*
X49190000Y-49132500D03*
X52190000Y-44632500D03*
%TD*%
D40*
%TO.N,Nano_Input3*%
X78320000Y-59442500D02*
X81897401Y-59442500D01*
X82987401Y-55879901D02*
X81960000Y-54852500D01*
X81897401Y-59442500D02*
X82987401Y-58352500D01*
X82987401Y-58352500D02*
X82987401Y-55879901D01*
%TO.N,SI*%
X50690000Y-64132500D02*
X50690000Y-61532500D01*
%TO.N,SCK*%
X80690000Y-78632500D02*
X79690000Y-79632500D01*
X47690000Y-63632500D02*
X47999810Y-63632500D01*
X80200000Y-72142500D02*
X78320000Y-72142500D01*
X46690000Y-64632500D02*
X47690000Y-63632500D01*
X80690000Y-72632500D02*
X80690000Y-78632500D01*
X52190000Y-79632500D02*
X46690000Y-74132500D01*
X79690000Y-79632500D02*
X52190000Y-79632500D01*
X80690000Y-72632500D02*
X80200000Y-72142500D01*
X49420000Y-62212310D02*
X49420000Y-61532500D01*
X46690000Y-74132500D02*
X46690000Y-64632500D01*
X47999810Y-63632500D02*
X49420000Y-62212310D01*
D41*
%TO.N,+5V*%
X80190000Y-36582500D02*
X81690000Y-36582500D01*
D40*
X55690000Y-62132500D02*
X55690000Y-61612500D01*
D41*
X97620000Y-93100000D02*
X97620000Y-89562500D01*
X129190000Y-43132500D02*
X131200000Y-43132500D01*
X95690000Y-90632500D02*
X97190000Y-89132500D01*
X85190000Y-49132500D02*
X87495000Y-46827500D01*
X97190000Y-89132500D02*
X99190000Y-89132500D01*
X106500000Y-76632500D02*
X110343300Y-76632500D01*
X129190000Y-43132500D02*
X127690000Y-43132500D01*
X129690000Y-37632500D02*
X129690000Y-42132500D01*
X55870000Y-61632500D02*
X55770000Y-61532500D01*
X113515000Y-61511500D02*
X111190000Y-59186500D01*
X99767401Y-47159901D02*
X101690000Y-47159901D01*
D42*
X130700000Y-43632500D02*
X131200000Y-43132500D01*
D41*
X130700000Y-46560000D02*
X130700000Y-43632500D01*
X103460000Y-53322500D02*
X105776000Y-51006500D01*
X77190000Y-90632500D02*
X95690000Y-90632500D01*
X56505000Y-85927500D02*
X56505000Y-82817500D01*
X52165000Y-43632500D02*
X51915000Y-43382500D01*
X99767401Y-47159901D02*
X98598802Y-48328500D01*
X57190000Y-34100000D02*
X58690000Y-32600000D01*
X130690000Y-64132500D02*
X130690000Y-63132500D01*
X57190000Y-34100000D02*
X57190000Y-38632500D01*
X82930000Y-36582500D02*
X86380000Y-33132500D01*
X123913000Y-70909500D02*
X122913000Y-70909500D01*
X130690000Y-60266500D02*
X127690000Y-57266500D01*
X53190000Y-43632500D02*
X53690000Y-44132500D01*
X105190000Y-41902500D02*
X102960000Y-41902500D01*
X78320000Y-35220000D02*
X78320000Y-36582500D01*
X124025000Y-57266500D02*
X125825000Y-59066500D01*
X80190000Y-42332500D02*
X78320000Y-44202500D01*
X78320000Y-36582500D02*
X78640000Y-36582500D01*
X55190000Y-42157500D02*
X54665000Y-42157500D01*
X131200000Y-43132500D02*
X132232500Y-43132500D01*
X57190000Y-82132500D02*
X74690000Y-82132500D01*
X131510901Y-57289099D02*
X129825000Y-57289099D01*
X75700000Y-32600000D02*
X78320000Y-35220000D01*
X97620000Y-89562500D02*
X97190000Y-89132500D01*
X130690000Y-63132500D02*
X130690000Y-79632500D01*
X101757400Y-43105100D02*
X102960000Y-41902500D01*
X127325000Y-45006500D02*
X127325000Y-43132500D01*
X124025000Y-57266500D02*
X127690000Y-57266500D01*
X91162600Y-87605100D02*
X91162600Y-87132500D01*
X106190000Y-51006500D02*
X98816000Y-51006500D01*
X109190000Y-51006500D02*
X107690000Y-51006500D01*
X91162600Y-87132500D02*
X91162600Y-84632500D01*
X80190000Y-36582500D02*
X82930000Y-36582500D01*
X98712600Y-43582500D02*
X99190000Y-43105100D01*
X111415500Y-47407000D02*
X111415500Y-44907000D01*
X53190000Y-43632500D02*
X52165000Y-43632500D01*
X130690000Y-63132500D02*
X130690000Y-60266500D01*
X117690000Y-78132500D02*
X119690000Y-80132500D01*
X78320000Y-36582500D02*
X80190000Y-36582500D01*
X76190000Y-83632500D02*
X76190000Y-89632500D01*
X119690000Y-82132500D02*
X119150000Y-82672500D01*
X59690000Y-59632500D02*
X57690000Y-61632500D01*
X124510000Y-72506500D02*
X125325000Y-72506500D01*
X98190000Y-52757500D02*
X96500000Y-54447500D01*
X124190000Y-70632500D02*
X128440000Y-66382500D01*
X121135000Y-69131500D02*
X122913000Y-70909500D01*
X110343300Y-76632500D02*
X110683500Y-76972700D01*
X102960000Y-41902500D02*
X102190000Y-41132500D01*
X100233500Y-85982700D02*
X99083700Y-87132500D01*
X107690000Y-51006500D02*
X107816000Y-51006500D01*
X56690000Y-44632500D02*
X56690000Y-42157500D01*
X132232500Y-43132500D02*
X135200000Y-46100000D01*
X110690000Y-44132500D02*
X112690000Y-44132500D01*
X120190000Y-82632500D02*
X119690000Y-82132500D01*
X135200000Y-46100000D02*
X135200000Y-53600000D01*
X59690000Y-69632500D02*
X57130000Y-72192500D01*
X87000000Y-87132500D02*
X86000000Y-86132500D01*
X97160000Y-27600000D02*
X90200000Y-27600000D01*
X52102500Y-48017500D02*
X53305000Y-48017500D01*
X107690000Y-51006500D02*
X106190000Y-51006500D01*
X56690000Y-39132500D02*
X56690000Y-39606500D01*
X135200000Y-53600000D02*
X131510901Y-57289099D01*
X86380000Y-31420000D02*
X86380000Y-33132500D01*
X128690000Y-66132500D02*
X130690000Y-64132500D01*
X124190000Y-70632500D02*
X123913000Y-70909500D01*
X107420000Y-44132500D02*
X105190000Y-41902500D01*
X113825000Y-51006500D02*
X109190000Y-51006500D01*
X100233500Y-88089000D02*
X99190000Y-89132500D01*
X58130000Y-42157500D02*
X58190000Y-42097500D01*
X80190000Y-42132500D02*
X80190000Y-42332500D01*
X128690000Y-36632500D02*
X129690000Y-37632500D01*
X111843300Y-78132500D02*
X117690000Y-78132500D01*
X81690000Y-36582500D02*
X86140000Y-36582500D01*
X94717401Y-86659901D02*
X94717401Y-85132500D01*
X100233500Y-85982700D02*
X100233500Y-88089000D01*
X91162600Y-87132500D02*
X87000000Y-87132500D01*
D40*
X125825000Y-59066500D02*
X125825000Y-59843900D01*
D41*
X121690000Y-36632500D02*
X128690000Y-36632500D01*
X58690000Y-32600000D02*
X75700000Y-32600000D01*
X115143700Y-88132500D02*
X112993500Y-90282700D01*
X110665500Y-44157000D02*
X110690000Y-44132500D01*
X112690000Y-44132500D02*
X107420000Y-44132500D01*
X57130000Y-72192500D02*
X54690000Y-72192500D01*
X99083700Y-87132500D02*
X95190000Y-87132500D01*
X123413000Y-71409500D02*
X124510000Y-72506500D01*
X98190000Y-51632500D02*
X98190000Y-52757500D01*
X74690000Y-82132500D02*
X76190000Y-83632500D01*
X90200000Y-27600000D02*
X86380000Y-31420000D01*
X127690000Y-57266500D02*
X129802401Y-57266500D01*
X111915500Y-45407000D02*
X113825000Y-47316500D01*
X92690000Y-89132500D02*
X91162600Y-87605100D01*
X80690000Y-49132500D02*
X85190000Y-49132500D01*
X90381000Y-48328500D02*
X88880000Y-46827500D01*
D40*
X128440000Y-66382500D02*
X128690000Y-66132500D01*
D41*
X129690000Y-42132500D02*
X129690000Y-42632500D01*
X53305000Y-48017500D02*
X56690000Y-44632500D01*
X80190000Y-38132500D02*
X80190000Y-42132500D01*
X95190000Y-87132500D02*
X94717401Y-86659901D01*
X57690000Y-61632500D02*
X55870000Y-61632500D01*
X111190000Y-53006500D02*
X109190000Y-51006500D01*
X59690000Y-51132500D02*
X59690000Y-59632500D01*
X121190000Y-37132500D02*
X121690000Y-36632500D01*
X129690000Y-42632500D02*
X129190000Y-43132500D01*
X57190000Y-38632500D02*
X56690000Y-39132500D01*
X115190000Y-82672500D02*
X115190000Y-88132500D01*
X119690000Y-80132500D02*
X119690000Y-82132500D01*
D42*
X105776000Y-51006500D02*
X106190000Y-51006500D01*
D41*
X122913000Y-70909500D02*
X123413000Y-71409500D01*
X102190000Y-41132500D02*
X102190000Y-38422500D01*
X98816000Y-51006500D02*
X98190000Y-51632500D01*
X56505000Y-82817500D02*
X57190000Y-82132500D01*
X115190000Y-88132500D02*
X115143700Y-88132500D01*
X96190000Y-43582500D02*
X98712600Y-43582500D01*
X110683500Y-76972700D02*
X111843300Y-78132500D01*
X54665000Y-42157500D02*
X53190000Y-43632500D01*
X111415500Y-44907000D02*
X111915500Y-45407000D01*
X127325000Y-43132500D02*
X127325000Y-42632500D01*
X95390000Y-43582500D02*
X96190000Y-43582500D01*
X119150000Y-82672500D02*
X115190000Y-82672500D01*
X86140000Y-36582500D02*
X86190000Y-36632500D01*
X112690000Y-44132500D02*
X120190000Y-44132500D01*
X96190000Y-43582500D02*
X99767401Y-47159901D01*
X127325000Y-42632500D02*
X127325000Y-41086500D01*
X51915000Y-43382500D02*
X51915000Y-43157500D01*
X80190000Y-42132500D02*
X80190000Y-48632500D01*
X99190000Y-89132500D02*
X92690000Y-89132500D01*
X121190000Y-43132500D02*
X121190000Y-37132500D01*
X78640000Y-36582500D02*
X80190000Y-38132500D01*
X127690000Y-82632500D02*
X120190000Y-82632500D01*
X127325000Y-42632500D02*
X127325000Y-42767500D01*
X59690000Y-59632500D02*
X59690000Y-69632500D01*
D40*
X129802401Y-57266500D02*
X129825000Y-57289099D01*
D41*
X111190000Y-59186500D02*
X111190000Y-53006500D01*
X76190000Y-89632500D02*
X77190000Y-90632500D01*
D40*
X55690000Y-61612500D02*
X55770000Y-61532500D01*
X88875000Y-80442500D02*
X88828700Y-80488800D01*
D41*
X130690000Y-79632500D02*
X127690000Y-82632500D01*
X80190000Y-48632500D02*
X80690000Y-49132500D01*
X87495000Y-46827500D02*
X88880000Y-46827500D01*
X127325000Y-42767500D02*
X127690000Y-43132500D01*
X111165500Y-44657000D02*
X111415500Y-44907000D01*
X56690000Y-42157500D02*
X58130000Y-42157500D01*
X110665500Y-44157000D02*
X111165500Y-44657000D01*
X107816000Y-51006500D02*
X111415500Y-47407000D01*
X102190000Y-38422500D02*
X104790000Y-35822500D01*
X55190000Y-42157500D02*
X56690000Y-42157500D01*
X120190000Y-44132500D02*
X121190000Y-43132500D01*
X127325000Y-41086500D02*
X127595000Y-40816500D01*
X99190000Y-43105100D02*
X101757400Y-43105100D01*
X98598802Y-48328500D02*
X90381000Y-48328500D01*
D40*
X88828700Y-80442500D02*
X88875000Y-80442500D01*
%TO.N,GND*%
X96500000Y-46827500D02*
X92990000Y-43317500D01*
X92990000Y-42632500D02*
X92190000Y-42632500D01*
X96495000Y-80442500D02*
X98187500Y-82135000D01*
X98187500Y-82135000D02*
X97937500Y-81885000D01*
X99635200Y-83582700D02*
X101183500Y-83582700D01*
X121625000Y-57643900D02*
X121135000Y-58133900D01*
X91910100Y-81885000D02*
X89162600Y-84632500D01*
X99187500Y-83135000D02*
X99635200Y-83582700D01*
X98714901Y-83135000D02*
X96717401Y-85132500D01*
X121625000Y-56316500D02*
X121625000Y-57643900D01*
X120374000Y-56316500D02*
X120190000Y-56132500D01*
X97937500Y-81885000D02*
X91910100Y-81885000D01*
X98187500Y-82135000D02*
X99187500Y-83135000D01*
X92990000Y-43317500D02*
X92990000Y-42632500D01*
X101183500Y-83582700D02*
X101183500Y-81639000D01*
X121625000Y-57643900D02*
X125825000Y-61843900D01*
X121135000Y-58133900D02*
X121135000Y-61511500D01*
X91690000Y-42132500D02*
X91690000Y-41632500D01*
X96616300Y-80321200D02*
X96495000Y-80442500D01*
X101183500Y-81639000D02*
X101190000Y-81632500D01*
X121625000Y-56316500D02*
X120374000Y-56316500D01*
X92190000Y-42632500D02*
X91690000Y-42132500D01*
X99187500Y-83135000D02*
X98714901Y-83135000D01*
%TO.N,Nano_Input1*%
X94690000Y-64632500D02*
X94580000Y-64522500D01*
X99690000Y-66132500D02*
X98690000Y-66132500D01*
X94580000Y-64522500D02*
X78320000Y-64522500D01*
X98690000Y-66132500D02*
X97690000Y-66132500D01*
X98690000Y-66132500D02*
X97190000Y-64632500D01*
X97190000Y-64632500D02*
X94690000Y-64632500D01*
X97690000Y-66132500D02*
X95000000Y-66132500D01*
%TO.N,Nano_Input2*%
X105690000Y-60132500D02*
X105190000Y-60632500D01*
X109595000Y-58468900D02*
X109067600Y-57941500D01*
X79470000Y-63132500D02*
X78320000Y-61982500D01*
X104690000Y-63132500D02*
X79470000Y-63132500D01*
X109595000Y-60132500D02*
X109595000Y-58468900D01*
X105190000Y-60632500D02*
X105190000Y-62632500D01*
X105190000Y-62632500D02*
X104690000Y-63132500D01*
X109595000Y-61631500D02*
X109595000Y-60132500D01*
X109595000Y-60132500D02*
X105690000Y-60132500D01*
%TO.N,SO*%
X49690000Y-65632500D02*
X48690000Y-66632500D01*
X50322785Y-65632500D02*
X51960000Y-63995285D01*
X48690000Y-66632500D02*
X48690000Y-67132500D01*
X60090000Y-75132500D02*
X53190000Y-75132500D01*
X51960000Y-63995285D02*
X51960000Y-61532500D01*
X48690000Y-67132500D02*
X48690000Y-70632500D01*
X48690000Y-70632500D02*
X53190000Y-75132500D01*
X49690000Y-65632500D02*
X50322785Y-65632500D01*
X63080000Y-72142500D02*
X60090000Y-75132500D01*
%TO.N,CS*%
X52951000Y-73393500D02*
X59929000Y-73393500D01*
X51690000Y-65632500D02*
X53230000Y-64092500D01*
X61190000Y-72132500D02*
X61190000Y-68952500D01*
X61190000Y-68952500D02*
X63080000Y-67062500D01*
X51690000Y-72132500D02*
X52951000Y-73393500D01*
X53230000Y-64092500D02*
X53230000Y-61532500D01*
X51690000Y-65632500D02*
X51690000Y-72132500D01*
X59929000Y-73393500D02*
X61190000Y-72132500D01*
D42*
%TO.N,INT*%
X33500000Y-42592666D02*
X33500000Y-50500000D01*
X40600000Y-57600000D02*
X45242499Y-57600000D01*
X48150000Y-60507501D02*
X48150000Y-61532500D01*
X44891666Y-31201000D02*
X33500000Y-42592666D01*
X45242499Y-57600000D02*
X48150000Y-60507501D01*
X33500000Y-50500000D02*
X40600000Y-57600000D01*
X65200000Y-31201000D02*
X44891666Y-31201000D01*
D40*
%TO.N,Net-(D2-K)*%
X107000000Y-80909200D02*
X110683500Y-84592700D01*
X107000000Y-80632500D02*
X107000000Y-83210500D01*
X107000000Y-79632500D02*
X107000000Y-80632500D01*
X107000000Y-83210500D02*
X107683500Y-83894000D01*
X107000000Y-80632500D02*
X107000000Y-80909200D01*
%TO.N,Net-(D2-A)*%
X97650000Y-77902500D02*
X98285000Y-78537500D01*
X98285000Y-78537500D02*
X98035000Y-78287500D01*
X98035000Y-78287500D02*
X98035000Y-77477500D01*
X98285000Y-78537500D02*
X99380000Y-79632500D01*
X98035000Y-77477500D02*
X98880000Y-76632500D01*
X96495000Y-77902500D02*
X97650000Y-77902500D01*
%TO.N,Net-(D4-A)*%
X118595000Y-59132500D02*
X118595000Y-58896500D01*
X117825000Y-58126500D02*
X114325000Y-58126500D01*
X118595000Y-58896500D02*
X117825000Y-58126500D01*
X118595000Y-60132500D02*
X118595000Y-59816500D01*
X118595000Y-59816500D02*
X118595000Y-59132500D01*
X118595000Y-61511500D02*
X118595000Y-60132500D01*
X114325000Y-58126500D02*
X113825000Y-58626500D01*
%TO.N,Net-(D4-K)*%
X119690000Y-50506500D02*
X119825000Y-50506500D01*
X117825000Y-50506500D02*
X119690000Y-50506500D01*
X119690000Y-50506500D02*
X120190000Y-50006500D01*
X119825000Y-50506500D02*
X120885000Y-50506500D01*
X120190000Y-48571500D02*
X121445000Y-47316500D01*
X120190000Y-50006500D02*
X120190000Y-48571500D01*
X120885000Y-50506500D02*
X121325000Y-50066500D01*
%TO.N,Net-(D6-A)*%
X87032500Y-45095000D02*
X86190000Y-44252500D01*
X92227500Y-45095000D02*
X91075000Y-43942500D01*
X93960000Y-46827500D02*
X92227500Y-45095000D01*
X92227500Y-45095000D02*
X87032500Y-45095000D01*
X91075000Y-43942500D02*
X89690000Y-43942500D01*
%TO.N,Net-(D6-K)*%
X89690000Y-36322500D02*
X90810000Y-36322500D01*
X92595000Y-35287500D02*
X93690000Y-36382500D01*
X90810000Y-36322500D02*
X91845000Y-35287500D01*
X91845000Y-35287500D02*
X94000000Y-33132500D01*
X91845000Y-35287500D02*
X92595000Y-35287500D01*
%TO.N,Low*%
X45190000Y-27632500D02*
X56690000Y-27632500D01*
X44190000Y-82132500D02*
X43690000Y-81632500D01*
X43690000Y-81132500D02*
X43690000Y-64632500D01*
X30690000Y-51632500D02*
X30690000Y-42132500D01*
X59277500Y-48017500D02*
X59951370Y-48017500D01*
X56690000Y-27632500D02*
X56190000Y-27632500D01*
X59951370Y-48017500D02*
X61263185Y-46705685D01*
X31690000Y-41132500D02*
X45190000Y-27632500D01*
X30690000Y-42132500D02*
X31690000Y-41132500D01*
X43690000Y-64632500D02*
X30690000Y-51632500D01*
X43690000Y-81632500D02*
X43690000Y-81132500D01*
X46690000Y-82132500D02*
X44190000Y-82132500D01*
%TO.N,High*%
X59277500Y-46747500D02*
X60089999Y-46747500D01*
X61190000Y-45647499D02*
X61190000Y-43632500D01*
X60089999Y-46747500D02*
X61190000Y-45647499D01*
X59722500Y-29132500D02*
X61190000Y-30600000D01*
X58690000Y-29132500D02*
X59722500Y-29132500D01*
%TO.N,Hall1_IN*%
X102700000Y-93100000D02*
X102700000Y-91100000D01*
X104222200Y-83894000D02*
X105183500Y-83894000D01*
X103586850Y-84529350D02*
X104222200Y-83894000D01*
X78700000Y-77600000D02*
X75200000Y-74100000D01*
X82200000Y-88600000D02*
X82200000Y-81100000D01*
X102700000Y-91100000D02*
X103517300Y-90282700D01*
X105373500Y-87282700D02*
X105373500Y-90282700D01*
X102133500Y-85982700D02*
X103586850Y-84529350D01*
X103586850Y-84529350D02*
X103586850Y-85496050D01*
X75200000Y-58600000D02*
X76897500Y-56902500D01*
X103517300Y-90282700D02*
X105373500Y-90282700D01*
X102700000Y-95100000D02*
X102200000Y-95600000D01*
X82200000Y-81100000D02*
X81200000Y-80100000D01*
X102200000Y-95600000D02*
X83200000Y-95600000D01*
X76897500Y-56902500D02*
X78320000Y-56902500D01*
X102700000Y-93100000D02*
X102700000Y-95100000D01*
X103586850Y-85496050D02*
X105373500Y-87282700D01*
X82200000Y-94600000D02*
X82200000Y-92600000D01*
X83200000Y-95600000D02*
X82200000Y-94600000D01*
X75200000Y-74100000D02*
X75200000Y-58600000D01*
%TO.N,Net-(U2-DIS)*%
X87690000Y-77902500D02*
X87690000Y-76547500D01*
X87690000Y-77902500D02*
X88875000Y-77902500D01*
X87690000Y-76547500D02*
X88875000Y-75362500D01*
X86156100Y-77132500D02*
X86156100Y-78632500D01*
X86156100Y-78632500D02*
X86886100Y-77902500D01*
X86156100Y-78632500D02*
X86156100Y-82976400D01*
X86162600Y-82969900D02*
X86000000Y-83132500D01*
X86886100Y-77902500D02*
X87690000Y-77902500D01*
X86156100Y-82976400D02*
X86000000Y-83132500D01*
%TO.N,NES55_Out3*%
X84410000Y-54352500D02*
X85460000Y-54352500D01*
X83190000Y-51132500D02*
X83190000Y-53132500D01*
X83190000Y-53132500D02*
X84410000Y-54352500D01*
X83690000Y-50632500D02*
X83190000Y-51132500D01*
%TO.N,Net-(U2-CV)*%
X88565000Y-73132500D02*
X88875000Y-72822500D01*
X86433500Y-73132500D02*
X88565000Y-73132500D01*
%TO.N,Hall2_IN*%
X130700000Y-51640000D02*
X133160000Y-51640000D01*
X106700000Y-30600000D02*
X106700000Y-21600000D01*
X137200000Y-37100000D02*
X134200000Y-34100000D01*
X124825000Y-52626500D02*
X127325000Y-52626500D01*
X123510000Y-53941500D02*
X124825000Y-52626500D01*
X124025000Y-55266500D02*
X124025000Y-55366500D01*
X137200000Y-51100000D02*
X137200000Y-50600000D01*
X128311500Y-51640000D02*
X127325000Y-52626500D01*
X133160000Y-51640000D02*
X133200000Y-51600000D01*
X121325000Y-52566500D02*
X122700000Y-53941500D01*
X69700000Y-40662500D02*
X78320000Y-49282500D01*
X109700000Y-34100000D02*
X106700000Y-31100000D01*
X79700000Y-20100000D02*
X69700000Y-30100000D01*
X122700000Y-53941500D02*
X123510000Y-53941500D01*
X106700000Y-21600000D02*
X105200000Y-20100000D01*
X137200000Y-50600000D02*
X137200000Y-37100000D01*
X130700000Y-51640000D02*
X128311500Y-51640000D01*
X106700000Y-31100000D02*
X106700000Y-30600000D01*
X136700000Y-51600000D02*
X137200000Y-51100000D01*
X69700000Y-35100000D02*
X69700000Y-40662500D01*
X105200000Y-20100000D02*
X79700000Y-20100000D01*
X134200000Y-34100000D02*
X109700000Y-34100000D01*
X122700000Y-53941500D02*
X124025000Y-55266500D01*
%TO.N,Net-(U4-CV)*%
X113515000Y-69131500D02*
X113515000Y-71876500D01*
X113515000Y-71876500D02*
X113325000Y-72066500D01*
%TO.N,Net-(U4-DIS)*%
X119190000Y-70816500D02*
X118325000Y-70816500D01*
X117740000Y-70816500D02*
X116055000Y-69131500D01*
X119825000Y-71478900D02*
X120690000Y-72343900D01*
X118190000Y-70816500D02*
X118325000Y-70816500D01*
X122162400Y-72343900D02*
X122325000Y-72506500D01*
X118595000Y-69131500D02*
X118595000Y-70546500D01*
X119825000Y-72343900D02*
X120690000Y-72343900D01*
X118595000Y-70546500D02*
X118325000Y-70816500D01*
X118190000Y-70816500D02*
X117740000Y-70816500D01*
X120690000Y-72343900D02*
X122162400Y-72343900D01*
X117825000Y-72343900D02*
X119825000Y-72343900D01*
X119825000Y-71451500D02*
X119190000Y-70816500D01*
X119825000Y-71451500D02*
X119825000Y-71478900D01*
%TO.N,Hall3_IN*%
X104700000Y-23100000D02*
X103700000Y-22100000D01*
X73200000Y-41622500D02*
X78320000Y-46742500D01*
X96750000Y-35822500D02*
X95565000Y-37007500D01*
X103700000Y-22100000D02*
X90200000Y-22100000D01*
X102240000Y-27600000D02*
X102240000Y-26560000D01*
D42*
X102240000Y-27600000D02*
X102240000Y-27752500D01*
D40*
X102240000Y-27752500D02*
X97170000Y-32822500D01*
X81700000Y-22100000D02*
X73200000Y-30600000D01*
X102240000Y-26560000D02*
X104700000Y-24100000D01*
X97170000Y-35822500D02*
X96750000Y-35822500D01*
X73200000Y-35100000D02*
X73200000Y-41622500D01*
X104700000Y-24100000D02*
X104700000Y-23100000D01*
X95390000Y-37182500D02*
X95390000Y-41682500D01*
X90200000Y-22100000D02*
X81700000Y-22100000D01*
X97170000Y-32822500D02*
X97170000Y-35822500D01*
X95565000Y-37007500D02*
X93690000Y-38882500D01*
X95565000Y-37007500D02*
X95390000Y-37182500D01*
%TO.N,Net-(U6-DIS)*%
X93430000Y-56457500D02*
X91420000Y-54447500D01*
X95312600Y-58159900D02*
X93960000Y-58159900D01*
X97015000Y-56457500D02*
X96190000Y-56457500D01*
X93960000Y-54447500D02*
X95970000Y-56457500D01*
D42*
X95970000Y-56457500D02*
X96190000Y-56457500D01*
D40*
X97015000Y-56457500D02*
X95312600Y-58159900D01*
X96190000Y-56457500D02*
X93430000Y-56457500D01*
X100460000Y-53012500D02*
X97015000Y-56457500D01*
%TO.N,Net-(U6-CV)*%
X88880000Y-56962500D02*
X88460000Y-57382500D01*
X88880000Y-54447500D02*
X88880000Y-56962500D01*
%TO.N,Net-(C4-Pad2)*%
X83933500Y-76909900D02*
X84156100Y-77132500D01*
X83933500Y-73132500D02*
X83933500Y-76909900D01*
%TO.N,Net-(C10-Pad2)*%
X117602400Y-74566500D02*
X117825000Y-74343900D01*
X113325000Y-74566500D02*
X117602400Y-74566500D01*
%TO.N,Net-(C14-Pad2)*%
X88460000Y-59882500D02*
X93682600Y-59882500D01*
X93682600Y-59882500D02*
X93960000Y-60159900D01*
%TO.N,Net-(C16-Pad1)*%
X86190000Y-68132500D02*
X86880000Y-68132500D01*
X86880000Y-68132500D02*
X87380000Y-67632500D01*
X87380000Y-67632500D02*
X87380000Y-69132500D01*
X83190000Y-68605100D02*
X85717400Y-68605100D01*
X85717400Y-68605100D02*
X86190000Y-68132500D01*
X87380000Y-66132500D02*
X87380000Y-67632500D01*
%TO.N,Net-(C18-Pad1)*%
X109067600Y-70724100D02*
X107595000Y-69251500D01*
X109067600Y-72941500D02*
X109067600Y-70724100D01*
X107595000Y-69251500D02*
X109595000Y-69251500D01*
X106445000Y-69251500D02*
X107595000Y-69251500D01*
%TO.N,Net-(C20-Pad1)*%
X83662600Y-46705100D02*
X84190000Y-47232500D01*
X83662600Y-42632500D02*
X83662600Y-46705100D01*
X81960000Y-47232500D02*
X84190000Y-47232500D01*
X84190000Y-47232500D02*
X84960000Y-47232500D01*
X84960000Y-47232500D02*
X85460000Y-46732500D01*
%TO.N,Net-(D1-K)*%
X112993500Y-82329000D02*
X115190000Y-80132500D01*
X112993500Y-87282700D02*
X112993500Y-82329000D01*
%TO.N,Net-(D3-K)*%
X124825000Y-45006500D02*
X124825000Y-41046500D01*
X124825000Y-41046500D02*
X125055000Y-40816500D01*
%TO.N,Net-(D5-K)*%
X107190000Y-35222500D02*
X104790000Y-32822500D01*
X107190000Y-37362500D02*
X107190000Y-35222500D01*
X105190000Y-39362500D02*
X107190000Y-37362500D01*
%TO.N,Net-(R5-Pad1)*%
X78380000Y-83132500D02*
X78380000Y-86132500D01*
%TO.N,Net-(R11-Pad1)*%
X122325000Y-80126500D02*
X125325000Y-80126500D01*
%TO.N,Net-(R17-Pad1)*%
X103150000Y-60632500D02*
X103460000Y-60942500D01*
X100460000Y-60632500D02*
X103150000Y-60632500D01*
%TO.N,NES55_Out1*%
X96495000Y-75362500D02*
X95000000Y-73867500D01*
X95000000Y-73867500D02*
X95000000Y-69132500D01*
%TO.N,0*%
X59690000Y-45065000D02*
X59277500Y-45477500D01*
X45610000Y-52232500D02*
X45010000Y-51632500D01*
X50932501Y-46389999D02*
X50914000Y-46371499D01*
X52415000Y-40607500D02*
X55190000Y-40607500D01*
X58130000Y-40607500D02*
X58190000Y-40667500D01*
X58755000Y-40667500D02*
X59690000Y-41602500D01*
X48690000Y-40382500D02*
X51690000Y-40382500D01*
X51690000Y-40382500D02*
X52190000Y-40382500D01*
X45010000Y-51632500D02*
X42690000Y-51632500D01*
X47690000Y-41382500D02*
X48690000Y-40382500D01*
X39465000Y-41607500D02*
X39190000Y-41607500D01*
X51290001Y-46747500D02*
X52102500Y-46747500D01*
X51690000Y-41607500D02*
X51690000Y-41332500D01*
X49690000Y-43607500D02*
X51690000Y-41607500D01*
X47690000Y-41607500D02*
X47690000Y-41382500D01*
X34190000Y-50132500D02*
X35690000Y-51632500D01*
X35715000Y-41607500D02*
X34190000Y-43132500D01*
X52190000Y-40382500D02*
X52415000Y-40607500D01*
X58190000Y-40667500D02*
X58755000Y-40667500D01*
X55190000Y-40607500D02*
X58130000Y-40607500D01*
X34190000Y-43132500D02*
X34190000Y-50132500D01*
X35690000Y-51632500D02*
X42690000Y-51632500D01*
X50932501Y-46389999D02*
X49690000Y-45147498D01*
X59690000Y-41602500D02*
X59690000Y-45065000D01*
X49690000Y-45147498D02*
X49690000Y-43607500D01*
X40690000Y-40382500D02*
X39465000Y-41607500D01*
X47690000Y-40382500D02*
X48690000Y-40382500D01*
X51290001Y-46747500D02*
X50932501Y-46389999D01*
X51690000Y-41332500D02*
X52415000Y-40607500D01*
X39190000Y-41607500D02*
X35715000Y-41607500D01*
X40690000Y-40382500D02*
X47690000Y-40382500D01*
%TO.N,Net-(U7-OSC2)*%
X47940000Y-52022500D02*
X48150000Y-52232500D01*
X47690000Y-47132500D02*
X47940000Y-47382500D01*
X47690000Y-43157500D02*
X47690000Y-47132500D01*
X47940000Y-47382500D02*
X47940000Y-52022500D01*
%TO.N,Net-(U7-OSC1)*%
X36690000Y-43882500D02*
X37415000Y-43157500D01*
X46054999Y-50382500D02*
X39690000Y-50382500D01*
X39440000Y-50132500D02*
X39690000Y-50382500D01*
X36690000Y-49882500D02*
X36690000Y-43882500D01*
X39690000Y-50382500D02*
X37190000Y-50382500D01*
X46880000Y-52232500D02*
X46880000Y-51207501D01*
X46880000Y-51207501D02*
X46054999Y-50382500D01*
X39440000Y-47382500D02*
X39440000Y-50132500D01*
X37415000Y-43157500D02*
X39190000Y-43157500D01*
X37190000Y-50382500D02*
X36690000Y-49882500D01*
%TO.N,Net-(U7-~{RESET})*%
X54500000Y-61532500D02*
X54500000Y-64382500D01*
X54500000Y-64382500D02*
X54690000Y-64572500D01*
%TO.N,Net-(U7-TXCAN)*%
X52102500Y-44720000D02*
X52190000Y-44632500D01*
X49190000Y-49132500D02*
X49190000Y-50132500D01*
X49690000Y-50632500D02*
X49190000Y-50132500D01*
X49690000Y-50632500D02*
X51190000Y-50632500D01*
X56690000Y-51312500D02*
X55770000Y-52232500D01*
X55770000Y-50712500D02*
X55690000Y-50632500D01*
X56690000Y-51132500D02*
X56690000Y-51312500D01*
X52102500Y-45477500D02*
X52102500Y-44720000D01*
X56190000Y-50632500D02*
X56690000Y-51132500D01*
X55690000Y-50632500D02*
X56190000Y-50632500D01*
%TO.N,Net-(U7-RXCAN)*%
X54500000Y-52232500D02*
X54500000Y-50942500D01*
X52690000Y-50632500D02*
X52190000Y-50132500D01*
X52190000Y-50132500D02*
X52190000Y-49375000D01*
X54500000Y-50942500D02*
X54190000Y-50632500D01*
X54190000Y-50632500D02*
X52690000Y-50632500D01*
X52190000Y-49375000D02*
X52102500Y-49287500D01*
%TD*%
M02*
