M48
; DRILL file {KiCad 9.0.7} date 2026-04-14T08:08:07-0700
; FORMAT={-:-/ absolute / metric / decimal}
; #@! TF.CreationDate,2026-04-14T08:08:07-07:00
; #@! TF.GenerationSoftware,Kicad,Pcbnew,9.0.7
; #@! TF.FileFunction,Plated,1,2,PTH
FMAT,2
METRIC
; #@! TA.AperFunction,Plated,PTH,ViaDrill
T1C0.300
; #@! TA.AperFunction,Plated,PTH,ComponentDrill
T2C0.600
; #@! TA.AperFunction,Plated,PTH,ComponentDrill
T3C0.700
; #@! TA.AperFunction,Plated,PTH,ComponentDrill
T4C0.800
; #@! TA.AperFunction,Plated,PTH,ComponentDrill
T5C0.900
; #@! TA.AperFunction,Plated,PTH,ComponentDrill
T6C1.000
; #@! TA.AperFunction,Plated,PTH,ComponentDrill
T7C1.100
; #@! TA.AperFunction,Plated,PTH,ComponentDrill
T8C1.930
%
G90
G05
T1
X42.69Y-51.633
X46.69Y-82.132
X49.19Y-49.133
X50.69Y-64.132
X50.933Y-46.39
X51.19Y-50.633
X52.19Y-44.633
X53.69Y-44.133
X55.69Y-50.633
X56.69Y-27.633
X56.69Y-39.606
X56.69Y-42.157
X58.69Y-29.133
X59.69Y-51.133
X61.19Y-30.6
X61.19Y-43.633
X61.263Y-46.706
X65.2Y-31.201
X69.7Y-30.1
X69.7Y-35.1
X73.2Y-30.6
X73.2Y-35.1
X78.7Y-77.6
X81.2Y-80.1
X82.2Y-88.6
X82.2Y-92.6
X83.69Y-50.633
X91.69Y-41.633
X101.19Y-81.632
X120.19Y-56.133
X133.2Y-51.6
X136.7Y-51.6
T2
X81.663Y-42.633
X82.987Y-58.352
X83.19Y-66.605
X83.19Y-68.605
X83.663Y-42.633
X84.156Y-77.132
X84.987Y-58.352
X86.156Y-77.132
X89.163Y-84.632
X91.163Y-84.632
X93.96Y-58.16
X93.96Y-60.16
X94.717Y-85.132
X96.717Y-85.132
X99.19Y-41.105
X99.19Y-43.105
X99.69Y-66.132
X99.69Y-68.132
X101.69Y-47.16
X101.69Y-49.16
X107.068Y-57.941
X107.068Y-72.941
X109.068Y-57.941
X109.068Y-72.941
X117.825Y-72.344
X117.825Y-74.344
X125.825Y-59.844
X125.825Y-61.844
X129.825Y-55.289
X129.825Y-57.289
T3
X54.69Y-64.572
X54.69Y-72.192
X78.38Y-83.132
X78.38Y-86.132
X81.96Y-47.232
X81.96Y-54.852
X85.46Y-46.732
X85.46Y-54.352
X86.0Y-83.132
X86.0Y-86.132
X86.19Y-36.633
X86.19Y-44.252
X86.38Y-33.133
X87.38Y-66.132
X87.38Y-69.132
X94.0Y-33.133
X95.0Y-66.132
X95.0Y-69.132
X97.17Y-32.822
X97.17Y-35.822
X98.88Y-76.632
X100.46Y-53.012
X100.46Y-60.633
X103.46Y-53.322
X103.46Y-60.942
X104.79Y-32.822
X104.79Y-35.822
X105.373Y-87.283
X105.373Y-90.283
X106.445Y-61.631
X106.445Y-69.251
X106.5Y-76.632
X109.595Y-61.631
X109.595Y-69.251
X110.683Y-76.973
X110.683Y-84.593
X112.993Y-87.283
X112.993Y-90.283
X113.825Y-47.316
X113.825Y-51.006
X113.825Y-58.627
X121.445Y-47.316
X122.325Y-72.507
X122.325Y-80.126
X124.825Y-45.006
X124.825Y-52.627
X125.325Y-72.507
X125.325Y-80.126
X127.325Y-45.006
X127.325Y-52.627
T4
X83.933Y-73.132
X86.433Y-73.132
X88.46Y-57.383
X88.46Y-59.883
X88.875Y-72.822
X88.875Y-75.362
X88.875Y-77.903
X88.875Y-80.442
X88.88Y-46.828
X88.88Y-54.447
X91.42Y-46.828
X91.42Y-54.447
X93.69Y-36.383
X93.69Y-38.883
X93.96Y-46.828
X93.96Y-54.447
X96.495Y-72.822
X96.495Y-75.362
X96.495Y-77.903
X96.495Y-80.442
X96.5Y-46.828
X96.5Y-54.447
X105.183Y-83.894
X107.683Y-83.894
X113.325Y-72.066
X113.325Y-74.566
X113.515Y-61.511
X113.515Y-69.132
X116.055Y-61.511
X116.055Y-69.132
X118.595Y-61.511
X118.595Y-69.132
X121.135Y-61.511
X121.135Y-69.132
X121.325Y-50.066
X121.325Y-52.566
T5
X105.19Y-39.362
X105.19Y-41.902
X115.19Y-80.132
X115.19Y-82.672
X125.055Y-40.816
X127.595Y-40.816
T6
X63.08Y-36.582
X63.08Y-39.122
X63.08Y-41.663
X63.08Y-44.203
X63.08Y-46.742
X63.08Y-49.282
X63.08Y-51.822
X63.08Y-54.362
X63.08Y-56.902
X63.08Y-59.442
X63.08Y-61.982
X63.08Y-64.522
X63.08Y-67.062
X63.08Y-69.602
X63.08Y-72.142
X78.32Y-36.582
X78.32Y-39.122
X78.32Y-41.663
X78.32Y-44.203
X78.32Y-46.742
X78.32Y-49.282
X78.32Y-51.822
X78.32Y-54.362
X78.32Y-56.902
X78.32Y-59.442
X78.32Y-61.982
X78.32Y-64.522
X78.32Y-67.062
X78.32Y-69.602
X78.32Y-72.142
X97.16Y-27.6
X97.62Y-93.1
X99.7Y-27.6
X100.16Y-93.1
X102.24Y-27.6
X102.7Y-93.1
X130.7Y-46.56
X130.7Y-49.1
X130.7Y-51.64
T7
X89.69Y-36.322
X89.69Y-43.942
X99.38Y-79.632
X107.0Y-79.632
X117.825Y-50.506
X117.825Y-58.127
T8
X56.505Y-85.927
X56.505Y-90.377
X60.955Y-85.927
X60.955Y-90.377
X65.395Y-85.927
X65.395Y-90.377
M30
