%TF.GenerationSoftware,KiCad,Pcbnew,9.0.7*%
%TF.CreationDate,2026-04-14T08:08:21-07:00*%
%TF.ProjectId,#1PCB,23315043-422e-46b6-9963-61645f706362,1*%
%TF.SameCoordinates,Original*%
%TF.FileFunction,Paste,Top*%
%TF.FilePolarity,Positive*%
%FSLAX46Y46*%
G04 Gerber Fmt 4.6, Leading zero omitted, Abs format (unit mm)*
G04 Created by KiCad (PCBNEW 9.0.7) date 2026-04-14 08:08:21*
%MOMM*%
%LPD*%
G01*
G04 APERTURE LIST*
G04 Aperture macros list*
%AMRoundRect*
0 Rectangle with rounded corners*
0 $1 Rounding radius*
0 $2 $3 $4 $5 $6 $7 $8 $9 X,Y pos of 4 corners*
0 Add a 4 corners polygon primitive as box body*
4,1,4,$2,$3,$4,$5,$6,$7,$8,$9,$2,$3,0*
0 Add four circle primitives for the rounded corners*
1,1,$1+$1,$2,$3*
1,1,$1+$1,$4,$5*
1,1,$1+$1,$6,$7*
1,1,$1+$1,$8,$9*
0 Add four rect primitives between the rounded corners*
20,1,$1+$1,$2,$3,$4,$5,0*
20,1,$1+$1,$4,$5,$6,$7,0*
20,1,$1+$1,$6,$7,$8,$9,0*
20,1,$1+$1,$8,$9,$2,$3,0*%
G04 Aperture macros list end*
%ADD10RoundRect,0.162500X-0.650000X-0.162500X0.650000X-0.162500X0.650000X0.162500X-0.650000X0.162500X0*%
%ADD11RoundRect,0.225000X0.250000X-0.225000X0.250000X0.225000X-0.250000X0.225000X-0.250000X-0.225000X0*%
%ADD12RoundRect,0.150000X-0.150000X0.875000X-0.150000X-0.875000X0.150000X-0.875000X0.150000X0.875000X0*%
%ADD13RoundRect,0.225000X-0.250000X0.225000X-0.250000X-0.225000X0.250000X-0.225000X0.250000X0.225000X0*%
%ADD14RoundRect,0.250000X-2.000000X-0.750000X2.000000X-0.750000X2.000000X0.750000X-2.000000X0.750000X0*%
%ADD15RoundRect,0.175000X0.325000X0.175000X-0.325000X0.175000X-0.325000X-0.175000X0.325000X-0.175000X0*%
%ADD16RoundRect,0.250000X0.315000X-0.295000X0.315000X0.295000X-0.315000X0.295000X-0.315000X-0.295000X0*%
%ADD17RoundRect,0.175000X0.175000X-0.325000X0.175000X0.325000X-0.175000X0.325000X-0.175000X-0.325000X0*%
G04 APERTURE END LIST*
D10*
%TO.C,U8*%
X52102500Y-45477500D03*
X52102500Y-46747500D03*
X52102500Y-48017500D03*
X52102500Y-49287500D03*
X59277500Y-49287500D03*
X59277500Y-48017500D03*
X59277500Y-46747500D03*
X59277500Y-45477500D03*
%TD*%
D11*
%TO.C,C25*%
X39190000Y-43157500D03*
X39190000Y-41607500D03*
%TD*%
D12*
%TO.C,U7*%
X55770000Y-52232500D03*
X54500000Y-52232500D03*
X53230000Y-52232500D03*
X51960000Y-52232500D03*
X50690000Y-52232500D03*
X49420000Y-52232500D03*
X48150000Y-52232500D03*
X46880000Y-52232500D03*
X45610000Y-52232500D03*
X45610000Y-61532500D03*
X46880000Y-61532500D03*
X48150000Y-61532500D03*
X49420000Y-61532500D03*
X50690000Y-61532500D03*
X51960000Y-61532500D03*
X53230000Y-61532500D03*
X54500000Y-61532500D03*
X55770000Y-61532500D03*
%TD*%
D13*
%TO.C,C26*%
X55190000Y-40607500D03*
X55190000Y-42157500D03*
%TD*%
D14*
%TO.C,X1*%
X39440000Y-47382500D03*
X47940000Y-47382500D03*
%TD*%
D15*
%TO.C,U3*%
X124025000Y-57266500D03*
X124025000Y-55366500D03*
X121625000Y-56316500D03*
%TD*%
%TO.C,U5*%
X95390000Y-43582500D03*
X95390000Y-41682500D03*
X92990000Y-42632500D03*
%TD*%
D11*
%TO.C,C24*%
X47690000Y-43157500D03*
X47690000Y-41607500D03*
%TD*%
D13*
%TO.C,C23*%
X51690000Y-41607500D03*
X51690000Y-43157500D03*
%TD*%
D16*
%TO.C,C22*%
X58190000Y-42097500D03*
X58190000Y-40667500D03*
%TD*%
D17*
%TO.C,U1*%
X100233500Y-85982700D03*
X102133500Y-85982700D03*
X101183500Y-83582700D03*
%TD*%
M02*
