%TF.GenerationSoftware,KiCad,Pcbnew,9.0.7*%
%TF.CreationDate,2026-04-14T08:08:21-07:00*%
%TF.ProjectId,#1PCB,23315043-422e-46b6-9963-61645f706362,1*%
%TF.SameCoordinates,Original*%
%TF.FileFunction,Soldermask,Top*%
%TF.FilePolarity,Negative*%
%FSLAX46Y46*%
G04 Gerber Fmt 4.6, Leading zero omitted, Abs format (unit mm)*
G04 Created by KiCad (PCBNEW 9.0.7) date 2026-04-14 08:08:21*
%MOMM*%
%LPD*%
G01*
G04 APERTURE LIST*
G04 Aperture macros list*
%AMRoundRect*
0 Rectangle with rounded corners*
0 $1 Rounding radius*
0 $2 $3 $4 $5 $6 $7 $8 $9 X,Y pos of 4 corners*
0 Add a 4 corners polygon primitive as box body*
4,1,4,$2,$3,$4,$5,$6,$7,$8,$9,$2,$3,0*
0 Add four circle primitives for the rounded corners*
1,1,$1+$1,$2,$3*
1,1,$1+$1,$4,$5*
1,1,$1+$1,$6,$7*
1,1,$1+$1,$8,$9*
0 Add four rect primitives between the rounded corners*
20,1,$1+$1,$2,$3,$4,$5,0*
20,1,$1+$1,$4,$5,$6,$7,0*
20,1,$1+$1,$6,$7,$8,$9,0*
20,1,$1+$1,$8,$9,$2,$3,0*%
G04 Aperture macros list end*
%ADD10C,1.400000*%
%ADD11C,1.500000*%
%ADD12RoundRect,0.250000X-0.350000X0.350000X-0.350000X-0.350000X0.350000X-0.350000X0.350000X0.350000X0*%
%ADD13C,1.200000*%
%ADD14R,1.700000X1.700000*%
%ADD15C,1.700000*%
%ADD16RoundRect,0.162500X-0.650000X-0.162500X0.650000X-0.162500X0.650000X0.162500X-0.650000X0.162500X0*%
%ADD17C,1.600000*%
%ADD18RoundRect,0.225000X0.250000X-0.225000X0.250000X0.225000X-0.250000X0.225000X-0.250000X-0.225000X0*%
%ADD19C,3.500000*%
%ADD20RoundRect,0.250000X0.350000X0.350000X-0.350000X0.350000X-0.350000X-0.350000X0.350000X-0.350000X0*%
%ADD21RoundRect,0.250000X0.350000X-0.350000X0.350000X0.350000X-0.350000X0.350000X-0.350000X-0.350000X0*%
%ADD22R,1.800000X1.800000*%
%ADD23C,1.800000*%
%ADD24RoundRect,0.150000X-0.150000X0.875000X-0.150000X-0.875000X0.150000X-0.875000X0.150000X0.875000X0*%
%ADD25RoundRect,0.225000X-0.250000X0.225000X-0.250000X-0.225000X0.250000X-0.225000X0.250000X0.225000X0*%
%ADD26RoundRect,0.250000X-0.550000X0.550000X-0.550000X-0.550000X0.550000X-0.550000X0.550000X0.550000X0*%
%ADD27R,1.600000X1.600000*%
%ADD28O,1.600000X1.600000*%
%ADD29RoundRect,0.249999X-0.850001X0.850001X-0.850001X-0.850001X0.850001X-0.850001X0.850001X0.850001X0*%
%ADD30C,2.200000*%
%ADD31RoundRect,0.250000X-2.000000X-0.750000X2.000000X-0.750000X2.000000X0.750000X-2.000000X0.750000X0*%
%ADD32RoundRect,0.175000X0.325000X0.175000X-0.325000X0.175000X-0.325000X-0.175000X0.325000X-0.175000X0*%
%ADD33RoundRect,0.250000X0.550000X0.550000X-0.550000X0.550000X-0.550000X-0.550000X0.550000X-0.550000X0*%
%ADD34C,3.550000*%
%ADD35RoundRect,0.102000X-1.447500X-1.447500X1.447500X-1.447500X1.447500X1.447500X-1.447500X1.447500X0*%
%ADD36C,3.099000*%
%ADD37RoundRect,0.249999X0.850001X0.850001X-0.850001X0.850001X-0.850001X-0.850001X0.850001X-0.850001X0*%
%ADD38RoundRect,0.250000X0.315000X-0.295000X0.315000X0.295000X-0.315000X0.295000X-0.315000X-0.295000X0*%
%ADD39RoundRect,0.175000X0.175000X-0.325000X0.175000X0.325000X-0.175000X0.325000X-0.175000X-0.325000X0*%
%ADD40RoundRect,0.250000X-0.350000X-0.350000X0.350000X-0.350000X0.350000X0.350000X-0.350000X0.350000X0*%
G04 APERTURE END LIST*
D10*
%TO.C,R21*%
X106445000Y-69251500D03*
X106445000Y-61631500D03*
%TD*%
D11*
%TO.C,REF\u002A\u002A*%
X129500000Y-30000000D03*
%TD*%
D10*
%TO.C,R8*%
X127325000Y-45006500D03*
X127325000Y-52626500D03*
%TD*%
%TO.C,R9*%
X113825000Y-47316500D03*
X121445000Y-47316500D03*
%TD*%
D12*
%TO.C,C11*%
X101690000Y-47159901D03*
D13*
X101690000Y-49159901D03*
%TD*%
D11*
%TO.C,*%
X131000000Y-84000000D03*
%TD*%
D10*
%TO.C,R13*%
X104790000Y-32822500D03*
X97170000Y-32822500D03*
%TD*%
D14*
%TO.C,J1*%
X102700000Y-93100000D03*
D15*
X100160000Y-93100000D03*
X97620000Y-93100000D03*
%TD*%
D10*
%TO.C,R10*%
X113825000Y-51006500D03*
X113825000Y-58626500D03*
%TD*%
%TO.C,R17*%
X100460000Y-60632500D03*
X100460000Y-53012500D03*
%TD*%
D16*
%TO.C,U8*%
X52102500Y-45477500D03*
X52102500Y-46747500D03*
X52102500Y-48017500D03*
X52102500Y-49287500D03*
X59277500Y-49287500D03*
X59277500Y-48017500D03*
X59277500Y-46747500D03*
X59277500Y-45477500D03*
%TD*%
D17*
%TO.C,C14*%
X88460000Y-57382500D03*
X88460000Y-59882500D03*
%TD*%
D18*
%TO.C,C25*%
X39190000Y-43157500D03*
X39190000Y-41607500D03*
%TD*%
D10*
%TO.C,R18*%
X103460000Y-53322500D03*
X103460000Y-60942500D03*
%TD*%
D19*
%TO.C,REF\u002A\u002A*%
X129200000Y-24100000D03*
%TD*%
D10*
%TO.C,R14*%
X104790000Y-35822500D03*
X97170000Y-35822500D03*
%TD*%
%TO.C,R1*%
X112993500Y-87282700D03*
X105373500Y-87282700D03*
%TD*%
D20*
%TO.C,C19*%
X109067600Y-57941500D03*
D13*
X107067600Y-57941500D03*
%TD*%
D21*
%TO.C,C16*%
X83190000Y-68605100D03*
D13*
X83190000Y-66605100D03*
%TD*%
D19*
%TO.C,REF\u002A\u002A*%
X30700000Y-24100000D03*
%TD*%
D22*
%TO.C,D5*%
X105190000Y-39362500D03*
D23*
X105190000Y-41902500D03*
%TD*%
D10*
%TO.C,R3*%
X110683500Y-76972700D03*
X110683500Y-84592700D03*
%TD*%
%TO.C,R7*%
X124825000Y-45006500D03*
X124825000Y-52626500D03*
%TD*%
D12*
%TO.C,C10*%
X117825000Y-72343900D03*
D13*
X117825000Y-74343900D03*
%TD*%
D24*
%TO.C,U7*%
X55770000Y-52232500D03*
X54500000Y-52232500D03*
X53230000Y-52232500D03*
X51960000Y-52232500D03*
X50690000Y-52232500D03*
X49420000Y-52232500D03*
X48150000Y-52232500D03*
X46880000Y-52232500D03*
X45610000Y-52232500D03*
X45610000Y-61532500D03*
X46880000Y-61532500D03*
X48150000Y-61532500D03*
X49420000Y-61532500D03*
X50690000Y-61532500D03*
X51960000Y-61532500D03*
X53230000Y-61532500D03*
X54500000Y-61532500D03*
X55770000Y-61532500D03*
%TD*%
D25*
%TO.C,C26*%
X55190000Y-40607500D03*
X55190000Y-42157500D03*
%TD*%
D10*
%TO.C,R22*%
X109595000Y-61631500D03*
X109595000Y-69251500D03*
%TD*%
%TO.C,R16*%
X86190000Y-36632500D03*
X86190000Y-44252500D03*
%TD*%
%TO.C,R25*%
X54690000Y-72192500D03*
X54690000Y-64572500D03*
%TD*%
%TO.C,R24*%
X81960000Y-54852500D03*
X81960000Y-47232500D03*
%TD*%
D17*
%TO.C,C3*%
X107683500Y-83894000D03*
X105183500Y-83894000D03*
%TD*%
D10*
%TO.C,R12*%
X125325000Y-72506500D03*
X125325000Y-80126500D03*
%TD*%
D12*
%TO.C,C15*%
X93960000Y-58159900D03*
D13*
X93960000Y-60159900D03*
%TD*%
D20*
%TO.C,C1*%
X91162600Y-84632500D03*
D13*
X89162600Y-84632500D03*
%TD*%
D14*
%TO.C,J2*%
X130700000Y-51640000D03*
D15*
X130700000Y-49100000D03*
X130700000Y-46560000D03*
%TD*%
D26*
%TO.C,U4*%
X121135000Y-61511500D03*
D17*
X118595000Y-61511500D03*
X116055000Y-61511500D03*
X113515000Y-61511500D03*
X113515000Y-69131500D03*
X116055000Y-69131500D03*
X118595000Y-69131500D03*
X121135000Y-69131500D03*
%TD*%
D27*
%TO.C,A1*%
X63080000Y-36582500D03*
D28*
X63080000Y-39122500D03*
X63080000Y-41662500D03*
X63080000Y-44202500D03*
X63080000Y-46742500D03*
X63080000Y-49282500D03*
X63080000Y-51822500D03*
X63080000Y-54362500D03*
X63080000Y-56902500D03*
X63080000Y-59442500D03*
X63080000Y-61982500D03*
X63080000Y-64522500D03*
X63080000Y-67062500D03*
X63080000Y-69602500D03*
X63080000Y-72142500D03*
X78320000Y-72142500D03*
X78320000Y-69602500D03*
X78320000Y-67062500D03*
X78320000Y-64522500D03*
X78320000Y-61982500D03*
X78320000Y-59442500D03*
X78320000Y-56902500D03*
X78320000Y-54362500D03*
X78320000Y-51822500D03*
X78320000Y-49282500D03*
X78320000Y-46742500D03*
X78320000Y-44202500D03*
X78320000Y-41662500D03*
X78320000Y-39122500D03*
X78320000Y-36582500D03*
%TD*%
D14*
%TO.C,J4*%
X102240000Y-27600000D03*
D15*
X99700000Y-27600000D03*
X97160000Y-27600000D03*
%TD*%
D10*
%TO.C,R4*%
X106500000Y-76632500D03*
X98880000Y-76632500D03*
%TD*%
D19*
%TO.C,REF\u002A\u002A*%
X129200000Y-90600000D03*
%TD*%
D29*
%TO.C,D4*%
X117825000Y-50506500D03*
D30*
X117825000Y-58126500D03*
%TD*%
D20*
%TO.C,C18*%
X109067600Y-72941500D03*
D13*
X107067600Y-72941500D03*
%TD*%
D22*
%TO.C,D1*%
X115190000Y-80132500D03*
D23*
X115190000Y-82672500D03*
%TD*%
D31*
%TO.C,X1*%
X39440000Y-47382500D03*
X47940000Y-47382500D03*
%TD*%
D17*
%TO.C,C4*%
X86433500Y-73132500D03*
X83933500Y-73132500D03*
%TD*%
D32*
%TO.C,U3*%
X124025000Y-57266500D03*
X124025000Y-55366500D03*
X121625000Y-56316500D03*
%TD*%
D33*
%TO.C,U2*%
X96495000Y-80442500D03*
D17*
X96495000Y-77902500D03*
X96495000Y-75362500D03*
X96495000Y-72822500D03*
X88875000Y-72822500D03*
X88875000Y-75362500D03*
X88875000Y-77902500D03*
X88875000Y-80442500D03*
%TD*%
D11*
%TO.C,*%
X30500000Y-83500000D03*
%TD*%
D21*
%TO.C,C7*%
X129825000Y-57289099D03*
D13*
X129825000Y-55289099D03*
%TD*%
D32*
%TO.C,U5*%
X95390000Y-43582500D03*
X95390000Y-41682500D03*
X92990000Y-42632500D03*
%TD*%
D17*
%TO.C,C9*%
X113325000Y-72066500D03*
X113325000Y-74566500D03*
%TD*%
D11*
%TO.C,*%
X30500000Y-29500000D03*
%TD*%
D17*
%TO.C,C8*%
X121325000Y-50066500D03*
X121325000Y-52566500D03*
%TD*%
D26*
%TO.C,U6*%
X96500000Y-46827500D03*
D17*
X93960000Y-46827500D03*
X91420000Y-46827500D03*
X88880000Y-46827500D03*
X88880000Y-54447500D03*
X91420000Y-54447500D03*
X93960000Y-54447500D03*
X96500000Y-54447500D03*
%TD*%
D20*
%TO.C,C20*%
X83662600Y-42632500D03*
D13*
X81662600Y-42632500D03*
%TD*%
D20*
%TO.C,C5*%
X86156100Y-77132500D03*
D13*
X84156100Y-77132500D03*
%TD*%
D34*
%TO.C,J3*%
X50540000Y-88157500D03*
X71370000Y-88157500D03*
D35*
X56505000Y-85927500D03*
D36*
X60955000Y-85927500D03*
X65395000Y-85927500D03*
X65395000Y-90377500D03*
X60955000Y-90377500D03*
X56505000Y-90377500D03*
%TD*%
D10*
%TO.C,R15*%
X86380000Y-33132500D03*
X94000000Y-33132500D03*
%TD*%
D18*
%TO.C,C24*%
X47690000Y-43157500D03*
X47690000Y-41607500D03*
%TD*%
D22*
%TO.C,D3*%
X125055000Y-40816500D03*
D23*
X127595000Y-40816500D03*
%TD*%
D25*
%TO.C,C23*%
X51690000Y-41607500D03*
X51690000Y-43157500D03*
%TD*%
D10*
%TO.C,R6*%
X86000000Y-86132500D03*
X78380000Y-86132500D03*
%TD*%
D12*
%TO.C,C6*%
X125825000Y-59843900D03*
D13*
X125825000Y-61843900D03*
%TD*%
D37*
%TO.C,D2*%
X107000000Y-79632500D03*
D30*
X99380000Y-79632500D03*
%TD*%
D19*
%TO.C,REF\u002A\u002A*%
X30700000Y-90600000D03*
%TD*%
D10*
%TO.C,R5*%
X78380000Y-83132500D03*
X86000000Y-83132500D03*
%TD*%
D29*
%TO.C,D6*%
X89690000Y-36322500D03*
D30*
X89690000Y-43942500D03*
%TD*%
D10*
%TO.C,R11*%
X122325000Y-80126500D03*
X122325000Y-72506500D03*
%TD*%
%TO.C,R19*%
X87380000Y-69132500D03*
X95000000Y-69132500D03*
%TD*%
%TO.C,R23*%
X85460000Y-46732500D03*
X85460000Y-54352500D03*
%TD*%
D21*
%TO.C,C12*%
X99190000Y-43105100D03*
D13*
X99190000Y-41105100D03*
%TD*%
D10*
%TO.C,R2*%
X112993500Y-90282700D03*
X105373500Y-90282700D03*
%TD*%
D38*
%TO.C,C22*%
X58190000Y-42097500D03*
X58190000Y-40667500D03*
%TD*%
D10*
%TO.C,R20*%
X95000000Y-66132500D03*
X87380000Y-66132500D03*
%TD*%
D39*
%TO.C,U1*%
X100233500Y-85982700D03*
X102133500Y-85982700D03*
X101183500Y-83582700D03*
%TD*%
D17*
%TO.C,C13*%
X93690000Y-36382500D03*
X93690000Y-38882500D03*
%TD*%
D40*
%TO.C,C21*%
X82987401Y-58352500D03*
D13*
X84987401Y-58352500D03*
%TD*%
D12*
%TO.C,C17*%
X99690000Y-66132500D03*
D13*
X99690000Y-68132500D03*
%TD*%
D40*
%TO.C,C2*%
X94717401Y-85132500D03*
D13*
X96717401Y-85132500D03*
%TD*%
M02*
