%TF.GenerationSoftware,KiCad,Pcbnew,9.0.4*%
%TF.CreationDate,2025-11-23T23:56:54-07:00*%
%TF.ProjectId,New Tachometer,4e657720-5461-4636-986f-6d657465722e,rev?*%
%TF.SameCoordinates,Original*%
%TF.FileFunction,Copper,L1,Top*%
%TF.FilePolarity,Positive*%
%FSLAX46Y46*%
G04 Gerber Fmt 4.6, Leading zero omitted, Abs format (unit mm)*
G04 Created by KiCad (PCBNEW 9.0.4) date 2025-11-23 23:56:54*
%MOMM*%
%LPD*%
G01*
G04 APERTURE LIST*
G04 Aperture macros list*
%AMRoundRect*
0 Rectangle with rounded corners*
0 $1 Rounding radius*
0 $2 $3 $4 $5 $6 $7 $8 $9 X,Y pos of 4 corners*
0 Add a 4 corners polygon primitive as box body*
4,1,4,$2,$3,$4,$5,$6,$7,$8,$9,$2,$3,0*
0 Add four circle primitives for the rounded corners*
1,1,$1+$1,$2,$3*
1,1,$1+$1,$4,$5*
1,1,$1+$1,$6,$7*
1,1,$1+$1,$8,$9*
0 Add four rect primitives between the rounded corners*
20,1,$1+$1,$2,$3,$4,$5,0*
20,1,$1+$1,$4,$5,$6,$7,0*
20,1,$1+$1,$6,$7,$8,$9,0*
20,1,$1+$1,$8,$9,$2,$3,0*%
G04 Aperture macros list end*
%TA.AperFunction,ComponentPad*%
%ADD10C,1.400000*%
%TD*%
%TA.AperFunction,SMDPad,CuDef*%
%ADD11RoundRect,0.250000X-2.000000X-0.750000X2.000000X-0.750000X2.000000X0.750000X-2.000000X0.750000X0*%
%TD*%
%TA.AperFunction,SMDPad,CuDef*%
%ADD12RoundRect,0.150000X0.150000X-0.875000X0.150000X0.875000X-0.150000X0.875000X-0.150000X-0.875000X0*%
%TD*%
%TA.AperFunction,ComponentPad*%
%ADD13R,1.800000X1.800000*%
%TD*%
%TA.AperFunction,ComponentPad*%
%ADD14C,1.800000*%
%TD*%
%TA.AperFunction,ComponentPad*%
%ADD15RoundRect,0.250000X0.550000X-0.550000X0.550000X0.550000X-0.550000X0.550000X-0.550000X-0.550000X0*%
%TD*%
%TA.AperFunction,ComponentPad*%
%ADD16C,1.600000*%
%TD*%
%TA.AperFunction,ComponentPad*%
%ADD17RoundRect,0.250000X0.550000X0.550000X-0.550000X0.550000X-0.550000X-0.550000X0.550000X-0.550000X0*%
%TD*%
%TA.AperFunction,ComponentPad*%
%ADD18RoundRect,0.250000X-0.650000X0.650000X-0.650000X-0.650000X0.650000X-0.650000X0.650000X0.650000X0*%
%TD*%
%TA.AperFunction,SMDPad,CuDef*%
%ADD19RoundRect,0.225000X0.250000X-0.225000X0.250000X0.225000X-0.250000X0.225000X-0.250000X-0.225000X0*%
%TD*%
%TA.AperFunction,SMDPad,CuDef*%
%ADD20RoundRect,0.162500X-0.650000X-0.162500X0.650000X-0.162500X0.650000X0.162500X-0.650000X0.162500X0*%
%TD*%
%TA.AperFunction,ComponentPad*%
%ADD21R,2.895000X2.895000*%
%TD*%
%TA.AperFunction,ComponentPad*%
%ADD22C,2.895000*%
%TD*%
%TA.AperFunction,SMDPad,CuDef*%
%ADD23RoundRect,0.250000X-0.315000X0.295000X-0.315000X-0.295000X0.315000X-0.295000X0.315000X0.295000X0*%
%TD*%
%TA.AperFunction,ComponentPad*%
%ADD24R,1.500000X1.050000*%
%TD*%
%TA.AperFunction,ComponentPad*%
%ADD25O,1.500000X1.050000*%
%TD*%
%TA.AperFunction,ViaPad*%
%ADD26C,0.600000*%
%TD*%
%TA.AperFunction,Conductor*%
%ADD27C,0.200000*%
%TD*%
%TA.AperFunction,Conductor*%
%ADD28C,1.000000*%
%TD*%
G04 APERTURE END LIST*
D10*
%TO.P,R10,1*%
%TO.N,555 input*%
X113810000Y-124750000D03*
%TO.P,R10,2*%
%TO.N,GND*%
X106190000Y-124750000D03*
%TD*%
D11*
%TO.P,X1,1,1*%
%TO.N,Net-(U3-OSC1)*%
X118750000Y-95250000D03*
%TO.P,X1,2,2*%
%TO.N,Net-(U3-OSC2)*%
X127250000Y-95250000D03*
%TD*%
D10*
%TO.P,R2,1*%
%TO.N,Net-(D1-K)*%
X118130000Y-107500000D03*
%TO.P,R2,2*%
%TO.N,Net-(Q1-B)*%
X125750000Y-107500000D03*
%TD*%
%TO.P,R7,1*%
%TO.N,Net-(U1-DIS)*%
X106190000Y-122500000D03*
%TO.P,R7,2*%
%TO.N,Net-(R4-Pad1)*%
X113810000Y-122500000D03*
%TD*%
D12*
%TO.P,U3,1,TXCAN*%
%TO.N,Net-(U3-TXCAN)*%
X103170000Y-102900000D03*
%TO.P,U3,2,RXCAN*%
%TO.N,Net-(U3-RXCAN)*%
X104440000Y-102900000D03*
%TO.P,U3,3,CLKOUT/SOF*%
%TO.N,unconnected-(U3-CLKOUT{slash}SOF-Pad3)*%
X105710000Y-102900000D03*
%TO.P,U3,4,~{TX0RTS}*%
%TO.N,unconnected-(U3-~{TX0RTS}-Pad4)*%
X106980000Y-102900000D03*
%TO.P,U3,5,~{TX1RTS}*%
%TO.N,unconnected-(U3-~{TX1RTS}-Pad5)*%
X108250000Y-102900000D03*
%TO.P,U3,6,~{TX2RTS}*%
%TO.N,unconnected-(U3-~{TX2RTS}-Pad6)*%
X109520000Y-102900000D03*
%TO.P,U3,7,OSC2*%
%TO.N,Net-(U3-OSC2)*%
X110790000Y-102900000D03*
%TO.P,U3,8,OSC1*%
%TO.N,Net-(U3-OSC1)*%
X112060000Y-102900000D03*
%TO.P,U3,9,VSS*%
%TO.N,GND*%
X113330000Y-102900000D03*
%TO.P,U3,10,~{RX1BF}*%
%TO.N,unconnected-(U3-~{RX1BF}-Pad10)*%
X113330000Y-93600000D03*
%TO.P,U3,11,~{RX0BF}*%
%TO.N,unconnected-(U3-~{RX0BF}-Pad11)*%
X112060000Y-93600000D03*
%TO.P,U3,12,~{INT}*%
%TO.N,unconnected-(U3-~{INT}-Pad12)*%
X110790000Y-93600000D03*
%TO.P,U3,13,SCK*%
%TO.N,SCK*%
X109520000Y-93600000D03*
%TO.P,U3,14,SI*%
%TO.N,SI*%
X108250000Y-93600000D03*
%TO.P,U3,15,SO*%
%TO.N,SO*%
X106980000Y-93600000D03*
%TO.P,U3,16,~{CS}*%
%TO.N,CS*%
X105710000Y-93600000D03*
%TO.P,U3,17,~{RESET}*%
%TO.N,Net-(U3-~{RESET})*%
X104440000Y-93600000D03*
%TO.P,U3,18,VDD*%
%TO.N,+5V*%
X103170000Y-93600000D03*
%TD*%
D10*
%TO.P,R9,1*%
%TO.N,+5v*%
X106190000Y-129250000D03*
%TO.P,R9,2*%
%TO.N,Net-(U2-+)*%
X113810000Y-129250000D03*
%TD*%
D13*
%TO.P,UNIT_1,1,D1/TX*%
%TO.N,unconnected-(UNIT_1-D1{slash}TX-Pad1)*%
X98767500Y-89120000D03*
D14*
%TO.P,UNIT_1,2,D0/RX*%
%TO.N,unconnected-(UNIT_1-D0{slash}RX-Pad2)*%
X101307500Y-89120000D03*
%TO.P,UNIT_1,3,RESET*%
%TO.N,unconnected-(UNIT_1-RESET-Pad3)*%
X103847500Y-89120000D03*
%TO.P,UNIT_1,4,COM/GND*%
%TO.N,GND*%
X106387500Y-89120000D03*
%TO.P,UNIT_1,5,D2*%
%TO.N,unconnected-(UNIT_1-D2-Pad5)*%
X108927500Y-89120000D03*
%TO.P,UNIT_1,6,D3*%
%TO.N,unconnected-(UNIT_1-D3-Pad6)*%
X111467500Y-89120000D03*
%TO.P,UNIT_1,7,D4*%
%TO.N,unconnected-(UNIT_1-D4-Pad7)*%
X114007500Y-89120000D03*
%TO.P,UNIT_1,8,D5*%
%TO.N,unconnected-(UNIT_1-D5-Pad8)*%
X116547500Y-89120000D03*
%TO.P,UNIT_1,9,D6*%
%TO.N,unconnected-(UNIT_1-D6-Pad9)*%
X119087500Y-89120000D03*
%TO.P,UNIT_1,10,D7*%
%TO.N,unconnected-(UNIT_1-D7-Pad10)*%
X121627500Y-89120000D03*
%TO.P,UNIT_1,11,D8*%
%TO.N,unconnected-(UNIT_1-D8-Pad11)*%
X124167500Y-89120000D03*
%TO.P,UNIT_1,12,D9*%
%TO.N,INT*%
X126707500Y-89120000D03*
%TO.P,UNIT_1,13,D10*%
%TO.N,CS*%
X129247500Y-89120000D03*
%TO.P,UNIT_1,14,D11/MOSI*%
%TO.N,SI*%
X131787500Y-89120000D03*
%TO.P,UNIT_1,15,D12/MISO*%
%TO.N,SO*%
X134327500Y-89120000D03*
%TO.P,UNIT_1,16,D13/SCK*%
%TO.N,SCK*%
X134327500Y-73880000D03*
%TO.P,UNIT_1,17,3V3*%
%TO.N,+3V*%
X131787500Y-73880000D03*
%TO.P,UNIT_1,18,AREF*%
%TO.N,unconnected-(UNIT_1-AREF-Pad18)*%
X129247500Y-73880000D03*
%TO.P,UNIT_1,19,A0*%
%TO.N,arduino input*%
X126707500Y-73880000D03*
%TO.P,UNIT_1,20,A1*%
%TO.N,unconnected-(UNIT_1-A1-Pad20)*%
X124167500Y-73880000D03*
%TO.P,UNIT_1,21,A2*%
%TO.N,unconnected-(UNIT_1-A2-Pad21)*%
X121627500Y-73880000D03*
%TO.P,UNIT_1,22,A3*%
%TO.N,unconnected-(UNIT_1-A3-Pad22)*%
X119087500Y-73880000D03*
%TO.P,UNIT_1,23,A4*%
%TO.N,SDA*%
X116547500Y-73880000D03*
%TO.P,UNIT_1,24,A5*%
%TO.N,SCL*%
X114007500Y-73880000D03*
%TO.P,UNIT_1,25,A6*%
%TO.N,unconnected-(UNIT_1-A6-Pad25)*%
X111467500Y-73880000D03*
%TO.P,UNIT_1,26,A7*%
%TO.N,unconnected-(UNIT_1-A7-Pad26)*%
X108927500Y-73880000D03*
%TO.P,UNIT_1,27,+5V*%
%TO.N,+5V*%
X106387500Y-73880000D03*
%TO.P,UNIT_1,28,RESET*%
%TO.N,unconnected-(UNIT_1-RESET-Pad28)*%
X103847500Y-73880000D03*
%TO.P,UNIT_1,29,COM/GND*%
%TO.N,GND*%
X101307500Y-73880000D03*
%TO.P,UNIT_1,30,VIN*%
%TO.N,unconnected-(UNIT_1-VIN-Pad30)*%
X98767500Y-73880000D03*
%TD*%
D15*
%TO.P,C3,1*%
%TO.N,Net-(U1-DIS)*%
X102250000Y-125000000D03*
D16*
%TO.P,C3,2*%
%TO.N,GND*%
X102250000Y-122500000D03*
%TD*%
D17*
%TO.P,U1,1,GND*%
%TO.N,GND*%
X113805000Y-114120000D03*
D16*
%TO.P,U1,2,TR*%
%TO.N,555 input*%
X113805000Y-111580000D03*
%TO.P,U1,3,Q*%
%TO.N,555 output*%
X113805000Y-109040000D03*
%TO.P,U1,4,R*%
%TO.N,+5V*%
X113805000Y-106500000D03*
%TO.P,U1,5,CV*%
%TO.N,Net-(U1-CV)*%
X106185000Y-106500000D03*
%TO.P,U1,6,THR*%
%TO.N,Net-(U1-DIS)*%
X106185000Y-109040000D03*
%TO.P,U1,7,DIS*%
X106185000Y-111580000D03*
%TO.P,U1,8,VCC*%
%TO.N,+5V*%
X106185000Y-114120000D03*
%TD*%
D18*
%TO.P,D1,1,K*%
%TO.N,Net-(D1-K)*%
X119000000Y-110190000D03*
D14*
%TO.P,D1,2,A*%
%TO.N,GND*%
X119000000Y-117810000D03*
%TD*%
D10*
%TO.P,R11,1*%
%TO.N,Net-(C1-Pad1)*%
X100000000Y-112294887D03*
%TO.P,R11,2*%
%TO.N,arduino input*%
X100000000Y-119914887D03*
%TD*%
%TO.P,R8,1*%
%TO.N,GND*%
X106190000Y-127000000D03*
%TO.P,R8,2*%
%TO.N,Net-(U2-+)*%
X113810000Y-127000000D03*
%TD*%
D19*
%TO.P,C15,1,1*%
%TO.N,GND*%
X98750000Y-101800000D03*
%TO.P,C15,2,2*%
%TO.N,+5V*%
X98750000Y-100250000D03*
%TD*%
D18*
%TO.P,D2,1,K*%
%TO.N,Net-(D1-K)*%
X122500000Y-110190000D03*
D14*
%TO.P,D2,2,A*%
%TO.N,GND*%
X122500000Y-117810000D03*
%TD*%
D10*
%TO.P,R3,1*%
%TO.N,+5v*%
X118130000Y-105000000D03*
%TO.P,R3,2*%
%TO.N,Comparator input*%
X125750000Y-105000000D03*
%TD*%
D19*
%TO.P,C13,1,1*%
%TO.N,Net-(U3-OSC2)*%
X130750000Y-97525000D03*
%TO.P,C13,2,2*%
%TO.N,GND*%
X130750000Y-95975000D03*
%TD*%
D20*
%TO.P,U4,1,TXD*%
%TO.N,Net-(U3-TXCAN)*%
X133162500Y-93345000D03*
%TO.P,U4,2,GND*%
%TO.N,GND*%
X133162500Y-94615000D03*
%TO.P,U4,3,VCC*%
%TO.N,+5V*%
X133162500Y-95885000D03*
%TO.P,U4,4,RXD*%
%TO.N,Net-(U3-RXCAN)*%
X133162500Y-97155000D03*
%TO.P,U4,5,SPLIT*%
%TO.N,unconnected-(U4-SPLIT-Pad5)*%
X140337500Y-97155000D03*
%TO.P,U4,6,CANL*%
%TO.N,Low*%
X140337500Y-95885000D03*
%TO.P,U4,7,CANH*%
%TO.N,High*%
X140337500Y-94615000D03*
%TO.P,U4,8,STB*%
%TO.N,GND*%
X140337500Y-93345000D03*
%TD*%
D15*
%TO.P,U2,1,GND*%
%TO.N,GND*%
X117690000Y-127805000D03*
D16*
%TO.P,U2,2,+*%
%TO.N,Net-(U2-+)*%
X120230000Y-127805000D03*
%TO.P,U2,3,-*%
%TO.N,Comparator input*%
X122770000Y-127805000D03*
%TO.P,U2,4,V-*%
%TO.N,GND*%
X125310000Y-127805000D03*
%TO.P,U2,5,BAL*%
%TO.N,unconnected-(U2-BAL-Pad5)*%
X125310000Y-120185000D03*
%TO.P,U2,6,STRB*%
%TO.N,unconnected-(U2-STRB-Pad6)*%
X122770000Y-120185000D03*
%TO.P,U2,7*%
%TO.N,555 input*%
X120230000Y-120185000D03*
%TO.P,U2,8,V+*%
%TO.N,+5v*%
X117690000Y-120185000D03*
%TD*%
D21*
%TO.P,J1,1,1*%
%TO.N,Possitive*%
X129270000Y-116615000D03*
D22*
%TO.P,J1,2,2*%
%TO.N,GND*%
X129270000Y-112165000D03*
%TO.P,J1,3,3*%
%TO.N,Low*%
X129270000Y-107725000D03*
%TO.P,J1,4,4*%
%TO.N,High*%
X133720000Y-107725000D03*
%TO.P,J1,5,5*%
%TO.N,Low*%
X133720000Y-112165000D03*
%TO.P,J1,6,6*%
%TO.N,High*%
X133720000Y-116615000D03*
%TD*%
D19*
%TO.P,C14,1,1*%
%TO.N,Net-(U3-OSC1)*%
X115250000Y-97775000D03*
%TO.P,C14,2,2*%
%TO.N,GND*%
X115250000Y-96225000D03*
%TD*%
D10*
%TO.P,R1,1*%
%TO.N,Possitive*%
X125500000Y-117620000D03*
%TO.P,R1,2*%
%TO.N,Net-(D1-K)*%
X125500000Y-110000000D03*
%TD*%
%TO.P,R4,1*%
%TO.N,Net-(R4-Pad1)*%
X113810000Y-120250000D03*
%TO.P,R4,2*%
%TO.N,Net-(R4-Pad2)*%
X106190000Y-120250000D03*
%TD*%
%TO.P,R6,1*%
%TO.N,Net-(R4-Pad2)*%
X106190000Y-118000000D03*
%TO.P,R6,2*%
%TO.N,+5V*%
X113810000Y-118000000D03*
%TD*%
%TO.P,R13,1*%
%TO.N,+5V*%
X101000000Y-102310000D03*
%TO.P,R13,2*%
%TO.N,Net-(U3-~{RESET})*%
X101000000Y-94690000D03*
%TD*%
D23*
%TO.P,C11,1,1*%
%TO.N,+5V*%
X98750000Y-93810000D03*
%TO.P,C11,2,2*%
%TO.N,GND*%
X98750000Y-95240000D03*
%TD*%
D19*
%TO.P,C12,1,1*%
%TO.N,GND*%
X98750000Y-98550000D03*
%TO.P,C12,2,2*%
%TO.N,+5V*%
X98750000Y-97000000D03*
%TD*%
D10*
%TO.P,R5,1*%
%TO.N,555 output*%
X102500000Y-119854887D03*
%TO.P,R5,2*%
%TO.N,Net-(C1-Pad1)*%
X102500000Y-112234887D03*
%TD*%
D15*
%TO.P,C2,1*%
%TO.N,arduino input*%
X102250000Y-130705113D03*
D16*
%TO.P,C2,2*%
%TO.N,GND*%
X102250000Y-128205113D03*
%TD*%
%TO.P,C4,1*%
%TO.N,Net-(U1-CV)*%
X115500000Y-101250000D03*
%TO.P,C4,2*%
%TO.N,GND*%
X120500000Y-101250000D03*
%TD*%
D15*
%TO.P,C1,1*%
%TO.N,Net-(C1-Pad1)*%
X100750000Y-109500000D03*
D16*
%TO.P,C1,2*%
%TO.N,GND*%
X100750000Y-107000000D03*
%TD*%
D24*
%TO.P,Q1,1,C*%
%TO.N,Comparator input*%
X124700000Y-102290000D03*
D25*
%TO.P,Q1,2,B*%
%TO.N,Net-(Q1-B)*%
X124700000Y-101020000D03*
%TO.P,Q1,3,E*%
%TO.N,GND*%
X124700000Y-99750000D03*
%TD*%
D26*
%TO.N,+5V*%
X121750000Y-98750000D03*
%TO.N,GND*%
X142000000Y-92750000D03*
X131770838Y-94214040D03*
X112950735Y-104700735D03*
%TO.N,Low*%
X142000000Y-96000000D03*
%TO.N,Net-(U3-RXCAN)*%
X104500000Y-104500000D03*
%TO.N,Net-(U3-OSC2)*%
X129000000Y-93750000D03*
%TO.N,Net-(U3-RXCAN)*%
X131750000Y-97000000D03*
%TO.N,Net-(U3-TXCAN)*%
X102320000Y-103750000D03*
%TO.N,GND*%
X99250000Y-103165628D03*
%TO.N,High*%
X143250000Y-94750000D03*
%TO.N,+5V*%
X115500000Y-105000000D03*
X121750000Y-103500000D03*
%TO.N,Net-(U3-~{RESET})*%
X104440000Y-92060000D03*
%TO.N,GND*%
X129549265Y-96700735D03*
X115799265Y-95299265D03*
%TO.N,Net-(U3-OSC1)*%
X116750000Y-98500000D03*
X112000000Y-104500000D03*
%TO.N,Net-(U3-OSC2)*%
X110750000Y-104500000D03*
%TO.N,GND*%
X115450735Y-93200735D03*
%TO.N,SI*%
X130750000Y-92001000D03*
%TO.N,Net-(U3-TXCAN)*%
X131000000Y-94000000D03*
%TO.N,+5V*%
X130125707Y-94874293D03*
%TD*%
D27*
%TO.N,+5V*%
X115000000Y-106500000D02*
X113805000Y-106500000D01*
X115250000Y-106750000D02*
X115000000Y-106500000D01*
X115250000Y-115750000D02*
X115250000Y-106750000D01*
X114750000Y-116250000D02*
X115250000Y-115750000D01*
X113500000Y-116250000D02*
X114750000Y-116250000D01*
D28*
X106185000Y-115435000D02*
X106185000Y-114120000D01*
X107000000Y-116250000D02*
X106185000Y-115435000D01*
X113500000Y-116250000D02*
X107000000Y-116250000D01*
X114306000Y-117504000D02*
X113810000Y-118000000D01*
X114306000Y-116556000D02*
X114306000Y-117504000D01*
X113000000Y-116250000D02*
X114000000Y-116250000D01*
X113500000Y-116250000D02*
X113000000Y-116250000D01*
X114000000Y-116250000D02*
X114306000Y-116556000D01*
D27*
%TO.N,GND*%
X99165628Y-103165628D02*
X99250000Y-103165628D01*
X141405000Y-93345000D02*
X142000000Y-92750000D01*
X115250000Y-96225000D02*
X115250000Y-95750000D01*
%TO.N,+5V*%
X115305000Y-105000000D02*
X113805000Y-106500000D01*
%TO.N,Net-(U3-TXCAN)*%
X131000000Y-94000000D02*
X131067100Y-94000000D01*
%TO.N,Net-(U3-RXCAN)*%
X133007500Y-97000000D02*
X133162500Y-97155000D01*
X131750000Y-97000000D02*
X133007500Y-97000000D01*
%TO.N,Net-(U3-OSC1)*%
X116750000Y-97250000D02*
X116875000Y-97125000D01*
%TO.N,Net-(U3-~{RESET})*%
X104440000Y-93600000D02*
X104440000Y-92060000D01*
%TO.N,Net-(U3-OSC1)*%
X116225000Y-97775000D02*
X116875000Y-97125000D01*
%TO.N,Net-(U3-TXCAN)*%
X103170000Y-102900000D02*
X102320000Y-103750000D01*
X131067100Y-94000000D02*
X131722100Y-93345000D01*
D28*
%TO.N,+5V*%
X101000000Y-104165628D02*
X101834372Y-105000000D01*
X104250000Y-112185000D02*
X106185000Y-114120000D01*
X98250000Y-100250000D02*
X98750000Y-100250000D01*
X106387500Y-73880000D02*
X106387500Y-72387500D01*
X101035000Y-91750000D02*
X99000000Y-93785000D01*
X103170000Y-93600000D02*
X103170000Y-92420000D01*
X97250000Y-97750000D02*
X97250000Y-94500000D01*
X97250000Y-97750000D02*
X98000000Y-97000000D01*
D27*
%TO.N,Net-(U3-OSC2)*%
X129525000Y-97525000D02*
X130750000Y-97525000D01*
D28*
%TO.N,+5V*%
X93750000Y-72250000D02*
X93750000Y-91000000D01*
X106387500Y-72387500D02*
X105750000Y-71750000D01*
X103170000Y-92420000D02*
X102500000Y-91750000D01*
D27*
%TO.N,SI*%
X108250000Y-93600000D02*
X108250000Y-92052000D01*
%TO.N,SO*%
X133849000Y-91401000D02*
X134327500Y-90922500D01*
D28*
%TO.N,+5V*%
X101834372Y-105000000D02*
X102750000Y-105000000D01*
D27*
%TO.N,Net-(U3-~{RESET})*%
X104500000Y-92000000D02*
X104440000Y-92060000D01*
%TO.N,SI*%
X108500000Y-91802000D02*
X130000000Y-91802000D01*
%TO.N,SO*%
X107500000Y-91401000D02*
X133849000Y-91401000D01*
%TO.N,Net-(U3-OSC2)*%
X127250000Y-95250000D02*
X129525000Y-97525000D01*
%TO.N,SCK*%
X137948000Y-91802000D02*
X140750000Y-89000000D01*
X109520000Y-93600000D02*
X109520000Y-92433000D01*
%TO.N,Net-(U3-OSC1)*%
X116750000Y-98500000D02*
X116750000Y-97250000D01*
%TO.N,SI*%
X130551000Y-91802000D02*
X130750000Y-92001000D01*
%TO.N,High*%
X140337500Y-94615000D02*
X143115000Y-94615000D01*
%TO.N,SCK*%
X109520000Y-92433000D02*
X109750000Y-92203000D01*
X109750000Y-92203000D02*
X130000000Y-92203000D01*
%TO.N,GND*%
X131770838Y-94214040D02*
X132761540Y-94214040D01*
%TO.N,CS*%
X106500000Y-91000000D02*
X129000000Y-91000000D01*
%TO.N,SCK*%
X140750000Y-89000000D02*
X140750000Y-76250000D01*
X131500000Y-93000000D02*
X132698000Y-91802000D01*
X130797000Y-93000000D02*
X131500000Y-93000000D01*
X138380000Y-73880000D02*
X134327500Y-73880000D01*
X140750000Y-76250000D02*
X138380000Y-73880000D01*
D28*
%TO.N,+5V*%
X97940000Y-93810000D02*
X98750000Y-93810000D01*
D27*
%TO.N,Net-(U3-OSC1)*%
X116875000Y-97125000D02*
X118750000Y-95250000D01*
D28*
%TO.N,+5v*%
X106190000Y-129250000D02*
X106190000Y-130690000D01*
X117000000Y-105000000D02*
X116506999Y-105493001D01*
%TO.N,+5V*%
X97250000Y-101250000D02*
X97250000Y-97750000D01*
X101000000Y-102310000D02*
X101000000Y-104165628D01*
%TO.N,+5v*%
X106190000Y-130690000D02*
X106500000Y-131000000D01*
X115500000Y-130000000D02*
X115500000Y-120750000D01*
X116506999Y-119743001D02*
X116065000Y-120185000D01*
X116065000Y-120185000D02*
X117690000Y-120185000D01*
D27*
%TO.N,Net-(R4-Pad2)*%
X106190000Y-120250000D02*
X106190000Y-117750000D01*
%TO.N,SO*%
X106980000Y-93600000D02*
X106980000Y-91921000D01*
D28*
%TO.N,+5V*%
X104250000Y-106500000D02*
X104250000Y-112185000D01*
D27*
%TO.N,Comparator input*%
X125560000Y-105000000D02*
X125560000Y-103150000D01*
%TO.N,Net-(R4-Pad1)*%
X113810000Y-120250000D02*
X113810000Y-122500000D01*
%TO.N,Comparator input*%
X125560000Y-103150000D02*
X124700000Y-102290000D01*
%TO.N,Possitive*%
X129270000Y-116615000D02*
X129270000Y-116115000D01*
%TO.N,Net-(U1-DIS)*%
X106190000Y-122500000D02*
X105940000Y-122500000D01*
%TO.N,GND*%
X99000000Y-103000000D02*
X99165628Y-103165628D01*
%TO.N,Net-(D1-K)*%
X122500000Y-110190000D02*
X125310000Y-110190000D01*
%TO.N,GND*%
X98750000Y-101800000D02*
X98750000Y-102750000D01*
%TO.N,Net-(D1-K)*%
X117940000Y-107500000D02*
X117940000Y-109130000D01*
X119000000Y-110190000D02*
X122500000Y-110190000D01*
%TO.N,Net-(C1-Pad1)*%
X100000000Y-112294887D02*
X102440000Y-112294887D01*
%TO.N,Net-(U1-DIS)*%
X106185000Y-109480000D02*
X106185000Y-111580000D01*
%TO.N,CS*%
X105710000Y-93600000D02*
X105710000Y-91790000D01*
%TO.N,arduino input*%
X99250000Y-130250000D02*
X99250000Y-120664887D01*
%TO.N,Net-(C1-Pad1)*%
X100750000Y-111544887D02*
X100000000Y-112294887D01*
X100750000Y-109500000D02*
X100750000Y-111544887D01*
%TO.N,Net-(U1-DIS)*%
X105940000Y-122500000D02*
X103440000Y-125000000D01*
%TO.N,GND*%
X98750000Y-102750000D02*
X99000000Y-103000000D01*
%TO.N,arduino input*%
X102250000Y-130705113D02*
X99705113Y-130705113D01*
%TO.N,Net-(U3-TXCAN)*%
X131722100Y-93345000D02*
X133162500Y-93345000D01*
D28*
%TO.N,+5V*%
X98000000Y-97000000D02*
X98750000Y-97000000D01*
D27*
%TO.N,Net-(U3-TXCAN)*%
X102250000Y-103750000D02*
X102320000Y-103750000D01*
%TO.N,GND*%
X130750000Y-95975000D02*
X130275000Y-95975000D01*
D28*
%TO.N,+5v*%
X106500000Y-131000000D02*
X114500000Y-131000000D01*
D27*
%TO.N,GND*%
X130275000Y-95975000D02*
X129500000Y-96750000D01*
X132761540Y-94214040D02*
X133162500Y-94615000D01*
X98750000Y-101800000D02*
X99225000Y-101800000D01*
X99551000Y-96041000D02*
X99551000Y-97749000D01*
%TO.N,Net-(D1-K)*%
X125500000Y-110000000D02*
X125500000Y-109940000D01*
%TO.N,GND*%
X99551000Y-97749000D02*
X98750000Y-98550000D01*
X98750000Y-95240000D02*
X99551000Y-96041000D01*
%TO.N,arduino input*%
X99705113Y-130705113D02*
X99250000Y-130250000D01*
%TO.N,GND*%
X127000000Y-119000000D02*
X127000000Y-128750000D01*
X125310000Y-128560000D02*
X125310000Y-127805000D01*
D28*
%TO.N,+5v*%
X116507000Y-106999999D02*
X116506999Y-119743001D01*
D27*
%TO.N,GND*%
X126500000Y-129250000D02*
X126000000Y-129250000D01*
X122500000Y-117810000D02*
X123440000Y-118750000D01*
X123440000Y-118750000D02*
X126750000Y-118750000D01*
%TO.N,Net-(U2-+)*%
X113810000Y-127000000D02*
X113810000Y-129250000D01*
%TO.N,GND*%
X126750000Y-118750000D02*
X127000000Y-119000000D01*
X127000000Y-128750000D02*
X126500000Y-129250000D01*
%TO.N,Possitive*%
X128325000Y-117560000D02*
X129270000Y-116615000D01*
D28*
%TO.N,+5v*%
X116506999Y-105493001D02*
X116507000Y-106999999D01*
D27*
%TO.N,arduino input*%
X99250000Y-120664887D02*
X100000000Y-119914887D01*
%TO.N,SCK*%
X130000000Y-92203000D02*
X130797000Y-93000000D01*
D28*
%TO.N,+5v*%
X118130000Y-105000000D02*
X117000000Y-105000000D01*
D27*
%TO.N,High*%
X143115000Y-94615000D02*
X143250000Y-94750000D01*
%TO.N,SO*%
X134327500Y-90922500D02*
X134327500Y-89120000D01*
D28*
%TO.N,+5V*%
X105750000Y-71750000D02*
X94250000Y-71750000D01*
X102750000Y-105000000D02*
X104250000Y-106500000D01*
D27*
%TO.N,Net-(U3-RXCAN)*%
X104440000Y-102900000D02*
X104440000Y-104440000D01*
%TO.N,CS*%
X105710000Y-91790000D02*
X106500000Y-91000000D01*
%TO.N,SO*%
X106980000Y-91921000D02*
X107500000Y-91401000D01*
%TO.N,Net-(U3-OSC2)*%
X129000000Y-93750000D02*
X128750000Y-93750000D01*
%TO.N,+5V*%
X121750000Y-98750000D02*
X121750000Y-103500000D01*
%TO.N,GND*%
X115750000Y-95250000D02*
X115799265Y-95299265D01*
%TO.N,+5V*%
X131250000Y-94750000D02*
X130250000Y-94750000D01*
%TO.N,GND*%
X99225000Y-101800000D02*
X99551000Y-101474000D01*
%TO.N,Net-(U3-OSC2)*%
X128750000Y-93750000D02*
X127250000Y-95250000D01*
%TO.N,+5V*%
X133162500Y-95885000D02*
X132385000Y-95885000D01*
D28*
X98415628Y-104165628D02*
X97250000Y-103000000D01*
D27*
X115500000Y-105000000D02*
X115305000Y-105000000D01*
%TO.N,GND*%
X140337500Y-93345000D02*
X141405000Y-93345000D01*
%TO.N,+5V*%
X130250000Y-94750000D02*
X130125707Y-94874293D01*
%TO.N,SI*%
X108250000Y-92052000D02*
X108500000Y-91802000D01*
%TO.N,GND*%
X112950735Y-104700735D02*
X112950735Y-103279265D01*
%TO.N,+5V*%
X121750000Y-103500000D02*
X121750000Y-101750000D01*
%TO.N,GND*%
X112950735Y-103279265D02*
X113330000Y-102900000D01*
X99551000Y-101474000D02*
X99551000Y-97749000D01*
D28*
%TO.N,+5v*%
X115500000Y-120750000D02*
X116065000Y-120185000D01*
D27*
%TO.N,Net-(D1-K)*%
X125310000Y-110190000D02*
X125500000Y-110000000D01*
%TO.N,Net-(U1-DIS)*%
X103440000Y-125000000D02*
X102250000Y-125000000D01*
%TO.N,CS*%
X129247500Y-90752500D02*
X129247500Y-89120000D01*
%TO.N,Low*%
X141885000Y-95885000D02*
X142000000Y-96000000D01*
%TO.N,+5V*%
X132385000Y-95885000D02*
X131250000Y-94750000D01*
D28*
X102500000Y-91750000D02*
X101035000Y-91750000D01*
D27*
%TO.N,Comparator input*%
X124700000Y-102290000D02*
X124700000Y-101950000D01*
%TO.N,CS*%
X129000000Y-91000000D02*
X129247500Y-90752500D01*
%TO.N,GND*%
X126000000Y-129250000D02*
X125310000Y-128560000D01*
%TO.N,Possitive*%
X125500000Y-117560000D02*
X128325000Y-117560000D01*
D28*
%TO.N,+5V*%
X97250000Y-94500000D02*
X97940000Y-93810000D01*
D27*
%TO.N,SI*%
X130000000Y-91802000D02*
X130551000Y-91802000D01*
D28*
%TO.N,+5V*%
X101000000Y-104165628D02*
X98415628Y-104165628D01*
D27*
%TO.N,Net-(U3-OSC2)*%
X110790000Y-102900000D02*
X110790000Y-104460000D01*
%TO.N,SCK*%
X132698000Y-91802000D02*
X137948000Y-91802000D01*
%TO.N,Net-(U3-OSC1)*%
X112060000Y-104440000D02*
X112000000Y-104500000D01*
%TO.N,GND*%
X130275000Y-95975000D02*
X129549265Y-96700735D01*
%TO.N,Net-(D1-K)*%
X117940000Y-109130000D02*
X119000000Y-110190000D01*
%TO.N,Low*%
X140337500Y-95885000D02*
X141885000Y-95885000D01*
%TO.N,Net-(U3-OSC1)*%
X112060000Y-102900000D02*
X112060000Y-104440000D01*
%TO.N,Net-(C1-Pad1)*%
X102440000Y-112294887D02*
X102500000Y-112234887D01*
%TO.N,GND*%
X115450735Y-93200735D02*
X115799265Y-93549265D01*
X115799265Y-93549265D02*
X115799265Y-95299265D01*
D28*
%TO.N,+5V*%
X94250000Y-71750000D02*
X93750000Y-72250000D01*
D27*
%TO.N,Net-(U3-OSC1)*%
X115250000Y-97775000D02*
X116225000Y-97775000D01*
%TO.N,Net-(U3-OSC2)*%
X110790000Y-104460000D02*
X110750000Y-104500000D01*
%TO.N,GND*%
X115250000Y-95750000D02*
X115750000Y-95250000D01*
D28*
%TO.N,+5V*%
X97250000Y-103000000D02*
X97250000Y-101250000D01*
%TO.N,+5v*%
X114500000Y-131000000D02*
X115500000Y-130000000D01*
%TO.N,+5V*%
X93750000Y-91000000D02*
X97250000Y-94500000D01*
X97250000Y-101250000D02*
X98250000Y-100250000D01*
%TD*%
M02*
