%TF.GenerationSoftware,KiCad,Pcbnew,9.0.4*%
%TF.CreationDate,2025-11-23T23:56:54-07:00*%
%TF.ProjectId,New Tachometer,4e657720-5461-4636-986f-6d657465722e,rev?*%
%TF.SameCoordinates,Original*%
%TF.FileFunction,Soldermask,Bot*%
%TF.FilePolarity,Negative*%
%FSLAX46Y46*%
G04 Gerber Fmt 4.6, Leading zero omitted, Abs format (unit mm)*
G04 Created by KiCad (PCBNEW 9.0.4) date 2025-11-23 23:56:54*
%MOMM*%
%LPD*%
G01*
G04 APERTURE LIST*
G04 Aperture macros list*
%AMRoundRect*
0 Rectangle with rounded corners*
0 $1 Rounding radius*
0 $2 $3 $4 $5 $6 $7 $8 $9 X,Y pos of 4 corners*
0 Add a 4 corners polygon primitive as box body*
4,1,4,$2,$3,$4,$5,$6,$7,$8,$9,$2,$3,0*
0 Add four circle primitives for the rounded corners*
1,1,$1+$1,$2,$3*
1,1,$1+$1,$4,$5*
1,1,$1+$1,$6,$7*
1,1,$1+$1,$8,$9*
0 Add four rect primitives between the rounded corners*
20,1,$1+$1,$2,$3,$4,$5,0*
20,1,$1+$1,$4,$5,$6,$7,0*
20,1,$1+$1,$6,$7,$8,$9,0*
20,1,$1+$1,$8,$9,$2,$3,0*%
G04 Aperture macros list end*
%ADD10C,1.400000*%
%ADD11RoundRect,0.102000X0.900000X-0.900000X0.900000X0.900000X-0.900000X0.900000X-0.900000X-0.900000X0*%
%ADD12C,2.004000*%
%ADD13RoundRect,0.250000X0.550000X-0.550000X0.550000X0.550000X-0.550000X0.550000X-0.550000X-0.550000X0*%
%ADD14C,1.600000*%
%ADD15RoundRect,0.250000X0.550000X0.550000X-0.550000X0.550000X-0.550000X-0.550000X0.550000X-0.550000X0*%
%ADD16RoundRect,0.250000X-0.650000X0.650000X-0.650000X-0.650000X0.650000X-0.650000X0.650000X0.650000X0*%
%ADD17C,1.800000*%
%ADD18C,3.550000*%
%ADD19RoundRect,0.102000X1.447500X-1.447500X1.447500X1.447500X-1.447500X1.447500X-1.447500X-1.447500X0*%
%ADD20C,3.099000*%
%ADD21C,3.500000*%
%ADD22R,1.500000X1.050000*%
%ADD23O,1.500000X1.050000*%
G04 APERTURE END LIST*
D10*
%TO.C,R10*%
X113810000Y-124750000D03*
X106190000Y-124750000D03*
%TD*%
%TO.C,R2*%
X118130000Y-107500000D03*
X125750000Y-107500000D03*
%TD*%
%TO.C,R7*%
X106190000Y-122500000D03*
X113810000Y-122500000D03*
%TD*%
%TO.C,R9*%
X106190000Y-129250000D03*
X113810000Y-129250000D03*
%TD*%
D11*
%TO.C,UNIT_1*%
X98767500Y-89120000D03*
D12*
X101307500Y-89120000D03*
X103847500Y-89120000D03*
X106387500Y-89120000D03*
X108927500Y-89120000D03*
X111467500Y-89120000D03*
X114007500Y-89120000D03*
X116547500Y-89120000D03*
X119087500Y-89120000D03*
X121627500Y-89120000D03*
X124167500Y-89120000D03*
X126707500Y-89120000D03*
X129247500Y-89120000D03*
X131787500Y-89120000D03*
X134327500Y-89120000D03*
X134327500Y-73880000D03*
X131787500Y-73880000D03*
X129247500Y-73880000D03*
X126707500Y-73880000D03*
X124167500Y-73880000D03*
X121627500Y-73880000D03*
X119087500Y-73880000D03*
X116547500Y-73880000D03*
X114007500Y-73880000D03*
X111467500Y-73880000D03*
X108927500Y-73880000D03*
X106387500Y-73880000D03*
X103847500Y-73880000D03*
X101307500Y-73880000D03*
X98767500Y-73880000D03*
%TD*%
D13*
%TO.C,C3*%
X102250000Y-125000000D03*
D14*
X102250000Y-122500000D03*
%TD*%
D15*
%TO.C,U1*%
X113805000Y-114120000D03*
D14*
X113805000Y-111580000D03*
X113805000Y-109040000D03*
X113805000Y-106500000D03*
X106185000Y-106500000D03*
X106185000Y-109040000D03*
X106185000Y-111580000D03*
X106185000Y-114120000D03*
%TD*%
D16*
%TO.C,D1*%
X119000000Y-110190000D03*
D17*
X119000000Y-117810000D03*
%TD*%
D10*
%TO.C,R11*%
X100000000Y-112294887D03*
X100000000Y-119914887D03*
%TD*%
%TO.C,R8*%
X106190000Y-127000000D03*
X113810000Y-127000000D03*
%TD*%
D16*
%TO.C,D2*%
X122500000Y-110190000D03*
D17*
X122500000Y-117810000D03*
%TD*%
D10*
%TO.C,R3*%
X118130000Y-105000000D03*
X125750000Y-105000000D03*
%TD*%
D13*
%TO.C,U2*%
X117690000Y-127805000D03*
D14*
X120230000Y-127805000D03*
X122770000Y-127805000D03*
X125310000Y-127805000D03*
X125310000Y-120185000D03*
X122770000Y-120185000D03*
X120230000Y-120185000D03*
X117690000Y-120185000D03*
%TD*%
D18*
%TO.C,J1*%
X131500000Y-122580000D03*
X131500000Y-101750000D03*
D19*
X129270000Y-116615000D03*
D20*
X129270000Y-112165000D03*
X129270000Y-107725000D03*
X133720000Y-107725000D03*
X133720000Y-112165000D03*
X133720000Y-116615000D03*
%TD*%
D21*
%TO.C,REF\u002A\u002A*%
X95250000Y-130500000D03*
%TD*%
D10*
%TO.C,R1*%
X125500000Y-117620000D03*
X125500000Y-110000000D03*
%TD*%
%TO.C,R4*%
X113810000Y-120250000D03*
X106190000Y-120250000D03*
%TD*%
%TO.C,R6*%
X106190000Y-118000000D03*
X113810000Y-118000000D03*
%TD*%
%TO.C,R13*%
X101000000Y-102310000D03*
X101000000Y-94690000D03*
%TD*%
D21*
%TO.C,REF\u002A\u002A*%
X142000000Y-67250000D03*
%TD*%
%TO.C,REF\u002A\u002A*%
X95250000Y-67250000D03*
%TD*%
D10*
%TO.C,R5*%
X102500000Y-119854887D03*
X102500000Y-112234887D03*
%TD*%
D13*
%TO.C,C2*%
X102250000Y-130705113D03*
D14*
X102250000Y-128205113D03*
%TD*%
D21*
%TO.C,REF\u002A\u002A*%
X142000000Y-130500000D03*
%TD*%
D14*
%TO.C,C4*%
X115500000Y-101250000D03*
X120500000Y-101250000D03*
%TD*%
D13*
%TO.C,C1*%
X100750000Y-109500000D03*
D14*
X100750000Y-107000000D03*
%TD*%
D22*
%TO.C,Q1*%
X124700000Y-102290000D03*
D23*
X124700000Y-101020000D03*
X124700000Y-99750000D03*
%TD*%
M02*
