%TF.GenerationSoftware,KiCad,Pcbnew,9.0.4*%
%TF.CreationDate,2025-11-23T23:56:54-07:00*%
%TF.ProjectId,New Tachometer,4e657720-5461-4636-986f-6d657465722e,rev?*%
%TF.SameCoordinates,Original*%
%TF.FileFunction,Legend,Top*%
%TF.FilePolarity,Positive*%
%FSLAX46Y46*%
G04 Gerber Fmt 4.6, Leading zero omitted, Abs format (unit mm)*
G04 Created by KiCad (PCBNEW 9.0.4) date 2025-11-23 23:56:54*
%MOMM*%
%LPD*%
G01*
G04 APERTURE LIST*
%ADD10C,0.150000*%
%ADD11C,0.125000*%
%ADD12C,0.120000*%
%ADD13C,0.127000*%
%ADD14C,0.200000*%
G04 APERTURE END LIST*
D10*
X152265350Y-132869819D02*
X152265350Y-131869819D01*
X152265350Y-132822200D02*
X152170112Y-132869819D01*
X152170112Y-132869819D02*
X151979636Y-132869819D01*
X151979636Y-132869819D02*
X151884398Y-132822200D01*
X151884398Y-132822200D02*
X151836779Y-132774580D01*
X151836779Y-132774580D02*
X151789160Y-132679342D01*
X151789160Y-132679342D02*
X151789160Y-132393628D01*
X151789160Y-132393628D02*
X151836779Y-132298390D01*
X151836779Y-132298390D02*
X151884398Y-132250771D01*
X151884398Y-132250771D02*
X151979636Y-132203152D01*
X151979636Y-132203152D02*
X152170112Y-132203152D01*
X152170112Y-132203152D02*
X152265350Y-132250771D01*
X153122493Y-132822200D02*
X153027255Y-132869819D01*
X153027255Y-132869819D02*
X152836779Y-132869819D01*
X152836779Y-132869819D02*
X152741541Y-132822200D01*
X152741541Y-132822200D02*
X152693922Y-132726961D01*
X152693922Y-132726961D02*
X152693922Y-132346009D01*
X152693922Y-132346009D02*
X152741541Y-132250771D01*
X152741541Y-132250771D02*
X152836779Y-132203152D01*
X152836779Y-132203152D02*
X153027255Y-132203152D01*
X153027255Y-132203152D02*
X153122493Y-132250771D01*
X153122493Y-132250771D02*
X153170112Y-132346009D01*
X153170112Y-132346009D02*
X153170112Y-132441247D01*
X153170112Y-132441247D02*
X152693922Y-132536485D01*
X153598684Y-132869819D02*
X153598684Y-132203152D01*
X153598684Y-131869819D02*
X153551065Y-131917438D01*
X153551065Y-131917438D02*
X153598684Y-131965057D01*
X153598684Y-131965057D02*
X153646303Y-131917438D01*
X153646303Y-131917438D02*
X153598684Y-131869819D01*
X153598684Y-131869819D02*
X153598684Y-131965057D01*
X154503445Y-132203152D02*
X154503445Y-133012676D01*
X154503445Y-133012676D02*
X154455826Y-133107914D01*
X154455826Y-133107914D02*
X154408207Y-133155533D01*
X154408207Y-133155533D02*
X154312969Y-133203152D01*
X154312969Y-133203152D02*
X154170112Y-133203152D01*
X154170112Y-133203152D02*
X154074874Y-133155533D01*
X154503445Y-132822200D02*
X154408207Y-132869819D01*
X154408207Y-132869819D02*
X154217731Y-132869819D01*
X154217731Y-132869819D02*
X154122493Y-132822200D01*
X154122493Y-132822200D02*
X154074874Y-132774580D01*
X154074874Y-132774580D02*
X154027255Y-132679342D01*
X154027255Y-132679342D02*
X154027255Y-132393628D01*
X154027255Y-132393628D02*
X154074874Y-132298390D01*
X154074874Y-132298390D02*
X154122493Y-132250771D01*
X154122493Y-132250771D02*
X154217731Y-132203152D01*
X154217731Y-132203152D02*
X154408207Y-132203152D01*
X154408207Y-132203152D02*
X154503445Y-132250771D01*
X154979636Y-132203152D02*
X154979636Y-132869819D01*
X154979636Y-132298390D02*
X155027255Y-132250771D01*
X155027255Y-132250771D02*
X155122493Y-132203152D01*
X155122493Y-132203152D02*
X155265350Y-132203152D01*
X155265350Y-132203152D02*
X155360588Y-132250771D01*
X155360588Y-132250771D02*
X155408207Y-132346009D01*
X155408207Y-132346009D02*
X155408207Y-132869819D01*
X156265350Y-132822200D02*
X156170112Y-132869819D01*
X156170112Y-132869819D02*
X155979636Y-132869819D01*
X155979636Y-132869819D02*
X155884398Y-132822200D01*
X155884398Y-132822200D02*
X155836779Y-132726961D01*
X155836779Y-132726961D02*
X155836779Y-132346009D01*
X155836779Y-132346009D02*
X155884398Y-132250771D01*
X155884398Y-132250771D02*
X155979636Y-132203152D01*
X155979636Y-132203152D02*
X156170112Y-132203152D01*
X156170112Y-132203152D02*
X156265350Y-132250771D01*
X156265350Y-132250771D02*
X156312969Y-132346009D01*
X156312969Y-132346009D02*
X156312969Y-132441247D01*
X156312969Y-132441247D02*
X155836779Y-132536485D01*
X157170112Y-132869819D02*
X157170112Y-131869819D01*
X157170112Y-132822200D02*
X157074874Y-132869819D01*
X157074874Y-132869819D02*
X156884398Y-132869819D01*
X156884398Y-132869819D02*
X156789160Y-132822200D01*
X156789160Y-132822200D02*
X156741541Y-132774580D01*
X156741541Y-132774580D02*
X156693922Y-132679342D01*
X156693922Y-132679342D02*
X156693922Y-132393628D01*
X156693922Y-132393628D02*
X156741541Y-132298390D01*
X156741541Y-132298390D02*
X156789160Y-132250771D01*
X156789160Y-132250771D02*
X156884398Y-132203152D01*
X156884398Y-132203152D02*
X157074874Y-132203152D01*
X157074874Y-132203152D02*
X157170112Y-132250771D01*
X158408208Y-132869819D02*
X158408208Y-131869819D01*
X158408208Y-132250771D02*
X158503446Y-132203152D01*
X158503446Y-132203152D02*
X158693922Y-132203152D01*
X158693922Y-132203152D02*
X158789160Y-132250771D01*
X158789160Y-132250771D02*
X158836779Y-132298390D01*
X158836779Y-132298390D02*
X158884398Y-132393628D01*
X158884398Y-132393628D02*
X158884398Y-132679342D01*
X158884398Y-132679342D02*
X158836779Y-132774580D01*
X158836779Y-132774580D02*
X158789160Y-132822200D01*
X158789160Y-132822200D02*
X158693922Y-132869819D01*
X158693922Y-132869819D02*
X158503446Y-132869819D01*
X158503446Y-132869819D02*
X158408208Y-132822200D01*
X159217732Y-132203152D02*
X159455827Y-132869819D01*
X159693922Y-132203152D02*
X159455827Y-132869819D01*
X159455827Y-132869819D02*
X159360589Y-133107914D01*
X159360589Y-133107914D02*
X159312970Y-133155533D01*
X159312970Y-133155533D02*
X159217732Y-133203152D01*
X160836780Y-132203152D02*
X160836780Y-132869819D01*
X160836780Y-132298390D02*
X160884399Y-132250771D01*
X160884399Y-132250771D02*
X160979637Y-132203152D01*
X160979637Y-132203152D02*
X161122494Y-132203152D01*
X161122494Y-132203152D02*
X161217732Y-132250771D01*
X161217732Y-132250771D02*
X161265351Y-132346009D01*
X161265351Y-132346009D02*
X161265351Y-132869819D01*
X161741542Y-132869819D02*
X161741542Y-132203152D01*
X161741542Y-131869819D02*
X161693923Y-131917438D01*
X161693923Y-131917438D02*
X161741542Y-131965057D01*
X161741542Y-131965057D02*
X161789161Y-131917438D01*
X161789161Y-131917438D02*
X161741542Y-131869819D01*
X161741542Y-131869819D02*
X161741542Y-131965057D01*
X162646303Y-132822200D02*
X162551065Y-132869819D01*
X162551065Y-132869819D02*
X162360589Y-132869819D01*
X162360589Y-132869819D02*
X162265351Y-132822200D01*
X162265351Y-132822200D02*
X162217732Y-132774580D01*
X162217732Y-132774580D02*
X162170113Y-132679342D01*
X162170113Y-132679342D02*
X162170113Y-132393628D01*
X162170113Y-132393628D02*
X162217732Y-132298390D01*
X162217732Y-132298390D02*
X162265351Y-132250771D01*
X162265351Y-132250771D02*
X162360589Y-132203152D01*
X162360589Y-132203152D02*
X162551065Y-132203152D01*
X162551065Y-132203152D02*
X162646303Y-132250771D01*
X163074875Y-132869819D02*
X163074875Y-131869819D01*
X163170113Y-132488866D02*
X163455827Y-132869819D01*
X163455827Y-132203152D02*
X163074875Y-132584104D01*
X165074875Y-132869819D02*
X165074875Y-132346009D01*
X165074875Y-132346009D02*
X165027256Y-132250771D01*
X165027256Y-132250771D02*
X164932018Y-132203152D01*
X164932018Y-132203152D02*
X164741542Y-132203152D01*
X164741542Y-132203152D02*
X164646304Y-132250771D01*
X165074875Y-132822200D02*
X164979637Y-132869819D01*
X164979637Y-132869819D02*
X164741542Y-132869819D01*
X164741542Y-132869819D02*
X164646304Y-132822200D01*
X164646304Y-132822200D02*
X164598685Y-132726961D01*
X164598685Y-132726961D02*
X164598685Y-132631723D01*
X164598685Y-132631723D02*
X164646304Y-132536485D01*
X164646304Y-132536485D02*
X164741542Y-132488866D01*
X164741542Y-132488866D02*
X164979637Y-132488866D01*
X164979637Y-132488866D02*
X165074875Y-132441247D01*
X165551066Y-132203152D02*
X165551066Y-132869819D01*
X165551066Y-132298390D02*
X165598685Y-132250771D01*
X165598685Y-132250771D02*
X165693923Y-132203152D01*
X165693923Y-132203152D02*
X165836780Y-132203152D01*
X165836780Y-132203152D02*
X165932018Y-132250771D01*
X165932018Y-132250771D02*
X165979637Y-132346009D01*
X165979637Y-132346009D02*
X165979637Y-132869819D01*
X166884399Y-132869819D02*
X166884399Y-131869819D01*
X166884399Y-132822200D02*
X166789161Y-132869819D01*
X166789161Y-132869819D02*
X166598685Y-132869819D01*
X166598685Y-132869819D02*
X166503447Y-132822200D01*
X166503447Y-132822200D02*
X166455828Y-132774580D01*
X166455828Y-132774580D02*
X166408209Y-132679342D01*
X166408209Y-132679342D02*
X166408209Y-132393628D01*
X166408209Y-132393628D02*
X166455828Y-132298390D01*
X166455828Y-132298390D02*
X166503447Y-132250771D01*
X166503447Y-132250771D02*
X166598685Y-132203152D01*
X166598685Y-132203152D02*
X166789161Y-132203152D01*
X166789161Y-132203152D02*
X166884399Y-132250771D01*
X168551066Y-132203152D02*
X168551066Y-133012676D01*
X168551066Y-133012676D02*
X168503447Y-133107914D01*
X168503447Y-133107914D02*
X168455828Y-133155533D01*
X168455828Y-133155533D02*
X168360590Y-133203152D01*
X168360590Y-133203152D02*
X168217733Y-133203152D01*
X168217733Y-133203152D02*
X168122495Y-133155533D01*
X168551066Y-132822200D02*
X168455828Y-132869819D01*
X168455828Y-132869819D02*
X168265352Y-132869819D01*
X168265352Y-132869819D02*
X168170114Y-132822200D01*
X168170114Y-132822200D02*
X168122495Y-132774580D01*
X168122495Y-132774580D02*
X168074876Y-132679342D01*
X168074876Y-132679342D02*
X168074876Y-132393628D01*
X168074876Y-132393628D02*
X168122495Y-132298390D01*
X168122495Y-132298390D02*
X168170114Y-132250771D01*
X168170114Y-132250771D02*
X168265352Y-132203152D01*
X168265352Y-132203152D02*
X168455828Y-132203152D01*
X168455828Y-132203152D02*
X168551066Y-132250771D01*
X169027257Y-132869819D02*
X169027257Y-132203152D01*
X169027257Y-132393628D02*
X169074876Y-132298390D01*
X169074876Y-132298390D02*
X169122495Y-132250771D01*
X169122495Y-132250771D02*
X169217733Y-132203152D01*
X169217733Y-132203152D02*
X169312971Y-132203152D01*
X170074876Y-132869819D02*
X170074876Y-132346009D01*
X170074876Y-132346009D02*
X170027257Y-132250771D01*
X170027257Y-132250771D02*
X169932019Y-132203152D01*
X169932019Y-132203152D02*
X169741543Y-132203152D01*
X169741543Y-132203152D02*
X169646305Y-132250771D01*
X170074876Y-132822200D02*
X169979638Y-132869819D01*
X169979638Y-132869819D02*
X169741543Y-132869819D01*
X169741543Y-132869819D02*
X169646305Y-132822200D01*
X169646305Y-132822200D02*
X169598686Y-132726961D01*
X169598686Y-132726961D02*
X169598686Y-132631723D01*
X169598686Y-132631723D02*
X169646305Y-132536485D01*
X169646305Y-132536485D02*
X169741543Y-132488866D01*
X169741543Y-132488866D02*
X169979638Y-132488866D01*
X169979638Y-132488866D02*
X170074876Y-132441247D01*
X170551067Y-132869819D02*
X170551067Y-132203152D01*
X170551067Y-132298390D02*
X170598686Y-132250771D01*
X170598686Y-132250771D02*
X170693924Y-132203152D01*
X170693924Y-132203152D02*
X170836781Y-132203152D01*
X170836781Y-132203152D02*
X170932019Y-132250771D01*
X170932019Y-132250771D02*
X170979638Y-132346009D01*
X170979638Y-132346009D02*
X170979638Y-132869819D01*
X170979638Y-132346009D02*
X171027257Y-132250771D01*
X171027257Y-132250771D02*
X171122495Y-132203152D01*
X171122495Y-132203152D02*
X171265352Y-132203152D01*
X171265352Y-132203152D02*
X171360591Y-132250771D01*
X171360591Y-132250771D02*
X171408210Y-132346009D01*
X171408210Y-132346009D02*
X171408210Y-132869819D01*
X99586779Y-65259875D02*
X99586779Y-64259875D01*
X99586779Y-64259875D02*
X99967731Y-64259875D01*
X99967731Y-64259875D02*
X100062969Y-64307494D01*
X100062969Y-64307494D02*
X100110588Y-64355113D01*
X100110588Y-64355113D02*
X100158207Y-64450351D01*
X100158207Y-64450351D02*
X100158207Y-64593208D01*
X100158207Y-64593208D02*
X100110588Y-64688446D01*
X100110588Y-64688446D02*
X100062969Y-64736065D01*
X100062969Y-64736065D02*
X99967731Y-64783684D01*
X99967731Y-64783684D02*
X99586779Y-64783684D01*
X101158207Y-65164636D02*
X101110588Y-65212256D01*
X101110588Y-65212256D02*
X100967731Y-65259875D01*
X100967731Y-65259875D02*
X100872493Y-65259875D01*
X100872493Y-65259875D02*
X100729636Y-65212256D01*
X100729636Y-65212256D02*
X100634398Y-65117017D01*
X100634398Y-65117017D02*
X100586779Y-65021779D01*
X100586779Y-65021779D02*
X100539160Y-64831303D01*
X100539160Y-64831303D02*
X100539160Y-64688446D01*
X100539160Y-64688446D02*
X100586779Y-64497970D01*
X100586779Y-64497970D02*
X100634398Y-64402732D01*
X100634398Y-64402732D02*
X100729636Y-64307494D01*
X100729636Y-64307494D02*
X100872493Y-64259875D01*
X100872493Y-64259875D02*
X100967731Y-64259875D01*
X100967731Y-64259875D02*
X101110588Y-64307494D01*
X101110588Y-64307494D02*
X101158207Y-64355113D01*
X101920112Y-64736065D02*
X102062969Y-64783684D01*
X102062969Y-64783684D02*
X102110588Y-64831303D01*
X102110588Y-64831303D02*
X102158207Y-64926541D01*
X102158207Y-64926541D02*
X102158207Y-65069398D01*
X102158207Y-65069398D02*
X102110588Y-65164636D01*
X102110588Y-65164636D02*
X102062969Y-65212256D01*
X102062969Y-65212256D02*
X101967731Y-65259875D01*
X101967731Y-65259875D02*
X101586779Y-65259875D01*
X101586779Y-65259875D02*
X101586779Y-64259875D01*
X101586779Y-64259875D02*
X101920112Y-64259875D01*
X101920112Y-64259875D02*
X102015350Y-64307494D01*
X102015350Y-64307494D02*
X102062969Y-64355113D01*
X102062969Y-64355113D02*
X102110588Y-64450351D01*
X102110588Y-64450351D02*
X102110588Y-64545589D01*
X102110588Y-64545589D02*
X102062969Y-64640827D01*
X102062969Y-64640827D02*
X102015350Y-64688446D01*
X102015350Y-64688446D02*
X101920112Y-64736065D01*
X101920112Y-64736065D02*
X101586779Y-64736065D01*
X103348684Y-65259875D02*
X103348684Y-64259875D01*
X103348684Y-64259875D02*
X103586779Y-64259875D01*
X103586779Y-64259875D02*
X103729636Y-64307494D01*
X103729636Y-64307494D02*
X103824874Y-64402732D01*
X103824874Y-64402732D02*
X103872493Y-64497970D01*
X103872493Y-64497970D02*
X103920112Y-64688446D01*
X103920112Y-64688446D02*
X103920112Y-64831303D01*
X103920112Y-64831303D02*
X103872493Y-65021779D01*
X103872493Y-65021779D02*
X103824874Y-65117017D01*
X103824874Y-65117017D02*
X103729636Y-65212256D01*
X103729636Y-65212256D02*
X103586779Y-65259875D01*
X103586779Y-65259875D02*
X103348684Y-65259875D01*
X104729636Y-65212256D02*
X104634398Y-65259875D01*
X104634398Y-65259875D02*
X104443922Y-65259875D01*
X104443922Y-65259875D02*
X104348684Y-65212256D01*
X104348684Y-65212256D02*
X104301065Y-65117017D01*
X104301065Y-65117017D02*
X104301065Y-64736065D01*
X104301065Y-64736065D02*
X104348684Y-64640827D01*
X104348684Y-64640827D02*
X104443922Y-64593208D01*
X104443922Y-64593208D02*
X104634398Y-64593208D01*
X104634398Y-64593208D02*
X104729636Y-64640827D01*
X104729636Y-64640827D02*
X104777255Y-64736065D01*
X104777255Y-64736065D02*
X104777255Y-64831303D01*
X104777255Y-64831303D02*
X104301065Y-64926541D01*
X105158208Y-65212256D02*
X105253446Y-65259875D01*
X105253446Y-65259875D02*
X105443922Y-65259875D01*
X105443922Y-65259875D02*
X105539160Y-65212256D01*
X105539160Y-65212256D02*
X105586779Y-65117017D01*
X105586779Y-65117017D02*
X105586779Y-65069398D01*
X105586779Y-65069398D02*
X105539160Y-64974160D01*
X105539160Y-64974160D02*
X105443922Y-64926541D01*
X105443922Y-64926541D02*
X105301065Y-64926541D01*
X105301065Y-64926541D02*
X105205827Y-64878922D01*
X105205827Y-64878922D02*
X105158208Y-64783684D01*
X105158208Y-64783684D02*
X105158208Y-64736065D01*
X105158208Y-64736065D02*
X105205827Y-64640827D01*
X105205827Y-64640827D02*
X105301065Y-64593208D01*
X105301065Y-64593208D02*
X105443922Y-64593208D01*
X105443922Y-64593208D02*
X105539160Y-64640827D01*
X106015351Y-65259875D02*
X106015351Y-64593208D01*
X106015351Y-64259875D02*
X105967732Y-64307494D01*
X105967732Y-64307494D02*
X106015351Y-64355113D01*
X106015351Y-64355113D02*
X106062970Y-64307494D01*
X106062970Y-64307494D02*
X106015351Y-64259875D01*
X106015351Y-64259875D02*
X106015351Y-64355113D01*
X106920112Y-64593208D02*
X106920112Y-65402732D01*
X106920112Y-65402732D02*
X106872493Y-65497970D01*
X106872493Y-65497970D02*
X106824874Y-65545589D01*
X106824874Y-65545589D02*
X106729636Y-65593208D01*
X106729636Y-65593208D02*
X106586779Y-65593208D01*
X106586779Y-65593208D02*
X106491541Y-65545589D01*
X106920112Y-65212256D02*
X106824874Y-65259875D01*
X106824874Y-65259875D02*
X106634398Y-65259875D01*
X106634398Y-65259875D02*
X106539160Y-65212256D01*
X106539160Y-65212256D02*
X106491541Y-65164636D01*
X106491541Y-65164636D02*
X106443922Y-65069398D01*
X106443922Y-65069398D02*
X106443922Y-64783684D01*
X106443922Y-64783684D02*
X106491541Y-64688446D01*
X106491541Y-64688446D02*
X106539160Y-64640827D01*
X106539160Y-64640827D02*
X106634398Y-64593208D01*
X106634398Y-64593208D02*
X106824874Y-64593208D01*
X106824874Y-64593208D02*
X106920112Y-64640827D01*
X107396303Y-64593208D02*
X107396303Y-65259875D01*
X107396303Y-64688446D02*
X107443922Y-64640827D01*
X107443922Y-64640827D02*
X107539160Y-64593208D01*
X107539160Y-64593208D02*
X107682017Y-64593208D01*
X107682017Y-64593208D02*
X107777255Y-64640827D01*
X107777255Y-64640827D02*
X107824874Y-64736065D01*
X107824874Y-64736065D02*
X107824874Y-65259875D01*
X108682017Y-65212256D02*
X108586779Y-65259875D01*
X108586779Y-65259875D02*
X108396303Y-65259875D01*
X108396303Y-65259875D02*
X108301065Y-65212256D01*
X108301065Y-65212256D02*
X108253446Y-65117017D01*
X108253446Y-65117017D02*
X108253446Y-64736065D01*
X108253446Y-64736065D02*
X108301065Y-64640827D01*
X108301065Y-64640827D02*
X108396303Y-64593208D01*
X108396303Y-64593208D02*
X108586779Y-64593208D01*
X108586779Y-64593208D02*
X108682017Y-64640827D01*
X108682017Y-64640827D02*
X108729636Y-64736065D01*
X108729636Y-64736065D02*
X108729636Y-64831303D01*
X108729636Y-64831303D02*
X108253446Y-64926541D01*
X109586779Y-65259875D02*
X109586779Y-64259875D01*
X109586779Y-65212256D02*
X109491541Y-65259875D01*
X109491541Y-65259875D02*
X109301065Y-65259875D01*
X109301065Y-65259875D02*
X109205827Y-65212256D01*
X109205827Y-65212256D02*
X109158208Y-65164636D01*
X109158208Y-65164636D02*
X109110589Y-65069398D01*
X109110589Y-65069398D02*
X109110589Y-64783684D01*
X109110589Y-64783684D02*
X109158208Y-64688446D01*
X109158208Y-64688446D02*
X109205827Y-64640827D01*
X109205827Y-64640827D02*
X109301065Y-64593208D01*
X109301065Y-64593208D02*
X109491541Y-64593208D01*
X109491541Y-64593208D02*
X109586779Y-64640827D01*
X110824875Y-65259875D02*
X110824875Y-64259875D01*
X110824875Y-64640827D02*
X110920113Y-64593208D01*
X110920113Y-64593208D02*
X111110589Y-64593208D01*
X111110589Y-64593208D02*
X111205827Y-64640827D01*
X111205827Y-64640827D02*
X111253446Y-64688446D01*
X111253446Y-64688446D02*
X111301065Y-64783684D01*
X111301065Y-64783684D02*
X111301065Y-65069398D01*
X111301065Y-65069398D02*
X111253446Y-65164636D01*
X111253446Y-65164636D02*
X111205827Y-65212256D01*
X111205827Y-65212256D02*
X111110589Y-65259875D01*
X111110589Y-65259875D02*
X110920113Y-65259875D01*
X110920113Y-65259875D02*
X110824875Y-65212256D01*
X111634399Y-64593208D02*
X111872494Y-65259875D01*
X112110589Y-64593208D02*
X111872494Y-65259875D01*
X111872494Y-65259875D02*
X111777256Y-65497970D01*
X111777256Y-65497970D02*
X111729637Y-65545589D01*
X111729637Y-65545589D02*
X111634399Y-65593208D01*
X113253447Y-65259875D02*
X113253447Y-64259875D01*
X113253447Y-64259875D02*
X113824875Y-65259875D01*
X113824875Y-65259875D02*
X113824875Y-64259875D01*
X114301066Y-65259875D02*
X114301066Y-64593208D01*
X114301066Y-64259875D02*
X114253447Y-64307494D01*
X114253447Y-64307494D02*
X114301066Y-64355113D01*
X114301066Y-64355113D02*
X114348685Y-64307494D01*
X114348685Y-64307494D02*
X114301066Y-64259875D01*
X114301066Y-64259875D02*
X114301066Y-64355113D01*
X115205827Y-65212256D02*
X115110589Y-65259875D01*
X115110589Y-65259875D02*
X114920113Y-65259875D01*
X114920113Y-65259875D02*
X114824875Y-65212256D01*
X114824875Y-65212256D02*
X114777256Y-65164636D01*
X114777256Y-65164636D02*
X114729637Y-65069398D01*
X114729637Y-65069398D02*
X114729637Y-64783684D01*
X114729637Y-64783684D02*
X114777256Y-64688446D01*
X114777256Y-64688446D02*
X114824875Y-64640827D01*
X114824875Y-64640827D02*
X114920113Y-64593208D01*
X114920113Y-64593208D02*
X115110589Y-64593208D01*
X115110589Y-64593208D02*
X115205827Y-64640827D01*
X115634399Y-65259875D02*
X115634399Y-64259875D01*
X115729637Y-64878922D02*
X116015351Y-65259875D01*
X116015351Y-64593208D02*
X115634399Y-64974160D01*
X117205828Y-65259875D02*
X117205828Y-64259875D01*
X117777256Y-65259875D02*
X117348685Y-64688446D01*
X117777256Y-64259875D02*
X117205828Y-64831303D01*
X118205828Y-65259875D02*
X118205828Y-64593208D01*
X118205828Y-64783684D02*
X118253447Y-64688446D01*
X118253447Y-64688446D02*
X118301066Y-64640827D01*
X118301066Y-64640827D02*
X118396304Y-64593208D01*
X118396304Y-64593208D02*
X118491542Y-64593208D01*
X119253447Y-65259875D02*
X119253447Y-64736065D01*
X119253447Y-64736065D02*
X119205828Y-64640827D01*
X119205828Y-64640827D02*
X119110590Y-64593208D01*
X119110590Y-64593208D02*
X118920114Y-64593208D01*
X118920114Y-64593208D02*
X118824876Y-64640827D01*
X119253447Y-65212256D02*
X119158209Y-65259875D01*
X119158209Y-65259875D02*
X118920114Y-65259875D01*
X118920114Y-65259875D02*
X118824876Y-65212256D01*
X118824876Y-65212256D02*
X118777257Y-65117017D01*
X118777257Y-65117017D02*
X118777257Y-65021779D01*
X118777257Y-65021779D02*
X118824876Y-64926541D01*
X118824876Y-64926541D02*
X118920114Y-64878922D01*
X118920114Y-64878922D02*
X119158209Y-64878922D01*
X119158209Y-64878922D02*
X119253447Y-64831303D01*
X119634400Y-64593208D02*
X119872495Y-65259875D01*
X119872495Y-65259875D02*
X120110590Y-64593208D01*
X120872495Y-65212256D02*
X120777257Y-65259875D01*
X120777257Y-65259875D02*
X120586781Y-65259875D01*
X120586781Y-65259875D02*
X120491543Y-65212256D01*
X120491543Y-65212256D02*
X120443924Y-65117017D01*
X120443924Y-65117017D02*
X120443924Y-64736065D01*
X120443924Y-64736065D02*
X120491543Y-64640827D01*
X120491543Y-64640827D02*
X120586781Y-64593208D01*
X120586781Y-64593208D02*
X120777257Y-64593208D01*
X120777257Y-64593208D02*
X120872495Y-64640827D01*
X120872495Y-64640827D02*
X120920114Y-64736065D01*
X120920114Y-64736065D02*
X120920114Y-64831303D01*
X120920114Y-64831303D02*
X120443924Y-64926541D01*
X121205829Y-64593208D02*
X121586781Y-64593208D01*
X121348686Y-64259875D02*
X121348686Y-65117017D01*
X121348686Y-65117017D02*
X121396305Y-65212256D01*
X121396305Y-65212256D02*
X121491543Y-65259875D01*
X121491543Y-65259875D02*
X121586781Y-65259875D01*
X121824877Y-64593208D02*
X122348686Y-64593208D01*
X122348686Y-64593208D02*
X121824877Y-65259875D01*
X121824877Y-65259875D02*
X122348686Y-65259875D01*
X99920112Y-66346009D02*
X100062969Y-66393628D01*
X100062969Y-66393628D02*
X100110588Y-66441247D01*
X100110588Y-66441247D02*
X100158207Y-66536485D01*
X100158207Y-66536485D02*
X100158207Y-66679342D01*
X100158207Y-66679342D02*
X100110588Y-66774580D01*
X100110588Y-66774580D02*
X100062969Y-66822200D01*
X100062969Y-66822200D02*
X99967731Y-66869819D01*
X99967731Y-66869819D02*
X99586779Y-66869819D01*
X99586779Y-66869819D02*
X99586779Y-65869819D01*
X99586779Y-65869819D02*
X99920112Y-65869819D01*
X99920112Y-65869819D02*
X100015350Y-65917438D01*
X100015350Y-65917438D02*
X100062969Y-65965057D01*
X100062969Y-65965057D02*
X100110588Y-66060295D01*
X100110588Y-66060295D02*
X100110588Y-66155533D01*
X100110588Y-66155533D02*
X100062969Y-66250771D01*
X100062969Y-66250771D02*
X100015350Y-66298390D01*
X100015350Y-66298390D02*
X99920112Y-66346009D01*
X99920112Y-66346009D02*
X99586779Y-66346009D01*
X100729636Y-66869819D02*
X100634398Y-66822200D01*
X100634398Y-66822200D02*
X100586779Y-66774580D01*
X100586779Y-66774580D02*
X100539160Y-66679342D01*
X100539160Y-66679342D02*
X100539160Y-66393628D01*
X100539160Y-66393628D02*
X100586779Y-66298390D01*
X100586779Y-66298390D02*
X100634398Y-66250771D01*
X100634398Y-66250771D02*
X100729636Y-66203152D01*
X100729636Y-66203152D02*
X100872493Y-66203152D01*
X100872493Y-66203152D02*
X100967731Y-66250771D01*
X100967731Y-66250771D02*
X101015350Y-66298390D01*
X101015350Y-66298390D02*
X101062969Y-66393628D01*
X101062969Y-66393628D02*
X101062969Y-66679342D01*
X101062969Y-66679342D02*
X101015350Y-66774580D01*
X101015350Y-66774580D02*
X100967731Y-66822200D01*
X100967731Y-66822200D02*
X100872493Y-66869819D01*
X100872493Y-66869819D02*
X100729636Y-66869819D01*
X101396303Y-66869819D02*
X101920112Y-66203152D01*
X101396303Y-66203152D02*
X101920112Y-66869819D01*
X103062970Y-66869819D02*
X103062970Y-65869819D01*
X103062970Y-65869819D02*
X103301065Y-65869819D01*
X103301065Y-65869819D02*
X103443922Y-65917438D01*
X103443922Y-65917438D02*
X103539160Y-66012676D01*
X103539160Y-66012676D02*
X103586779Y-66107914D01*
X103586779Y-66107914D02*
X103634398Y-66298390D01*
X103634398Y-66298390D02*
X103634398Y-66441247D01*
X103634398Y-66441247D02*
X103586779Y-66631723D01*
X103586779Y-66631723D02*
X103539160Y-66726961D01*
X103539160Y-66726961D02*
X103443922Y-66822200D01*
X103443922Y-66822200D02*
X103301065Y-66869819D01*
X103301065Y-66869819D02*
X103062970Y-66869819D01*
X104443922Y-66822200D02*
X104348684Y-66869819D01*
X104348684Y-66869819D02*
X104158208Y-66869819D01*
X104158208Y-66869819D02*
X104062970Y-66822200D01*
X104062970Y-66822200D02*
X104015351Y-66726961D01*
X104015351Y-66726961D02*
X104015351Y-66346009D01*
X104015351Y-66346009D02*
X104062970Y-66250771D01*
X104062970Y-66250771D02*
X104158208Y-66203152D01*
X104158208Y-66203152D02*
X104348684Y-66203152D01*
X104348684Y-66203152D02*
X104443922Y-66250771D01*
X104443922Y-66250771D02*
X104491541Y-66346009D01*
X104491541Y-66346009D02*
X104491541Y-66441247D01*
X104491541Y-66441247D02*
X104015351Y-66536485D01*
X104872494Y-66822200D02*
X104967732Y-66869819D01*
X104967732Y-66869819D02*
X105158208Y-66869819D01*
X105158208Y-66869819D02*
X105253446Y-66822200D01*
X105253446Y-66822200D02*
X105301065Y-66726961D01*
X105301065Y-66726961D02*
X105301065Y-66679342D01*
X105301065Y-66679342D02*
X105253446Y-66584104D01*
X105253446Y-66584104D02*
X105158208Y-66536485D01*
X105158208Y-66536485D02*
X105015351Y-66536485D01*
X105015351Y-66536485D02*
X104920113Y-66488866D01*
X104920113Y-66488866D02*
X104872494Y-66393628D01*
X104872494Y-66393628D02*
X104872494Y-66346009D01*
X104872494Y-66346009D02*
X104920113Y-66250771D01*
X104920113Y-66250771D02*
X105015351Y-66203152D01*
X105015351Y-66203152D02*
X105158208Y-66203152D01*
X105158208Y-66203152D02*
X105253446Y-66250771D01*
X105729637Y-66869819D02*
X105729637Y-66203152D01*
X105729637Y-65869819D02*
X105682018Y-65917438D01*
X105682018Y-65917438D02*
X105729637Y-65965057D01*
X105729637Y-65965057D02*
X105777256Y-65917438D01*
X105777256Y-65917438D02*
X105729637Y-65869819D01*
X105729637Y-65869819D02*
X105729637Y-65965057D01*
X106634398Y-66203152D02*
X106634398Y-67012676D01*
X106634398Y-67012676D02*
X106586779Y-67107914D01*
X106586779Y-67107914D02*
X106539160Y-67155533D01*
X106539160Y-67155533D02*
X106443922Y-67203152D01*
X106443922Y-67203152D02*
X106301065Y-67203152D01*
X106301065Y-67203152D02*
X106205827Y-67155533D01*
X106634398Y-66822200D02*
X106539160Y-66869819D01*
X106539160Y-66869819D02*
X106348684Y-66869819D01*
X106348684Y-66869819D02*
X106253446Y-66822200D01*
X106253446Y-66822200D02*
X106205827Y-66774580D01*
X106205827Y-66774580D02*
X106158208Y-66679342D01*
X106158208Y-66679342D02*
X106158208Y-66393628D01*
X106158208Y-66393628D02*
X106205827Y-66298390D01*
X106205827Y-66298390D02*
X106253446Y-66250771D01*
X106253446Y-66250771D02*
X106348684Y-66203152D01*
X106348684Y-66203152D02*
X106539160Y-66203152D01*
X106539160Y-66203152D02*
X106634398Y-66250771D01*
X107110589Y-66203152D02*
X107110589Y-66869819D01*
X107110589Y-66298390D02*
X107158208Y-66250771D01*
X107158208Y-66250771D02*
X107253446Y-66203152D01*
X107253446Y-66203152D02*
X107396303Y-66203152D01*
X107396303Y-66203152D02*
X107491541Y-66250771D01*
X107491541Y-66250771D02*
X107539160Y-66346009D01*
X107539160Y-66346009D02*
X107539160Y-66869819D01*
X108396303Y-66822200D02*
X108301065Y-66869819D01*
X108301065Y-66869819D02*
X108110589Y-66869819D01*
X108110589Y-66869819D02*
X108015351Y-66822200D01*
X108015351Y-66822200D02*
X107967732Y-66726961D01*
X107967732Y-66726961D02*
X107967732Y-66346009D01*
X107967732Y-66346009D02*
X108015351Y-66250771D01*
X108015351Y-66250771D02*
X108110589Y-66203152D01*
X108110589Y-66203152D02*
X108301065Y-66203152D01*
X108301065Y-66203152D02*
X108396303Y-66250771D01*
X108396303Y-66250771D02*
X108443922Y-66346009D01*
X108443922Y-66346009D02*
X108443922Y-66441247D01*
X108443922Y-66441247D02*
X107967732Y-66536485D01*
X109301065Y-66869819D02*
X109301065Y-65869819D01*
X109301065Y-66822200D02*
X109205827Y-66869819D01*
X109205827Y-66869819D02*
X109015351Y-66869819D01*
X109015351Y-66869819D02*
X108920113Y-66822200D01*
X108920113Y-66822200D02*
X108872494Y-66774580D01*
X108872494Y-66774580D02*
X108824875Y-66679342D01*
X108824875Y-66679342D02*
X108824875Y-66393628D01*
X108824875Y-66393628D02*
X108872494Y-66298390D01*
X108872494Y-66298390D02*
X108920113Y-66250771D01*
X108920113Y-66250771D02*
X109015351Y-66203152D01*
X109015351Y-66203152D02*
X109205827Y-66203152D01*
X109205827Y-66203152D02*
X109301065Y-66250771D01*
X110539161Y-66869819D02*
X110539161Y-65869819D01*
X110539161Y-66250771D02*
X110634399Y-66203152D01*
X110634399Y-66203152D02*
X110824875Y-66203152D01*
X110824875Y-66203152D02*
X110920113Y-66250771D01*
X110920113Y-66250771D02*
X110967732Y-66298390D01*
X110967732Y-66298390D02*
X111015351Y-66393628D01*
X111015351Y-66393628D02*
X111015351Y-66679342D01*
X111015351Y-66679342D02*
X110967732Y-66774580D01*
X110967732Y-66774580D02*
X110920113Y-66822200D01*
X110920113Y-66822200D02*
X110824875Y-66869819D01*
X110824875Y-66869819D02*
X110634399Y-66869819D01*
X110634399Y-66869819D02*
X110539161Y-66822200D01*
X111348685Y-66203152D02*
X111586780Y-66869819D01*
X111824875Y-66203152D02*
X111586780Y-66869819D01*
X111586780Y-66869819D02*
X111491542Y-67107914D01*
X111491542Y-67107914D02*
X111443923Y-67155533D01*
X111443923Y-67155533D02*
X111348685Y-67203152D01*
X113491542Y-65917438D02*
X113396304Y-65869819D01*
X113396304Y-65869819D02*
X113253447Y-65869819D01*
X113253447Y-65869819D02*
X113110590Y-65917438D01*
X113110590Y-65917438D02*
X113015352Y-66012676D01*
X113015352Y-66012676D02*
X112967733Y-66107914D01*
X112967733Y-66107914D02*
X112920114Y-66298390D01*
X112920114Y-66298390D02*
X112920114Y-66441247D01*
X112920114Y-66441247D02*
X112967733Y-66631723D01*
X112967733Y-66631723D02*
X113015352Y-66726961D01*
X113015352Y-66726961D02*
X113110590Y-66822200D01*
X113110590Y-66822200D02*
X113253447Y-66869819D01*
X113253447Y-66869819D02*
X113348685Y-66869819D01*
X113348685Y-66869819D02*
X113491542Y-66822200D01*
X113491542Y-66822200D02*
X113539161Y-66774580D01*
X113539161Y-66774580D02*
X113539161Y-66441247D01*
X113539161Y-66441247D02*
X113348685Y-66441247D01*
X113967733Y-66869819D02*
X113967733Y-66203152D01*
X113967733Y-66393628D02*
X114015352Y-66298390D01*
X114015352Y-66298390D02*
X114062971Y-66250771D01*
X114062971Y-66250771D02*
X114158209Y-66203152D01*
X114158209Y-66203152D02*
X114253447Y-66203152D01*
X115015352Y-66869819D02*
X115015352Y-66346009D01*
X115015352Y-66346009D02*
X114967733Y-66250771D01*
X114967733Y-66250771D02*
X114872495Y-66203152D01*
X114872495Y-66203152D02*
X114682019Y-66203152D01*
X114682019Y-66203152D02*
X114586781Y-66250771D01*
X115015352Y-66822200D02*
X114920114Y-66869819D01*
X114920114Y-66869819D02*
X114682019Y-66869819D01*
X114682019Y-66869819D02*
X114586781Y-66822200D01*
X114586781Y-66822200D02*
X114539162Y-66726961D01*
X114539162Y-66726961D02*
X114539162Y-66631723D01*
X114539162Y-66631723D02*
X114586781Y-66536485D01*
X114586781Y-66536485D02*
X114682019Y-66488866D01*
X114682019Y-66488866D02*
X114920114Y-66488866D01*
X114920114Y-66488866D02*
X115015352Y-66441247D01*
X115491543Y-66869819D02*
X115491543Y-65869819D01*
X115920114Y-66869819D02*
X115920114Y-66346009D01*
X115920114Y-66346009D02*
X115872495Y-66250771D01*
X115872495Y-66250771D02*
X115777257Y-66203152D01*
X115777257Y-66203152D02*
X115634400Y-66203152D01*
X115634400Y-66203152D02*
X115539162Y-66250771D01*
X115539162Y-66250771D02*
X115491543Y-66298390D01*
X116824876Y-66869819D02*
X116824876Y-66346009D01*
X116824876Y-66346009D02*
X116777257Y-66250771D01*
X116777257Y-66250771D02*
X116682019Y-66203152D01*
X116682019Y-66203152D02*
X116491543Y-66203152D01*
X116491543Y-66203152D02*
X116396305Y-66250771D01*
X116824876Y-66822200D02*
X116729638Y-66869819D01*
X116729638Y-66869819D02*
X116491543Y-66869819D01*
X116491543Y-66869819D02*
X116396305Y-66822200D01*
X116396305Y-66822200D02*
X116348686Y-66726961D01*
X116348686Y-66726961D02*
X116348686Y-66631723D01*
X116348686Y-66631723D02*
X116396305Y-66536485D01*
X116396305Y-66536485D02*
X116491543Y-66488866D01*
X116491543Y-66488866D02*
X116729638Y-66488866D01*
X116729638Y-66488866D02*
X116824876Y-66441247D01*
X117301067Y-66869819D02*
X117301067Y-66203152D01*
X117301067Y-66298390D02*
X117348686Y-66250771D01*
X117348686Y-66250771D02*
X117443924Y-66203152D01*
X117443924Y-66203152D02*
X117586781Y-66203152D01*
X117586781Y-66203152D02*
X117682019Y-66250771D01*
X117682019Y-66250771D02*
X117729638Y-66346009D01*
X117729638Y-66346009D02*
X117729638Y-66869819D01*
X117729638Y-66346009D02*
X117777257Y-66250771D01*
X117777257Y-66250771D02*
X117872495Y-66203152D01*
X117872495Y-66203152D02*
X118015352Y-66203152D01*
X118015352Y-66203152D02*
X118110591Y-66250771D01*
X118110591Y-66250771D02*
X118158210Y-66346009D01*
X118158210Y-66346009D02*
X118158210Y-66869819D01*
X119253448Y-65869819D02*
X119586781Y-66869819D01*
X119586781Y-66869819D02*
X119920114Y-65869819D01*
X120682019Y-66869819D02*
X120682019Y-66346009D01*
X120682019Y-66346009D02*
X120634400Y-66250771D01*
X120634400Y-66250771D02*
X120539162Y-66203152D01*
X120539162Y-66203152D02*
X120348686Y-66203152D01*
X120348686Y-66203152D02*
X120253448Y-66250771D01*
X120682019Y-66822200D02*
X120586781Y-66869819D01*
X120586781Y-66869819D02*
X120348686Y-66869819D01*
X120348686Y-66869819D02*
X120253448Y-66822200D01*
X120253448Y-66822200D02*
X120205829Y-66726961D01*
X120205829Y-66726961D02*
X120205829Y-66631723D01*
X120205829Y-66631723D02*
X120253448Y-66536485D01*
X120253448Y-66536485D02*
X120348686Y-66488866D01*
X120348686Y-66488866D02*
X120586781Y-66488866D01*
X120586781Y-66488866D02*
X120682019Y-66441247D01*
X121158210Y-66203152D02*
X121158210Y-66869819D01*
X121158210Y-66298390D02*
X121205829Y-66250771D01*
X121205829Y-66250771D02*
X121301067Y-66203152D01*
X121301067Y-66203152D02*
X121443924Y-66203152D01*
X121443924Y-66203152D02*
X121539162Y-66250771D01*
X121539162Y-66250771D02*
X121586781Y-66346009D01*
X121586781Y-66346009D02*
X121586781Y-66869819D01*
X122824877Y-66869819D02*
X122824877Y-65869819D01*
X122824877Y-65869819D02*
X123062972Y-65869819D01*
X123062972Y-65869819D02*
X123205829Y-65917438D01*
X123205829Y-65917438D02*
X123301067Y-66012676D01*
X123301067Y-66012676D02*
X123348686Y-66107914D01*
X123348686Y-66107914D02*
X123396305Y-66298390D01*
X123396305Y-66298390D02*
X123396305Y-66441247D01*
X123396305Y-66441247D02*
X123348686Y-66631723D01*
X123348686Y-66631723D02*
X123301067Y-66726961D01*
X123301067Y-66726961D02*
X123205829Y-66822200D01*
X123205829Y-66822200D02*
X123062972Y-66869819D01*
X123062972Y-66869819D02*
X122824877Y-66869819D01*
X124205829Y-66822200D02*
X124110591Y-66869819D01*
X124110591Y-66869819D02*
X123920115Y-66869819D01*
X123920115Y-66869819D02*
X123824877Y-66822200D01*
X123824877Y-66822200D02*
X123777258Y-66726961D01*
X123777258Y-66726961D02*
X123777258Y-66346009D01*
X123777258Y-66346009D02*
X123824877Y-66250771D01*
X123824877Y-66250771D02*
X123920115Y-66203152D01*
X123920115Y-66203152D02*
X124110591Y-66203152D01*
X124110591Y-66203152D02*
X124205829Y-66250771D01*
X124205829Y-66250771D02*
X124253448Y-66346009D01*
X124253448Y-66346009D02*
X124253448Y-66441247D01*
X124253448Y-66441247D02*
X123777258Y-66536485D01*
X124682020Y-66869819D02*
X124682020Y-66203152D01*
X124682020Y-66393628D02*
X124729639Y-66298390D01*
X124729639Y-66298390D02*
X124777258Y-66250771D01*
X124777258Y-66250771D02*
X124872496Y-66203152D01*
X124872496Y-66203152D02*
X124967734Y-66203152D01*
X126396306Y-66346009D02*
X126539163Y-66393628D01*
X126539163Y-66393628D02*
X126586782Y-66441247D01*
X126586782Y-66441247D02*
X126634401Y-66536485D01*
X126634401Y-66536485D02*
X126634401Y-66679342D01*
X126634401Y-66679342D02*
X126586782Y-66774580D01*
X126586782Y-66774580D02*
X126539163Y-66822200D01*
X126539163Y-66822200D02*
X126443925Y-66869819D01*
X126443925Y-66869819D02*
X126062973Y-66869819D01*
X126062973Y-66869819D02*
X126062973Y-65869819D01*
X126062973Y-65869819D02*
X126396306Y-65869819D01*
X126396306Y-65869819D02*
X126491544Y-65917438D01*
X126491544Y-65917438D02*
X126539163Y-65965057D01*
X126539163Y-65965057D02*
X126586782Y-66060295D01*
X126586782Y-66060295D02*
X126586782Y-66155533D01*
X126586782Y-66155533D02*
X126539163Y-66250771D01*
X126539163Y-66250771D02*
X126491544Y-66298390D01*
X126491544Y-66298390D02*
X126396306Y-66346009D01*
X126396306Y-66346009D02*
X126062973Y-66346009D01*
X127443925Y-66822200D02*
X127348687Y-66869819D01*
X127348687Y-66869819D02*
X127158211Y-66869819D01*
X127158211Y-66869819D02*
X127062973Y-66822200D01*
X127062973Y-66822200D02*
X127015354Y-66726961D01*
X127015354Y-66726961D02*
X127015354Y-66346009D01*
X127015354Y-66346009D02*
X127062973Y-66250771D01*
X127062973Y-66250771D02*
X127158211Y-66203152D01*
X127158211Y-66203152D02*
X127348687Y-66203152D01*
X127348687Y-66203152D02*
X127443925Y-66250771D01*
X127443925Y-66250771D02*
X127491544Y-66346009D01*
X127491544Y-66346009D02*
X127491544Y-66441247D01*
X127491544Y-66441247D02*
X127015354Y-66536485D01*
X128301068Y-66822200D02*
X128205830Y-66869819D01*
X128205830Y-66869819D02*
X128015354Y-66869819D01*
X128015354Y-66869819D02*
X127920116Y-66822200D01*
X127920116Y-66822200D02*
X127872497Y-66726961D01*
X127872497Y-66726961D02*
X127872497Y-66346009D01*
X127872497Y-66346009D02*
X127920116Y-66250771D01*
X127920116Y-66250771D02*
X128015354Y-66203152D01*
X128015354Y-66203152D02*
X128205830Y-66203152D01*
X128205830Y-66203152D02*
X128301068Y-66250771D01*
X128301068Y-66250771D02*
X128348687Y-66346009D01*
X128348687Y-66346009D02*
X128348687Y-66441247D01*
X128348687Y-66441247D02*
X127872497Y-66536485D01*
X128777259Y-66869819D02*
X128777259Y-65869819D01*
X128872497Y-66488866D02*
X129158211Y-66869819D01*
X129158211Y-66203152D02*
X128777259Y-66584104D01*
X103107142Y-127704819D02*
X102773809Y-127228628D01*
X102535714Y-127704819D02*
X102535714Y-126704819D01*
X102535714Y-126704819D02*
X102916666Y-126704819D01*
X102916666Y-126704819D02*
X103011904Y-126752438D01*
X103011904Y-126752438D02*
X103059523Y-126800057D01*
X103059523Y-126800057D02*
X103107142Y-126895295D01*
X103107142Y-126895295D02*
X103107142Y-127038152D01*
X103107142Y-127038152D02*
X103059523Y-127133390D01*
X103059523Y-127133390D02*
X103011904Y-127181009D01*
X103011904Y-127181009D02*
X102916666Y-127228628D01*
X102916666Y-127228628D02*
X102535714Y-127228628D01*
X104059523Y-127704819D02*
X103488095Y-127704819D01*
X103773809Y-127704819D02*
X103773809Y-126704819D01*
X103773809Y-126704819D02*
X103678571Y-126847676D01*
X103678571Y-126847676D02*
X103583333Y-126942914D01*
X103583333Y-126942914D02*
X103488095Y-126990533D01*
X104678571Y-126704819D02*
X104773809Y-126704819D01*
X104773809Y-126704819D02*
X104869047Y-126752438D01*
X104869047Y-126752438D02*
X104916666Y-126800057D01*
X104916666Y-126800057D02*
X104964285Y-126895295D01*
X104964285Y-126895295D02*
X105011904Y-127085771D01*
X105011904Y-127085771D02*
X105011904Y-127323866D01*
X105011904Y-127323866D02*
X104964285Y-127514342D01*
X104964285Y-127514342D02*
X104916666Y-127609580D01*
X104916666Y-127609580D02*
X104869047Y-127657200D01*
X104869047Y-127657200D02*
X104773809Y-127704819D01*
X104773809Y-127704819D02*
X104678571Y-127704819D01*
X104678571Y-127704819D02*
X104583333Y-127657200D01*
X104583333Y-127657200D02*
X104535714Y-127609580D01*
X104535714Y-127609580D02*
X104488095Y-127514342D01*
X104488095Y-127514342D02*
X104440476Y-127323866D01*
X104440476Y-127323866D02*
X104440476Y-127085771D01*
X104440476Y-127085771D02*
X104488095Y-126895295D01*
X104488095Y-126895295D02*
X104535714Y-126800057D01*
X104535714Y-126800057D02*
X104583333Y-126752438D01*
X104583333Y-126752438D02*
X104678571Y-126704819D01*
X122190476Y-91154819D02*
X122857142Y-92154819D01*
X122857142Y-91154819D02*
X122190476Y-92154819D01*
X123761904Y-92154819D02*
X123190476Y-92154819D01*
X123476190Y-92154819D02*
X123476190Y-91154819D01*
X123476190Y-91154819D02*
X123380952Y-91297676D01*
X123380952Y-91297676D02*
X123285714Y-91392914D01*
X123285714Y-91392914D02*
X123190476Y-91440533D01*
D11*
X121916666Y-107724809D02*
X121750000Y-107486714D01*
X121630952Y-107724809D02*
X121630952Y-107224809D01*
X121630952Y-107224809D02*
X121821428Y-107224809D01*
X121821428Y-107224809D02*
X121869047Y-107248619D01*
X121869047Y-107248619D02*
X121892857Y-107272428D01*
X121892857Y-107272428D02*
X121916666Y-107320047D01*
X121916666Y-107320047D02*
X121916666Y-107391476D01*
X121916666Y-107391476D02*
X121892857Y-107439095D01*
X121892857Y-107439095D02*
X121869047Y-107462904D01*
X121869047Y-107462904D02*
X121821428Y-107486714D01*
X121821428Y-107486714D02*
X121630952Y-107486714D01*
X122107143Y-107272428D02*
X122130952Y-107248619D01*
X122130952Y-107248619D02*
X122178571Y-107224809D01*
X122178571Y-107224809D02*
X122297619Y-107224809D01*
X122297619Y-107224809D02*
X122345238Y-107248619D01*
X122345238Y-107248619D02*
X122369047Y-107272428D01*
X122369047Y-107272428D02*
X122392857Y-107320047D01*
X122392857Y-107320047D02*
X122392857Y-107367666D01*
X122392857Y-107367666D02*
X122369047Y-107439095D01*
X122369047Y-107439095D02*
X122083333Y-107724809D01*
X122083333Y-107724809D02*
X122392857Y-107724809D01*
D10*
X103083333Y-126704819D02*
X102750000Y-126228628D01*
X102511905Y-126704819D02*
X102511905Y-125704819D01*
X102511905Y-125704819D02*
X102892857Y-125704819D01*
X102892857Y-125704819D02*
X102988095Y-125752438D01*
X102988095Y-125752438D02*
X103035714Y-125800057D01*
X103035714Y-125800057D02*
X103083333Y-125895295D01*
X103083333Y-125895295D02*
X103083333Y-126038152D01*
X103083333Y-126038152D02*
X103035714Y-126133390D01*
X103035714Y-126133390D02*
X102988095Y-126181009D01*
X102988095Y-126181009D02*
X102892857Y-126228628D01*
X102892857Y-126228628D02*
X102511905Y-126228628D01*
X103416667Y-125704819D02*
X104083333Y-125704819D01*
X104083333Y-125704819D02*
X103654762Y-126704819D01*
X77353095Y-107889819D02*
X77353095Y-108699342D01*
X77353095Y-108699342D02*
X77400714Y-108794580D01*
X77400714Y-108794580D02*
X77448333Y-108842200D01*
X77448333Y-108842200D02*
X77543571Y-108889819D01*
X77543571Y-108889819D02*
X77734047Y-108889819D01*
X77734047Y-108889819D02*
X77829285Y-108842200D01*
X77829285Y-108842200D02*
X77876904Y-108794580D01*
X77876904Y-108794580D02*
X77924523Y-108699342D01*
X77924523Y-108699342D02*
X77924523Y-107889819D01*
X78305476Y-107889819D02*
X78924523Y-107889819D01*
X78924523Y-107889819D02*
X78591190Y-108270771D01*
X78591190Y-108270771D02*
X78734047Y-108270771D01*
X78734047Y-108270771D02*
X78829285Y-108318390D01*
X78829285Y-108318390D02*
X78876904Y-108366009D01*
X78876904Y-108366009D02*
X78924523Y-108461247D01*
X78924523Y-108461247D02*
X78924523Y-108699342D01*
X78924523Y-108699342D02*
X78876904Y-108794580D01*
X78876904Y-108794580D02*
X78829285Y-108842200D01*
X78829285Y-108842200D02*
X78734047Y-108889819D01*
X78734047Y-108889819D02*
X78448333Y-108889819D01*
X78448333Y-108889819D02*
X78353095Y-108842200D01*
X78353095Y-108842200D02*
X78305476Y-108794580D01*
X103833333Y-130704819D02*
X103500000Y-130228628D01*
X103261905Y-130704819D02*
X103261905Y-129704819D01*
X103261905Y-129704819D02*
X103642857Y-129704819D01*
X103642857Y-129704819D02*
X103738095Y-129752438D01*
X103738095Y-129752438D02*
X103785714Y-129800057D01*
X103785714Y-129800057D02*
X103833333Y-129895295D01*
X103833333Y-129895295D02*
X103833333Y-130038152D01*
X103833333Y-130038152D02*
X103785714Y-130133390D01*
X103785714Y-130133390D02*
X103738095Y-130181009D01*
X103738095Y-130181009D02*
X103642857Y-130228628D01*
X103642857Y-130228628D02*
X103261905Y-130228628D01*
X104309524Y-130704819D02*
X104500000Y-130704819D01*
X104500000Y-130704819D02*
X104595238Y-130657200D01*
X104595238Y-130657200D02*
X104642857Y-130609580D01*
X104642857Y-130609580D02*
X104738095Y-130466723D01*
X104738095Y-130466723D02*
X104785714Y-130276247D01*
X104785714Y-130276247D02*
X104785714Y-129895295D01*
X104785714Y-129895295D02*
X104738095Y-129800057D01*
X104738095Y-129800057D02*
X104690476Y-129752438D01*
X104690476Y-129752438D02*
X104595238Y-129704819D01*
X104595238Y-129704819D02*
X104404762Y-129704819D01*
X104404762Y-129704819D02*
X104309524Y-129752438D01*
X104309524Y-129752438D02*
X104261905Y-129800057D01*
X104261905Y-129800057D02*
X104214286Y-129895295D01*
X104214286Y-129895295D02*
X104214286Y-130133390D01*
X104214286Y-130133390D02*
X104261905Y-130228628D01*
X104261905Y-130228628D02*
X104309524Y-130276247D01*
X104309524Y-130276247D02*
X104404762Y-130323866D01*
X104404762Y-130323866D02*
X104595238Y-130323866D01*
X104595238Y-130323866D02*
X104690476Y-130276247D01*
X104690476Y-130276247D02*
X104738095Y-130228628D01*
X104738095Y-130228628D02*
X104785714Y-130133390D01*
X109587366Y-84320000D02*
X110720700Y-84320000D01*
X110720700Y-84320000D02*
X110854033Y-84253334D01*
X110854033Y-84253334D02*
X110920700Y-84186667D01*
X110920700Y-84186667D02*
X110987366Y-84053334D01*
X110987366Y-84053334D02*
X110987366Y-83786667D01*
X110987366Y-83786667D02*
X110920700Y-83653334D01*
X110920700Y-83653334D02*
X110854033Y-83586667D01*
X110854033Y-83586667D02*
X110720700Y-83520000D01*
X110720700Y-83520000D02*
X109587366Y-83520000D01*
X110987366Y-82853333D02*
X109587366Y-82853333D01*
X109587366Y-82853333D02*
X110987366Y-82053333D01*
X110987366Y-82053333D02*
X109587366Y-82053333D01*
X110987366Y-81386666D02*
X109587366Y-81386666D01*
X109587366Y-80919999D02*
X109587366Y-80119999D01*
X110987366Y-80519999D02*
X109587366Y-80519999D01*
X111120700Y-79986666D02*
X111120700Y-78919999D01*
X110987366Y-77853332D02*
X110987366Y-78653332D01*
X110987366Y-78253332D02*
X109587366Y-78253332D01*
X109587366Y-78253332D02*
X109787366Y-78386665D01*
X109787366Y-78386665D02*
X109920700Y-78519999D01*
X109920700Y-78519999D02*
X109987366Y-78653332D01*
X98859580Y-123916666D02*
X98907200Y-123964285D01*
X98907200Y-123964285D02*
X98954819Y-124107142D01*
X98954819Y-124107142D02*
X98954819Y-124202380D01*
X98954819Y-124202380D02*
X98907200Y-124345237D01*
X98907200Y-124345237D02*
X98811961Y-124440475D01*
X98811961Y-124440475D02*
X98716723Y-124488094D01*
X98716723Y-124488094D02*
X98526247Y-124535713D01*
X98526247Y-124535713D02*
X98383390Y-124535713D01*
X98383390Y-124535713D02*
X98192914Y-124488094D01*
X98192914Y-124488094D02*
X98097676Y-124440475D01*
X98097676Y-124440475D02*
X98002438Y-124345237D01*
X98002438Y-124345237D02*
X97954819Y-124202380D01*
X97954819Y-124202380D02*
X97954819Y-124107142D01*
X97954819Y-124107142D02*
X98002438Y-123964285D01*
X98002438Y-123964285D02*
X98050057Y-123916666D01*
X97954819Y-123583332D02*
X97954819Y-122964285D01*
X97954819Y-122964285D02*
X98335771Y-123297618D01*
X98335771Y-123297618D02*
X98335771Y-123154761D01*
X98335771Y-123154761D02*
X98383390Y-123059523D01*
X98383390Y-123059523D02*
X98431009Y-123011904D01*
X98431009Y-123011904D02*
X98526247Y-122964285D01*
X98526247Y-122964285D02*
X98764342Y-122964285D01*
X98764342Y-122964285D02*
X98859580Y-123011904D01*
X98859580Y-123011904D02*
X98907200Y-123059523D01*
X98907200Y-123059523D02*
X98954819Y-123154761D01*
X98954819Y-123154761D02*
X98954819Y-123440475D01*
X98954819Y-123440475D02*
X98907200Y-123535713D01*
X98907200Y-123535713D02*
X98859580Y-123583332D01*
X110488095Y-113014819D02*
X110488095Y-113824342D01*
X110488095Y-113824342D02*
X110535714Y-113919580D01*
X110535714Y-113919580D02*
X110583333Y-113967200D01*
X110583333Y-113967200D02*
X110678571Y-114014819D01*
X110678571Y-114014819D02*
X110869047Y-114014819D01*
X110869047Y-114014819D02*
X110964285Y-113967200D01*
X110964285Y-113967200D02*
X111011904Y-113919580D01*
X111011904Y-113919580D02*
X111059523Y-113824342D01*
X111059523Y-113824342D02*
X111059523Y-113014819D01*
X112059523Y-114014819D02*
X111488095Y-114014819D01*
X111773809Y-114014819D02*
X111773809Y-113014819D01*
X111773809Y-113014819D02*
X111678571Y-113157676D01*
X111678571Y-113157676D02*
X111583333Y-113252914D01*
X111583333Y-113252914D02*
X111488095Y-113300533D01*
X119454819Y-113238094D02*
X118454819Y-113238094D01*
X118454819Y-113238094D02*
X118454819Y-112999999D01*
X118454819Y-112999999D02*
X118502438Y-112857142D01*
X118502438Y-112857142D02*
X118597676Y-112761904D01*
X118597676Y-112761904D02*
X118692914Y-112714285D01*
X118692914Y-112714285D02*
X118883390Y-112666666D01*
X118883390Y-112666666D02*
X119026247Y-112666666D01*
X119026247Y-112666666D02*
X119216723Y-112714285D01*
X119216723Y-112714285D02*
X119311961Y-112761904D01*
X119311961Y-112761904D02*
X119407200Y-112857142D01*
X119407200Y-112857142D02*
X119454819Y-112999999D01*
X119454819Y-112999999D02*
X119454819Y-113238094D01*
X119454819Y-111714285D02*
X119454819Y-112285713D01*
X119454819Y-111999999D02*
X118454819Y-111999999D01*
X118454819Y-111999999D02*
X118597676Y-112095237D01*
X118597676Y-112095237D02*
X118692914Y-112190475D01*
X118692914Y-112190475D02*
X118740533Y-112285713D01*
X121354819Y-110451904D02*
X120354819Y-110451904D01*
X121354819Y-109880476D02*
X120783390Y-110309047D01*
X120354819Y-109880476D02*
X120926247Y-110451904D01*
X100454819Y-116497744D02*
X99978628Y-116831077D01*
X100454819Y-117069172D02*
X99454819Y-117069172D01*
X99454819Y-117069172D02*
X99454819Y-116688220D01*
X99454819Y-116688220D02*
X99502438Y-116592982D01*
X99502438Y-116592982D02*
X99550057Y-116545363D01*
X99550057Y-116545363D02*
X99645295Y-116497744D01*
X99645295Y-116497744D02*
X99788152Y-116497744D01*
X99788152Y-116497744D02*
X99883390Y-116545363D01*
X99883390Y-116545363D02*
X99931009Y-116592982D01*
X99931009Y-116592982D02*
X99978628Y-116688220D01*
X99978628Y-116688220D02*
X99978628Y-117069172D01*
X100454819Y-115545363D02*
X100454819Y-116116791D01*
X100454819Y-115831077D02*
X99454819Y-115831077D01*
X99454819Y-115831077D02*
X99597676Y-115926315D01*
X99597676Y-115926315D02*
X99692914Y-116021553D01*
X99692914Y-116021553D02*
X99740533Y-116116791D01*
X100454819Y-114592982D02*
X100454819Y-115164410D01*
X100454819Y-114878696D02*
X99454819Y-114878696D01*
X99454819Y-114878696D02*
X99597676Y-114973934D01*
X99597676Y-114973934D02*
X99692914Y-115069172D01*
X99692914Y-115069172D02*
X99740533Y-115164410D01*
X103583333Y-128954819D02*
X103250000Y-128478628D01*
X103011905Y-128954819D02*
X103011905Y-127954819D01*
X103011905Y-127954819D02*
X103392857Y-127954819D01*
X103392857Y-127954819D02*
X103488095Y-128002438D01*
X103488095Y-128002438D02*
X103535714Y-128050057D01*
X103535714Y-128050057D02*
X103583333Y-128145295D01*
X103583333Y-128145295D02*
X103583333Y-128288152D01*
X103583333Y-128288152D02*
X103535714Y-128383390D01*
X103535714Y-128383390D02*
X103488095Y-128431009D01*
X103488095Y-128431009D02*
X103392857Y-128478628D01*
X103392857Y-128478628D02*
X103011905Y-128478628D01*
X104154762Y-128383390D02*
X104059524Y-128335771D01*
X104059524Y-128335771D02*
X104011905Y-128288152D01*
X104011905Y-128288152D02*
X103964286Y-128192914D01*
X103964286Y-128192914D02*
X103964286Y-128145295D01*
X103964286Y-128145295D02*
X104011905Y-128050057D01*
X104011905Y-128050057D02*
X104059524Y-128002438D01*
X104059524Y-128002438D02*
X104154762Y-127954819D01*
X104154762Y-127954819D02*
X104345238Y-127954819D01*
X104345238Y-127954819D02*
X104440476Y-128002438D01*
X104440476Y-128002438D02*
X104488095Y-128050057D01*
X104488095Y-128050057D02*
X104535714Y-128145295D01*
X104535714Y-128145295D02*
X104535714Y-128192914D01*
X104535714Y-128192914D02*
X104488095Y-128288152D01*
X104488095Y-128288152D02*
X104440476Y-128335771D01*
X104440476Y-128335771D02*
X104345238Y-128383390D01*
X104345238Y-128383390D02*
X104154762Y-128383390D01*
X104154762Y-128383390D02*
X104059524Y-128431009D01*
X104059524Y-128431009D02*
X104011905Y-128478628D01*
X104011905Y-128478628D02*
X103964286Y-128573866D01*
X103964286Y-128573866D02*
X103964286Y-128764342D01*
X103964286Y-128764342D02*
X104011905Y-128859580D01*
X104011905Y-128859580D02*
X104059524Y-128907200D01*
X104059524Y-128907200D02*
X104154762Y-128954819D01*
X104154762Y-128954819D02*
X104345238Y-128954819D01*
X104345238Y-128954819D02*
X104440476Y-128907200D01*
X104440476Y-128907200D02*
X104488095Y-128859580D01*
X104488095Y-128859580D02*
X104535714Y-128764342D01*
X104535714Y-128764342D02*
X104535714Y-128573866D01*
X104535714Y-128573866D02*
X104488095Y-128478628D01*
X104488095Y-128478628D02*
X104440476Y-128431009D01*
X104440476Y-128431009D02*
X104345238Y-128383390D01*
X114857142Y-102064580D02*
X114809523Y-102112200D01*
X114809523Y-102112200D02*
X114666666Y-102159819D01*
X114666666Y-102159819D02*
X114571428Y-102159819D01*
X114571428Y-102159819D02*
X114428571Y-102112200D01*
X114428571Y-102112200D02*
X114333333Y-102016961D01*
X114333333Y-102016961D02*
X114285714Y-101921723D01*
X114285714Y-101921723D02*
X114238095Y-101731247D01*
X114238095Y-101731247D02*
X114238095Y-101588390D01*
X114238095Y-101588390D02*
X114285714Y-101397914D01*
X114285714Y-101397914D02*
X114333333Y-101302676D01*
X114333333Y-101302676D02*
X114428571Y-101207438D01*
X114428571Y-101207438D02*
X114571428Y-101159819D01*
X114571428Y-101159819D02*
X114666666Y-101159819D01*
X114666666Y-101159819D02*
X114809523Y-101207438D01*
X114809523Y-101207438D02*
X114857142Y-101255057D01*
X115809523Y-102159819D02*
X115238095Y-102159819D01*
X115523809Y-102159819D02*
X115523809Y-101159819D01*
X115523809Y-101159819D02*
X115428571Y-101302676D01*
X115428571Y-101302676D02*
X115333333Y-101397914D01*
X115333333Y-101397914D02*
X115238095Y-101445533D01*
X116714285Y-101159819D02*
X116238095Y-101159819D01*
X116238095Y-101159819D02*
X116190476Y-101636009D01*
X116190476Y-101636009D02*
X116238095Y-101588390D01*
X116238095Y-101588390D02*
X116333333Y-101540771D01*
X116333333Y-101540771D02*
X116571428Y-101540771D01*
X116571428Y-101540771D02*
X116666666Y-101588390D01*
X116666666Y-101588390D02*
X116714285Y-101636009D01*
X116714285Y-101636009D02*
X116761904Y-101731247D01*
X116761904Y-101731247D02*
X116761904Y-101969342D01*
X116761904Y-101969342D02*
X116714285Y-102064580D01*
X116714285Y-102064580D02*
X116666666Y-102112200D01*
X116666666Y-102112200D02*
X116571428Y-102159819D01*
X116571428Y-102159819D02*
X116333333Y-102159819D01*
X116333333Y-102159819D02*
X116238095Y-102112200D01*
X116238095Y-102112200D02*
X116190476Y-102064580D01*
X122954819Y-113488094D02*
X121954819Y-113488094D01*
X121954819Y-113488094D02*
X121954819Y-113249999D01*
X121954819Y-113249999D02*
X122002438Y-113107142D01*
X122002438Y-113107142D02*
X122097676Y-113011904D01*
X122097676Y-113011904D02*
X122192914Y-112964285D01*
X122192914Y-112964285D02*
X122383390Y-112916666D01*
X122383390Y-112916666D02*
X122526247Y-112916666D01*
X122526247Y-112916666D02*
X122716723Y-112964285D01*
X122716723Y-112964285D02*
X122811961Y-113011904D01*
X122811961Y-113011904D02*
X122907200Y-113107142D01*
X122907200Y-113107142D02*
X122954819Y-113249999D01*
X122954819Y-113249999D02*
X122954819Y-113488094D01*
X122050057Y-112535713D02*
X122002438Y-112488094D01*
X122002438Y-112488094D02*
X121954819Y-112392856D01*
X121954819Y-112392856D02*
X121954819Y-112154761D01*
X121954819Y-112154761D02*
X122002438Y-112059523D01*
X122002438Y-112059523D02*
X122050057Y-112011904D01*
X122050057Y-112011904D02*
X122145295Y-111964285D01*
X122145295Y-111964285D02*
X122240533Y-111964285D01*
X122240533Y-111964285D02*
X122383390Y-112011904D01*
X122383390Y-112011904D02*
X122954819Y-112583332D01*
X122954819Y-112583332D02*
X122954819Y-111964285D01*
X124854819Y-110451904D02*
X123854819Y-110451904D01*
X124854819Y-109880476D02*
X124283390Y-110309047D01*
X123854819Y-109880476D02*
X124426247Y-110451904D01*
X121833333Y-105454819D02*
X121500000Y-104978628D01*
X121261905Y-105454819D02*
X121261905Y-104454819D01*
X121261905Y-104454819D02*
X121642857Y-104454819D01*
X121642857Y-104454819D02*
X121738095Y-104502438D01*
X121738095Y-104502438D02*
X121785714Y-104550057D01*
X121785714Y-104550057D02*
X121833333Y-104645295D01*
X121833333Y-104645295D02*
X121833333Y-104788152D01*
X121833333Y-104788152D02*
X121785714Y-104883390D01*
X121785714Y-104883390D02*
X121738095Y-104931009D01*
X121738095Y-104931009D02*
X121642857Y-104978628D01*
X121642857Y-104978628D02*
X121261905Y-104978628D01*
X122166667Y-104454819D02*
X122785714Y-104454819D01*
X122785714Y-104454819D02*
X122452381Y-104835771D01*
X122452381Y-104835771D02*
X122595238Y-104835771D01*
X122595238Y-104835771D02*
X122690476Y-104883390D01*
X122690476Y-104883390D02*
X122738095Y-104931009D01*
X122738095Y-104931009D02*
X122785714Y-105026247D01*
X122785714Y-105026247D02*
X122785714Y-105264342D01*
X122785714Y-105264342D02*
X122738095Y-105359580D01*
X122738095Y-105359580D02*
X122690476Y-105407200D01*
X122690476Y-105407200D02*
X122595238Y-105454819D01*
X122595238Y-105454819D02*
X122309524Y-105454819D01*
X122309524Y-105454819D02*
X122214286Y-105407200D01*
X122214286Y-105407200D02*
X122166667Y-105359580D01*
X117929580Y-128642857D02*
X117977200Y-128690476D01*
X117977200Y-128690476D02*
X118024819Y-128833333D01*
X118024819Y-128833333D02*
X118024819Y-128928571D01*
X118024819Y-128928571D02*
X117977200Y-129071428D01*
X117977200Y-129071428D02*
X117881961Y-129166666D01*
X117881961Y-129166666D02*
X117786723Y-129214285D01*
X117786723Y-129214285D02*
X117596247Y-129261904D01*
X117596247Y-129261904D02*
X117453390Y-129261904D01*
X117453390Y-129261904D02*
X117262914Y-129214285D01*
X117262914Y-129214285D02*
X117167676Y-129166666D01*
X117167676Y-129166666D02*
X117072438Y-129071428D01*
X117072438Y-129071428D02*
X117024819Y-128928571D01*
X117024819Y-128928571D02*
X117024819Y-128833333D01*
X117024819Y-128833333D02*
X117072438Y-128690476D01*
X117072438Y-128690476D02*
X117120057Y-128642857D01*
X118024819Y-127690476D02*
X118024819Y-128261904D01*
X118024819Y-127976190D02*
X117024819Y-127976190D01*
X117024819Y-127976190D02*
X117167676Y-128071428D01*
X117167676Y-128071428D02*
X117262914Y-128166666D01*
X117262914Y-128166666D02*
X117310533Y-128261904D01*
X117024819Y-127357142D02*
X117024819Y-126738095D01*
X117024819Y-126738095D02*
X117405771Y-127071428D01*
X117405771Y-127071428D02*
X117405771Y-126928571D01*
X117405771Y-126928571D02*
X117453390Y-126833333D01*
X117453390Y-126833333D02*
X117501009Y-126785714D01*
X117501009Y-126785714D02*
X117596247Y-126738095D01*
X117596247Y-126738095D02*
X117834342Y-126738095D01*
X117834342Y-126738095D02*
X117929580Y-126785714D01*
X117929580Y-126785714D02*
X117977200Y-126833333D01*
X117977200Y-126833333D02*
X118024819Y-126928571D01*
X118024819Y-126928571D02*
X118024819Y-127214285D01*
X118024819Y-127214285D02*
X117977200Y-127309523D01*
X117977200Y-127309523D02*
X117929580Y-127357142D01*
X109158095Y-82479819D02*
X109158095Y-83289342D01*
X109158095Y-83289342D02*
X109205714Y-83384580D01*
X109205714Y-83384580D02*
X109253333Y-83432200D01*
X109253333Y-83432200D02*
X109348571Y-83479819D01*
X109348571Y-83479819D02*
X109539047Y-83479819D01*
X109539047Y-83479819D02*
X109634285Y-83432200D01*
X109634285Y-83432200D02*
X109681904Y-83384580D01*
X109681904Y-83384580D02*
X109729523Y-83289342D01*
X109729523Y-83289342D02*
X109729523Y-82479819D01*
X110634285Y-82813152D02*
X110634285Y-83479819D01*
X110396190Y-82432200D02*
X110158095Y-83146485D01*
X110158095Y-83146485D02*
X110777142Y-83146485D01*
X113564819Y-125506904D02*
X114374342Y-125506904D01*
X114374342Y-125506904D02*
X114469580Y-125459285D01*
X114469580Y-125459285D02*
X114517200Y-125411666D01*
X114517200Y-125411666D02*
X114564819Y-125316428D01*
X114564819Y-125316428D02*
X114564819Y-125125952D01*
X114564819Y-125125952D02*
X114517200Y-125030714D01*
X114517200Y-125030714D02*
X114469580Y-124983095D01*
X114469580Y-124983095D02*
X114374342Y-124935476D01*
X114374342Y-124935476D02*
X113564819Y-124935476D01*
X113660057Y-124506904D02*
X113612438Y-124459285D01*
X113612438Y-124459285D02*
X113564819Y-124364047D01*
X113564819Y-124364047D02*
X113564819Y-124125952D01*
X113564819Y-124125952D02*
X113612438Y-124030714D01*
X113612438Y-124030714D02*
X113660057Y-123983095D01*
X113660057Y-123983095D02*
X113755295Y-123935476D01*
X113755295Y-123935476D02*
X113850533Y-123935476D01*
X113850533Y-123935476D02*
X113993390Y-123983095D01*
X113993390Y-123983095D02*
X114564819Y-124554523D01*
X114564819Y-124554523D02*
X114564819Y-123935476D01*
X130954819Y-114333333D02*
X131669104Y-114333333D01*
X131669104Y-114333333D02*
X131811961Y-114380952D01*
X131811961Y-114380952D02*
X131907200Y-114476190D01*
X131907200Y-114476190D02*
X131954819Y-114619047D01*
X131954819Y-114619047D02*
X131954819Y-114714285D01*
X131954819Y-113333333D02*
X131954819Y-113904761D01*
X131954819Y-113619047D02*
X130954819Y-113619047D01*
X130954819Y-113619047D02*
X131097676Y-113714285D01*
X131097676Y-113714285D02*
X131192914Y-113809523D01*
X131192914Y-113809523D02*
X131240533Y-113904761D01*
X113429580Y-92642857D02*
X113477200Y-92690476D01*
X113477200Y-92690476D02*
X113524819Y-92833333D01*
X113524819Y-92833333D02*
X113524819Y-92928571D01*
X113524819Y-92928571D02*
X113477200Y-93071428D01*
X113477200Y-93071428D02*
X113381961Y-93166666D01*
X113381961Y-93166666D02*
X113286723Y-93214285D01*
X113286723Y-93214285D02*
X113096247Y-93261904D01*
X113096247Y-93261904D02*
X112953390Y-93261904D01*
X112953390Y-93261904D02*
X112762914Y-93214285D01*
X112762914Y-93214285D02*
X112667676Y-93166666D01*
X112667676Y-93166666D02*
X112572438Y-93071428D01*
X112572438Y-93071428D02*
X112524819Y-92928571D01*
X112524819Y-92928571D02*
X112524819Y-92833333D01*
X112524819Y-92833333D02*
X112572438Y-92690476D01*
X112572438Y-92690476D02*
X112620057Y-92642857D01*
X113524819Y-91690476D02*
X113524819Y-92261904D01*
X113524819Y-91976190D02*
X112524819Y-91976190D01*
X112524819Y-91976190D02*
X112667676Y-92071428D01*
X112667676Y-92071428D02*
X112762914Y-92166666D01*
X112762914Y-92166666D02*
X112810533Y-92261904D01*
X112858152Y-90833333D02*
X113524819Y-90833333D01*
X112477200Y-91071428D02*
X113191485Y-91309523D01*
X113191485Y-91309523D02*
X113191485Y-90690476D01*
X125954819Y-114666666D02*
X125478628Y-114999999D01*
X125954819Y-115238094D02*
X124954819Y-115238094D01*
X124954819Y-115238094D02*
X124954819Y-114857142D01*
X124954819Y-114857142D02*
X125002438Y-114761904D01*
X125002438Y-114761904D02*
X125050057Y-114714285D01*
X125050057Y-114714285D02*
X125145295Y-114666666D01*
X125145295Y-114666666D02*
X125288152Y-114666666D01*
X125288152Y-114666666D02*
X125383390Y-114714285D01*
X125383390Y-114714285D02*
X125431009Y-114761904D01*
X125431009Y-114761904D02*
X125478628Y-114857142D01*
X125478628Y-114857142D02*
X125478628Y-115238094D01*
X125954819Y-113714285D02*
X125954819Y-114285713D01*
X125954819Y-113999999D02*
X124954819Y-113999999D01*
X124954819Y-113999999D02*
X125097676Y-114095237D01*
X125097676Y-114095237D02*
X125192914Y-114190475D01*
X125192914Y-114190475D02*
X125240533Y-114285713D01*
X103333333Y-125204819D02*
X103000000Y-124728628D01*
X102761905Y-125204819D02*
X102761905Y-124204819D01*
X102761905Y-124204819D02*
X103142857Y-124204819D01*
X103142857Y-124204819D02*
X103238095Y-124252438D01*
X103238095Y-124252438D02*
X103285714Y-124300057D01*
X103285714Y-124300057D02*
X103333333Y-124395295D01*
X103333333Y-124395295D02*
X103333333Y-124538152D01*
X103333333Y-124538152D02*
X103285714Y-124633390D01*
X103285714Y-124633390D02*
X103238095Y-124681009D01*
X103238095Y-124681009D02*
X103142857Y-124728628D01*
X103142857Y-124728628D02*
X102761905Y-124728628D01*
X104190476Y-124538152D02*
X104190476Y-125204819D01*
X103952381Y-124157200D02*
X103714286Y-124871485D01*
X103714286Y-124871485D02*
X104333333Y-124871485D01*
X103333333Y-123704819D02*
X103000000Y-123228628D01*
X102761905Y-123704819D02*
X102761905Y-122704819D01*
X102761905Y-122704819D02*
X103142857Y-122704819D01*
X103142857Y-122704819D02*
X103238095Y-122752438D01*
X103238095Y-122752438D02*
X103285714Y-122800057D01*
X103285714Y-122800057D02*
X103333333Y-122895295D01*
X103333333Y-122895295D02*
X103333333Y-123038152D01*
X103333333Y-123038152D02*
X103285714Y-123133390D01*
X103285714Y-123133390D02*
X103238095Y-123181009D01*
X103238095Y-123181009D02*
X103142857Y-123228628D01*
X103142857Y-123228628D02*
X102761905Y-123228628D01*
X104190476Y-122704819D02*
X104000000Y-122704819D01*
X104000000Y-122704819D02*
X103904762Y-122752438D01*
X103904762Y-122752438D02*
X103857143Y-122800057D01*
X103857143Y-122800057D02*
X103761905Y-122942914D01*
X103761905Y-122942914D02*
X103714286Y-123133390D01*
X103714286Y-123133390D02*
X103714286Y-123514342D01*
X103714286Y-123514342D02*
X103761905Y-123609580D01*
X103761905Y-123609580D02*
X103809524Y-123657200D01*
X103809524Y-123657200D02*
X103904762Y-123704819D01*
X103904762Y-123704819D02*
X104095238Y-123704819D01*
X104095238Y-123704819D02*
X104190476Y-123657200D01*
X104190476Y-123657200D02*
X104238095Y-123609580D01*
X104238095Y-123609580D02*
X104285714Y-123514342D01*
X104285714Y-123514342D02*
X104285714Y-123276247D01*
X104285714Y-123276247D02*
X104238095Y-123181009D01*
X104238095Y-123181009D02*
X104190476Y-123133390D01*
X104190476Y-123133390D02*
X104095238Y-123085771D01*
X104095238Y-123085771D02*
X103904762Y-123085771D01*
X103904762Y-123085771D02*
X103809524Y-123133390D01*
X103809524Y-123133390D02*
X103761905Y-123181009D01*
X103761905Y-123181009D02*
X103714286Y-123276247D01*
X78357142Y-110124819D02*
X78023809Y-109648628D01*
X77785714Y-110124819D02*
X77785714Y-109124819D01*
X77785714Y-109124819D02*
X78166666Y-109124819D01*
X78166666Y-109124819D02*
X78261904Y-109172438D01*
X78261904Y-109172438D02*
X78309523Y-109220057D01*
X78309523Y-109220057D02*
X78357142Y-109315295D01*
X78357142Y-109315295D02*
X78357142Y-109458152D01*
X78357142Y-109458152D02*
X78309523Y-109553390D01*
X78309523Y-109553390D02*
X78261904Y-109601009D01*
X78261904Y-109601009D02*
X78166666Y-109648628D01*
X78166666Y-109648628D02*
X77785714Y-109648628D01*
X79309523Y-110124819D02*
X78738095Y-110124819D01*
X79023809Y-110124819D02*
X79023809Y-109124819D01*
X79023809Y-109124819D02*
X78928571Y-109267676D01*
X78928571Y-109267676D02*
X78833333Y-109362914D01*
X78833333Y-109362914D02*
X78738095Y-109410533D01*
X79642857Y-109124819D02*
X80261904Y-109124819D01*
X80261904Y-109124819D02*
X79928571Y-109505771D01*
X79928571Y-109505771D02*
X80071428Y-109505771D01*
X80071428Y-109505771D02*
X80166666Y-109553390D01*
X80166666Y-109553390D02*
X80214285Y-109601009D01*
X80214285Y-109601009D02*
X80261904Y-109696247D01*
X80261904Y-109696247D02*
X80261904Y-109934342D01*
X80261904Y-109934342D02*
X80214285Y-110029580D01*
X80214285Y-110029580D02*
X80166666Y-110077200D01*
X80166666Y-110077200D02*
X80071428Y-110124819D01*
X80071428Y-110124819D02*
X79785714Y-110124819D01*
X79785714Y-110124819D02*
X79690476Y-110077200D01*
X79690476Y-110077200D02*
X79642857Y-110029580D01*
X101134580Y-98037857D02*
X101182200Y-98085476D01*
X101182200Y-98085476D02*
X101229819Y-98228333D01*
X101229819Y-98228333D02*
X101229819Y-98323571D01*
X101229819Y-98323571D02*
X101182200Y-98466428D01*
X101182200Y-98466428D02*
X101086961Y-98561666D01*
X101086961Y-98561666D02*
X100991723Y-98609285D01*
X100991723Y-98609285D02*
X100801247Y-98656904D01*
X100801247Y-98656904D02*
X100658390Y-98656904D01*
X100658390Y-98656904D02*
X100467914Y-98609285D01*
X100467914Y-98609285D02*
X100372676Y-98561666D01*
X100372676Y-98561666D02*
X100277438Y-98466428D01*
X100277438Y-98466428D02*
X100229819Y-98323571D01*
X100229819Y-98323571D02*
X100229819Y-98228333D01*
X100229819Y-98228333D02*
X100277438Y-98085476D01*
X100277438Y-98085476D02*
X100325057Y-98037857D01*
X101229819Y-97085476D02*
X101229819Y-97656904D01*
X101229819Y-97371190D02*
X100229819Y-97371190D01*
X100229819Y-97371190D02*
X100372676Y-97466428D01*
X100372676Y-97466428D02*
X100467914Y-97561666D01*
X100467914Y-97561666D02*
X100515533Y-97656904D01*
X101229819Y-96133095D02*
X101229819Y-96704523D01*
X101229819Y-96418809D02*
X100229819Y-96418809D01*
X100229819Y-96418809D02*
X100372676Y-96514047D01*
X100372676Y-96514047D02*
X100467914Y-96609285D01*
X100467914Y-96609285D02*
X100515533Y-96704523D01*
X116857142Y-109064580D02*
X116809523Y-109112200D01*
X116809523Y-109112200D02*
X116666666Y-109159819D01*
X116666666Y-109159819D02*
X116571428Y-109159819D01*
X116571428Y-109159819D02*
X116428571Y-109112200D01*
X116428571Y-109112200D02*
X116333333Y-109016961D01*
X116333333Y-109016961D02*
X116285714Y-108921723D01*
X116285714Y-108921723D02*
X116238095Y-108731247D01*
X116238095Y-108731247D02*
X116238095Y-108588390D01*
X116238095Y-108588390D02*
X116285714Y-108397914D01*
X116285714Y-108397914D02*
X116333333Y-108302676D01*
X116333333Y-108302676D02*
X116428571Y-108207438D01*
X116428571Y-108207438D02*
X116571428Y-108159819D01*
X116571428Y-108159819D02*
X116666666Y-108159819D01*
X116666666Y-108159819D02*
X116809523Y-108207438D01*
X116809523Y-108207438D02*
X116857142Y-108255057D01*
X117809523Y-109159819D02*
X117238095Y-109159819D01*
X117523809Y-109159819D02*
X117523809Y-108159819D01*
X117523809Y-108159819D02*
X117428571Y-108302676D01*
X117428571Y-108302676D02*
X117333333Y-108397914D01*
X117333333Y-108397914D02*
X117238095Y-108445533D01*
X118190476Y-108255057D02*
X118238095Y-108207438D01*
X118238095Y-108207438D02*
X118333333Y-108159819D01*
X118333333Y-108159819D02*
X118571428Y-108159819D01*
X118571428Y-108159819D02*
X118666666Y-108207438D01*
X118666666Y-108207438D02*
X118714285Y-108255057D01*
X118714285Y-108255057D02*
X118761904Y-108350295D01*
X118761904Y-108350295D02*
X118761904Y-108445533D01*
X118761904Y-108445533D02*
X118714285Y-108588390D01*
X118714285Y-108588390D02*
X118142857Y-109159819D01*
X118142857Y-109159819D02*
X118761904Y-109159819D01*
X102954819Y-115961553D02*
X102478628Y-116294886D01*
X102954819Y-116532981D02*
X101954819Y-116532981D01*
X101954819Y-116532981D02*
X101954819Y-116152029D01*
X101954819Y-116152029D02*
X102002438Y-116056791D01*
X102002438Y-116056791D02*
X102050057Y-116009172D01*
X102050057Y-116009172D02*
X102145295Y-115961553D01*
X102145295Y-115961553D02*
X102288152Y-115961553D01*
X102288152Y-115961553D02*
X102383390Y-116009172D01*
X102383390Y-116009172D02*
X102431009Y-116056791D01*
X102431009Y-116056791D02*
X102478628Y-116152029D01*
X102478628Y-116152029D02*
X102478628Y-116532981D01*
X101954819Y-115056791D02*
X101954819Y-115532981D01*
X101954819Y-115532981D02*
X102431009Y-115580600D01*
X102431009Y-115580600D02*
X102383390Y-115532981D01*
X102383390Y-115532981D02*
X102335771Y-115437743D01*
X102335771Y-115437743D02*
X102335771Y-115199648D01*
X102335771Y-115199648D02*
X102383390Y-115104410D01*
X102383390Y-115104410D02*
X102431009Y-115056791D01*
X102431009Y-115056791D02*
X102526247Y-115009172D01*
X102526247Y-115009172D02*
X102764342Y-115009172D01*
X102764342Y-115009172D02*
X102859580Y-115056791D01*
X102859580Y-115056791D02*
X102907200Y-115104410D01*
X102907200Y-115104410D02*
X102954819Y-115199648D01*
X102954819Y-115199648D02*
X102954819Y-115437743D01*
X102954819Y-115437743D02*
X102907200Y-115532981D01*
X102907200Y-115532981D02*
X102859580Y-115580600D01*
X99609580Y-127371779D02*
X99657200Y-127419398D01*
X99657200Y-127419398D02*
X99704819Y-127562255D01*
X99704819Y-127562255D02*
X99704819Y-127657493D01*
X99704819Y-127657493D02*
X99657200Y-127800350D01*
X99657200Y-127800350D02*
X99561961Y-127895588D01*
X99561961Y-127895588D02*
X99466723Y-127943207D01*
X99466723Y-127943207D02*
X99276247Y-127990826D01*
X99276247Y-127990826D02*
X99133390Y-127990826D01*
X99133390Y-127990826D02*
X98942914Y-127943207D01*
X98942914Y-127943207D02*
X98847676Y-127895588D01*
X98847676Y-127895588D02*
X98752438Y-127800350D01*
X98752438Y-127800350D02*
X98704819Y-127657493D01*
X98704819Y-127657493D02*
X98704819Y-127562255D01*
X98704819Y-127562255D02*
X98752438Y-127419398D01*
X98752438Y-127419398D02*
X98800057Y-127371779D01*
X98800057Y-126990826D02*
X98752438Y-126943207D01*
X98752438Y-126943207D02*
X98704819Y-126847969D01*
X98704819Y-126847969D02*
X98704819Y-126609874D01*
X98704819Y-126609874D02*
X98752438Y-126514636D01*
X98752438Y-126514636D02*
X98800057Y-126467017D01*
X98800057Y-126467017D02*
X98895295Y-126419398D01*
X98895295Y-126419398D02*
X98990533Y-126419398D01*
X98990533Y-126419398D02*
X99133390Y-126467017D01*
X99133390Y-126467017D02*
X99704819Y-127038445D01*
X99704819Y-127038445D02*
X99704819Y-126419398D01*
X117833333Y-100109580D02*
X117785714Y-100157200D01*
X117785714Y-100157200D02*
X117642857Y-100204819D01*
X117642857Y-100204819D02*
X117547619Y-100204819D01*
X117547619Y-100204819D02*
X117404762Y-100157200D01*
X117404762Y-100157200D02*
X117309524Y-100061961D01*
X117309524Y-100061961D02*
X117261905Y-99966723D01*
X117261905Y-99966723D02*
X117214286Y-99776247D01*
X117214286Y-99776247D02*
X117214286Y-99633390D01*
X117214286Y-99633390D02*
X117261905Y-99442914D01*
X117261905Y-99442914D02*
X117309524Y-99347676D01*
X117309524Y-99347676D02*
X117404762Y-99252438D01*
X117404762Y-99252438D02*
X117547619Y-99204819D01*
X117547619Y-99204819D02*
X117642857Y-99204819D01*
X117642857Y-99204819D02*
X117785714Y-99252438D01*
X117785714Y-99252438D02*
X117833333Y-99300057D01*
X118690476Y-99538152D02*
X118690476Y-100204819D01*
X118452381Y-99157200D02*
X118214286Y-99871485D01*
X118214286Y-99871485D02*
X118833333Y-99871485D01*
X97609580Y-110666666D02*
X97657200Y-110714285D01*
X97657200Y-110714285D02*
X97704819Y-110857142D01*
X97704819Y-110857142D02*
X97704819Y-110952380D01*
X97704819Y-110952380D02*
X97657200Y-111095237D01*
X97657200Y-111095237D02*
X97561961Y-111190475D01*
X97561961Y-111190475D02*
X97466723Y-111238094D01*
X97466723Y-111238094D02*
X97276247Y-111285713D01*
X97276247Y-111285713D02*
X97133390Y-111285713D01*
X97133390Y-111285713D02*
X96942914Y-111238094D01*
X96942914Y-111238094D02*
X96847676Y-111190475D01*
X96847676Y-111190475D02*
X96752438Y-111095237D01*
X96752438Y-111095237D02*
X96704819Y-110952380D01*
X96704819Y-110952380D02*
X96704819Y-110857142D01*
X96704819Y-110857142D02*
X96752438Y-110714285D01*
X96752438Y-110714285D02*
X96800057Y-110666666D01*
X97704819Y-109714285D02*
X97704819Y-110285713D01*
X97704819Y-109999999D02*
X96704819Y-109999999D01*
X96704819Y-109999999D02*
X96847676Y-110095237D01*
X96847676Y-110095237D02*
X96942914Y-110190475D01*
X96942914Y-110190475D02*
X96990533Y-110285713D01*
X114940057Y-120195238D02*
X114892438Y-120290476D01*
X114892438Y-120290476D02*
X114797200Y-120385714D01*
X114797200Y-120385714D02*
X114654342Y-120528571D01*
X114654342Y-120528571D02*
X114606723Y-120623809D01*
X114606723Y-120623809D02*
X114606723Y-120719047D01*
X114844819Y-120671428D02*
X114797200Y-120766666D01*
X114797200Y-120766666D02*
X114701961Y-120861904D01*
X114701961Y-120861904D02*
X114511485Y-120909523D01*
X114511485Y-120909523D02*
X114178152Y-120909523D01*
X114178152Y-120909523D02*
X113987676Y-120861904D01*
X113987676Y-120861904D02*
X113892438Y-120766666D01*
X113892438Y-120766666D02*
X113844819Y-120671428D01*
X113844819Y-120671428D02*
X113844819Y-120480952D01*
X113844819Y-120480952D02*
X113892438Y-120385714D01*
X113892438Y-120385714D02*
X113987676Y-120290476D01*
X113987676Y-120290476D02*
X114178152Y-120242857D01*
X114178152Y-120242857D02*
X114511485Y-120242857D01*
X114511485Y-120242857D02*
X114701961Y-120290476D01*
X114701961Y-120290476D02*
X114797200Y-120385714D01*
X114797200Y-120385714D02*
X114844819Y-120480952D01*
X114844819Y-120480952D02*
X114844819Y-120671428D01*
X114844819Y-119290476D02*
X114844819Y-119861904D01*
X114844819Y-119576190D02*
X113844819Y-119576190D01*
X113844819Y-119576190D02*
X113987676Y-119671428D01*
X113987676Y-119671428D02*
X114082914Y-119766666D01*
X114082914Y-119766666D02*
X114130533Y-119861904D01*
D12*
%TO.C,R10*%
X107130000Y-124750000D02*
X108080000Y-124750000D01*
X112870000Y-124750000D02*
X111920000Y-124750000D01*
X111920000Y-125670000D02*
X108080000Y-125670000D01*
X108080000Y-123830000D01*
X111920000Y-123830000D01*
X111920000Y-125670000D01*
%TO.C,X1*%
X116240000Y-92640000D02*
X116240000Y-97860000D01*
X116240000Y-97860000D02*
X128960000Y-97860000D01*
X128960000Y-92640000D02*
X116240000Y-92640000D01*
%TO.C,R2*%
X119070000Y-107500000D02*
X120020000Y-107500000D01*
X124810000Y-107500000D02*
X123860000Y-107500000D01*
X120020000Y-106580000D02*
X123860000Y-106580000D01*
X123860000Y-108420000D01*
X120020000Y-108420000D01*
X120020000Y-106580000D01*
%TO.C,R7*%
X107130000Y-122500000D02*
X108080000Y-122500000D01*
X112870000Y-122500000D02*
X111920000Y-122500000D01*
X108080000Y-121580000D02*
X111920000Y-121580000D01*
X111920000Y-123420000D01*
X108080000Y-123420000D01*
X108080000Y-121580000D01*
%TO.C,U3*%
X102365000Y-94390000D02*
X102610000Y-94390000D01*
X102365000Y-98250000D02*
X102365000Y-94390000D01*
X102365000Y-98250000D02*
X102365000Y-102110000D01*
X102365000Y-102110000D02*
X102610000Y-102110000D01*
X114135000Y-94390000D02*
X113890000Y-94390000D01*
X114135000Y-98250000D02*
X114135000Y-94390000D01*
X114135000Y-98250000D02*
X114135000Y-102110000D01*
X114135000Y-102110000D02*
X113890000Y-102110000D01*
X102610000Y-102962500D02*
X102140000Y-103302500D01*
X102140000Y-102622500D01*
X102610000Y-102962500D01*
G36*
X102610000Y-102962500D02*
G01*
X102140000Y-103302500D01*
X102140000Y-102622500D01*
X102610000Y-102962500D01*
G37*
%TO.C,R9*%
X107130000Y-129250000D02*
X108080000Y-129250000D01*
X112870000Y-129250000D02*
X111920000Y-129250000D01*
X108080000Y-128330000D02*
X111920000Y-128330000D01*
X111920000Y-130170000D01*
X108080000Y-130170000D01*
X108080000Y-128330000D01*
D13*
%TO.C,UNIT_1*%
X94957500Y-72610000D02*
X138137500Y-72610000D01*
X94957500Y-90390000D02*
X94957500Y-72610000D01*
X138137500Y-72610000D02*
X138137500Y-90390000D01*
X138137500Y-90390000D02*
X94957500Y-90390000D01*
D14*
X98847500Y-87000000D02*
G75*
G02*
X98647500Y-87000000I-100000J0D01*
G01*
X98647500Y-87000000D02*
G75*
G02*
X98847500Y-87000000I100000J0D01*
G01*
D12*
%TO.C,C3*%
X99670000Y-123710000D02*
X104830000Y-123710000D01*
X99670000Y-123750000D02*
X104830000Y-123750000D01*
X99671000Y-123670000D02*
X104829000Y-123670000D01*
X99673000Y-123630000D02*
X104827000Y-123630000D01*
X99675000Y-123590000D02*
X104825000Y-123590000D01*
X99678000Y-123550000D02*
X104822000Y-123550000D01*
X99681000Y-123510000D02*
X101210000Y-123510000D01*
X99685000Y-123470000D02*
X101210000Y-123470000D01*
X99690000Y-123430000D02*
X101210000Y-123430000D01*
X99695000Y-123390000D02*
X101210000Y-123390000D01*
X99701000Y-123350000D02*
X101210000Y-123350000D01*
X99707000Y-123310000D02*
X101210000Y-123310000D01*
X99714000Y-123270000D02*
X101210000Y-123270000D01*
X99722000Y-123230000D02*
X101210000Y-123230000D01*
X99731000Y-123190000D02*
X101210000Y-123190000D01*
X99740000Y-123150000D02*
X101210000Y-123150000D01*
X99749000Y-123110000D02*
X101210000Y-123110000D01*
X99760000Y-123070000D02*
X101210000Y-123070000D01*
X99771000Y-123030000D02*
X101210000Y-123030000D01*
X99783000Y-122990000D02*
X101210000Y-122990000D01*
X99795000Y-122950000D02*
X101210000Y-122950000D01*
X99808000Y-122910000D02*
X101210000Y-122910000D01*
X99822000Y-122870000D02*
X101210000Y-122870000D01*
X99837000Y-122830000D02*
X101210000Y-122830000D01*
X99852000Y-122790000D02*
X101210000Y-122790000D01*
X99868000Y-122750000D02*
X101210000Y-122750000D01*
X99885000Y-122710000D02*
X101210000Y-122710000D01*
X99903000Y-122670000D02*
X101210000Y-122670000D01*
X99921000Y-122630000D02*
X101210000Y-122630000D01*
X99941000Y-122590000D02*
X101210000Y-122590000D01*
X99961000Y-122550000D02*
X101210000Y-122550000D01*
X99982000Y-122510000D02*
X101210000Y-122510000D01*
X100004000Y-122470000D02*
X101210000Y-122470000D01*
X100027000Y-122430000D02*
X101210000Y-122430000D01*
X100051000Y-122390000D02*
X101210000Y-122390000D01*
X100075000Y-122350000D02*
X101210000Y-122350000D01*
X100101000Y-122310000D02*
X101210000Y-122310000D01*
X100128000Y-122270000D02*
X101210000Y-122270000D01*
X100156000Y-122230000D02*
X101210000Y-122230000D01*
X100185000Y-122190000D02*
X101210000Y-122190000D01*
X100215000Y-122150000D02*
X101210000Y-122150000D01*
X100247000Y-122110000D02*
X101210000Y-122110000D01*
X100280000Y-122070000D02*
X101210000Y-122070000D01*
X100314000Y-122030000D02*
X101210000Y-122030000D01*
X100349000Y-121990000D02*
X101210000Y-121990000D01*
X100386000Y-121950000D02*
X101210000Y-121950000D01*
X100425000Y-121910000D02*
X101210000Y-121910000D01*
X100465000Y-121870000D02*
X101210000Y-121870000D01*
X100507000Y-121830000D02*
X101210000Y-121830000D01*
X100525000Y-126304775D02*
X101025000Y-126304775D01*
X100551000Y-121790000D02*
X101210000Y-121790000D01*
X100598000Y-121750000D02*
X101210000Y-121750000D01*
X100646000Y-121710000D02*
X101210000Y-121710000D01*
X100697000Y-121670000D02*
X101210000Y-121670000D01*
X100751000Y-121630000D02*
X101210000Y-121630000D01*
X100775000Y-126554775D02*
X100775000Y-126054775D01*
X100807000Y-121590000D02*
X101210000Y-121590000D01*
X100867000Y-121550000D02*
X101210000Y-121550000D01*
X100931000Y-121510000D02*
X101210000Y-121510000D01*
X100999000Y-121470000D02*
X101210000Y-121470000D01*
X101073000Y-121430000D02*
X103427000Y-121430000D01*
X101152000Y-121390000D02*
X103348000Y-121390000D01*
X101239000Y-121350000D02*
X103261000Y-121350000D01*
X101336000Y-121310000D02*
X103164000Y-121310000D01*
X101445000Y-121270000D02*
X103055000Y-121270000D01*
X101573000Y-121230000D02*
X102927000Y-121230000D01*
X101733000Y-121190000D02*
X102767000Y-121190000D01*
X101967000Y-121150000D02*
X102533000Y-121150000D01*
X103290000Y-121470000D02*
X103501000Y-121470000D01*
X103290000Y-121510000D02*
X103569000Y-121510000D01*
X103290000Y-121550000D02*
X103633000Y-121550000D01*
X103290000Y-121590000D02*
X103693000Y-121590000D01*
X103290000Y-121630000D02*
X103749000Y-121630000D01*
X103290000Y-121670000D02*
X103803000Y-121670000D01*
X103290000Y-121710000D02*
X103854000Y-121710000D01*
X103290000Y-121750000D02*
X103902000Y-121750000D01*
X103290000Y-121790000D02*
X103949000Y-121790000D01*
X103290000Y-121830000D02*
X103993000Y-121830000D01*
X103290000Y-121870000D02*
X104035000Y-121870000D01*
X103290000Y-121910000D02*
X104075000Y-121910000D01*
X103290000Y-121950000D02*
X104114000Y-121950000D01*
X103290000Y-121990000D02*
X104151000Y-121990000D01*
X103290000Y-122030000D02*
X104186000Y-122030000D01*
X103290000Y-122070000D02*
X104220000Y-122070000D01*
X103290000Y-122110000D02*
X104253000Y-122110000D01*
X103290000Y-122150000D02*
X104285000Y-122150000D01*
X103290000Y-122190000D02*
X104315000Y-122190000D01*
X103290000Y-122230000D02*
X104344000Y-122230000D01*
X103290000Y-122270000D02*
X104372000Y-122270000D01*
X103290000Y-122310000D02*
X104399000Y-122310000D01*
X103290000Y-122350000D02*
X104425000Y-122350000D01*
X103290000Y-122390000D02*
X104449000Y-122390000D01*
X103290000Y-122430000D02*
X104473000Y-122430000D01*
X103290000Y-122470000D02*
X104496000Y-122470000D01*
X103290000Y-122510000D02*
X104518000Y-122510000D01*
X103290000Y-122550000D02*
X104539000Y-122550000D01*
X103290000Y-122590000D02*
X104559000Y-122590000D01*
X103290000Y-122630000D02*
X104579000Y-122630000D01*
X103290000Y-122670000D02*
X104597000Y-122670000D01*
X103290000Y-122710000D02*
X104615000Y-122710000D01*
X103290000Y-122750000D02*
X104632000Y-122750000D01*
X103290000Y-122790000D02*
X104648000Y-122790000D01*
X103290000Y-122830000D02*
X104663000Y-122830000D01*
X103290000Y-122870000D02*
X104678000Y-122870000D01*
X103290000Y-122910000D02*
X104692000Y-122910000D01*
X103290000Y-122950000D02*
X104705000Y-122950000D01*
X103290000Y-122990000D02*
X104717000Y-122990000D01*
X103290000Y-123030000D02*
X104729000Y-123030000D01*
X103290000Y-123070000D02*
X104740000Y-123070000D01*
X103290000Y-123110000D02*
X104751000Y-123110000D01*
X103290000Y-123150000D02*
X104760000Y-123150000D01*
X103290000Y-123190000D02*
X104769000Y-123190000D01*
X103290000Y-123230000D02*
X104778000Y-123230000D01*
X103290000Y-123270000D02*
X104786000Y-123270000D01*
X103290000Y-123310000D02*
X104793000Y-123310000D01*
X103290000Y-123350000D02*
X104799000Y-123350000D01*
X103290000Y-123390000D02*
X104805000Y-123390000D01*
X103290000Y-123430000D02*
X104810000Y-123430000D01*
X103290000Y-123470000D02*
X104815000Y-123470000D01*
X103290000Y-123510000D02*
X104819000Y-123510000D01*
X104870000Y-123750000D02*
G75*
G02*
X99630000Y-123750000I-2620000J0D01*
G01*
X99630000Y-123750000D02*
G75*
G02*
X104870000Y-123750000I2620000J0D01*
G01*
%TO.C,U1*%
X107345000Y-105170000D02*
X107345000Y-115450000D01*
X107345000Y-115450000D02*
X108995000Y-115450000D01*
X110995000Y-115450000D02*
X112645000Y-115450000D01*
X112645000Y-105170000D02*
X107345000Y-105170000D01*
X112645000Y-115450000D02*
X112645000Y-105170000D01*
X108995000Y-115450000D02*
G75*
G02*
X110995000Y-115450000I1000000J0D01*
G01*
%TO.C,D1*%
X117530000Y-111280000D02*
X117530000Y-116720000D01*
X117530000Y-116720000D02*
X117860000Y-116720000D01*
X117860000Y-111280000D02*
X117530000Y-111280000D01*
X120140000Y-111280000D02*
X120470000Y-111280000D01*
X120470000Y-111280000D02*
X120470000Y-116720000D01*
X120470000Y-112060000D02*
X117530000Y-112060000D01*
X120470000Y-112180000D02*
X117530000Y-112180000D01*
X120470000Y-112300000D02*
X117530000Y-112300000D01*
X120470000Y-116720000D02*
X120140000Y-116720000D01*
%TO.C,R11*%
X100000000Y-113234887D02*
X100000000Y-114184887D01*
X100000000Y-118974887D02*
X100000000Y-118024887D01*
X100920000Y-114184887D02*
X99080000Y-114184887D01*
X99080000Y-118024887D01*
X100920000Y-118024887D01*
X100920000Y-114184887D01*
%TO.C,R8*%
X107130000Y-127000000D02*
X108080000Y-127000000D01*
X112870000Y-127000000D02*
X111920000Y-127000000D01*
X108080000Y-126080000D02*
X111920000Y-126080000D01*
X111920000Y-127920000D01*
X108080000Y-127920000D01*
X108080000Y-126080000D01*
%TO.C,C15*%
X98240000Y-101165580D02*
X98240000Y-100884420D01*
X99260000Y-101165580D02*
X99260000Y-100884420D01*
%TO.C,D2*%
X121030000Y-111280000D02*
X121030000Y-116720000D01*
X121030000Y-116720000D02*
X121360000Y-116720000D01*
X121360000Y-111280000D02*
X121030000Y-111280000D01*
X123640000Y-111280000D02*
X123970000Y-111280000D01*
X123970000Y-111280000D02*
X123970000Y-116720000D01*
X123970000Y-112060000D02*
X121030000Y-112060000D01*
X123970000Y-112180000D02*
X121030000Y-112180000D01*
X123970000Y-112300000D02*
X121030000Y-112300000D01*
X123970000Y-116720000D02*
X123640000Y-116720000D01*
%TO.C,R3*%
X119070000Y-105000000D02*
X120020000Y-105000000D01*
X124810000Y-105000000D02*
X123860000Y-105000000D01*
X120020000Y-104080000D02*
X123860000Y-104080000D01*
X123860000Y-105920000D01*
X120020000Y-105920000D01*
X120020000Y-104080000D01*
%TO.C,C13*%
X130240000Y-96890580D02*
X130240000Y-96609420D01*
X131260000Y-96890580D02*
X131260000Y-96609420D01*
%TO.C,U4*%
X133990000Y-92490000D02*
X133990000Y-92760000D01*
X133990000Y-98010000D02*
X133990000Y-97740000D01*
X136750000Y-92490000D02*
X133990000Y-92490000D01*
X136750000Y-92490000D02*
X139510000Y-92490000D01*
X136750000Y-98010000D02*
X133990000Y-98010000D01*
X136750000Y-98010000D02*
X139510000Y-98010000D01*
X139510000Y-92490000D02*
X139510000Y-92760000D01*
X139510000Y-98010000D02*
X139510000Y-97740000D01*
X133225000Y-92760000D02*
X132985000Y-92430000D01*
X133465000Y-92430000D01*
X133225000Y-92760000D01*
G36*
X133225000Y-92760000D02*
G01*
X132985000Y-92430000D01*
X133465000Y-92430000D01*
X133225000Y-92760000D01*
G37*
%TO.C,U2*%
X116360000Y-121345000D02*
X116360000Y-122995000D01*
X116360000Y-124995000D02*
X116360000Y-126645000D01*
X116360000Y-126645000D02*
X126640000Y-126645000D01*
X126640000Y-121345000D02*
X116360000Y-121345000D01*
X126640000Y-126645000D02*
X126640000Y-121345000D01*
X116360000Y-122995000D02*
G75*
G02*
X116360000Y-124995000I0J-1000000D01*
G01*
D13*
%TO.C,J1*%
X127250000Y-98575000D02*
X127250000Y-125755000D01*
X127250000Y-125755000D02*
X141600000Y-125755000D01*
X141600000Y-125755000D02*
X141600000Y-126285000D01*
X141600000Y-126285000D02*
X156840000Y-126285000D01*
X156840000Y-98575000D02*
X127250000Y-98575000D01*
X156840000Y-126285000D02*
X156840000Y-98575000D01*
D14*
X129100000Y-119165000D02*
G75*
G02*
X128900000Y-119165000I-100000J0D01*
G01*
X128900000Y-119165000D02*
G75*
G02*
X129100000Y-119165000I100000J0D01*
G01*
D12*
%TO.C,C14*%
X114740000Y-97140580D02*
X114740000Y-96859420D01*
X115760000Y-97140580D02*
X115760000Y-96859420D01*
%TO.C,R1*%
X125500000Y-110940000D02*
X125500000Y-111890000D01*
X125500000Y-116680000D02*
X125500000Y-115730000D01*
X124580000Y-115730000D02*
X126420000Y-115730000D01*
X126420000Y-111890000D01*
X124580000Y-111890000D01*
X124580000Y-115730000D01*
%TO.C,R4*%
X107130000Y-120250000D02*
X108080000Y-120250000D01*
X112870000Y-120250000D02*
X111920000Y-120250000D01*
X111920000Y-121170000D02*
X108080000Y-121170000D01*
X108080000Y-119330000D01*
X111920000Y-119330000D01*
X111920000Y-121170000D01*
%TO.C,R6*%
X107130000Y-118000000D02*
X108080000Y-118000000D01*
X112870000Y-118000000D02*
X111920000Y-118000000D01*
X108080000Y-117080000D02*
X111920000Y-117080000D01*
X111920000Y-118920000D01*
X108080000Y-118920000D01*
X108080000Y-117080000D01*
%TO.C,R13*%
X101000000Y-95630000D02*
X101000000Y-96580000D01*
X101000000Y-101370000D02*
X101000000Y-100420000D01*
X100080000Y-100420000D02*
X101920000Y-100420000D01*
X101920000Y-96580000D01*
X100080000Y-96580000D01*
X100080000Y-100420000D01*
%TO.C,C11*%
X97925000Y-93005000D02*
X97925000Y-95325000D01*
X99575000Y-93005000D02*
X97925000Y-93005000D01*
X99575000Y-95325000D02*
X99575000Y-93005000D01*
%TO.C,C12*%
X98240000Y-97915580D02*
X98240000Y-97634420D01*
X99260000Y-97915580D02*
X99260000Y-97634420D01*
%TO.C,R5*%
X102500000Y-113174887D02*
X102500000Y-114124887D01*
X102500000Y-118914887D02*
X102500000Y-117964887D01*
X101580000Y-117964887D02*
X103420000Y-117964887D01*
X103420000Y-114124887D01*
X101580000Y-114124887D01*
X101580000Y-117964887D01*
%TO.C,C2*%
X99670000Y-129415113D02*
X104830000Y-129415113D01*
X99670000Y-129455113D02*
X104830000Y-129455113D01*
X99671000Y-129375113D02*
X104829000Y-129375113D01*
X99673000Y-129335113D02*
X104827000Y-129335113D01*
X99675000Y-129295113D02*
X104825000Y-129295113D01*
X99678000Y-129255113D02*
X104822000Y-129255113D01*
X99681000Y-129215113D02*
X101210000Y-129215113D01*
X99685000Y-129175113D02*
X101210000Y-129175113D01*
X99690000Y-129135113D02*
X101210000Y-129135113D01*
X99695000Y-129095113D02*
X101210000Y-129095113D01*
X99701000Y-129055113D02*
X101210000Y-129055113D01*
X99707000Y-129015113D02*
X101210000Y-129015113D01*
X99714000Y-128975113D02*
X101210000Y-128975113D01*
X99722000Y-128935113D02*
X101210000Y-128935113D01*
X99731000Y-128895113D02*
X101210000Y-128895113D01*
X99740000Y-128855113D02*
X101210000Y-128855113D01*
X99749000Y-128815113D02*
X101210000Y-128815113D01*
X99760000Y-128775113D02*
X101210000Y-128775113D01*
X99771000Y-128735113D02*
X101210000Y-128735113D01*
X99783000Y-128695113D02*
X101210000Y-128695113D01*
X99795000Y-128655113D02*
X101210000Y-128655113D01*
X99808000Y-128615113D02*
X101210000Y-128615113D01*
X99822000Y-128575113D02*
X101210000Y-128575113D01*
X99837000Y-128535113D02*
X101210000Y-128535113D01*
X99852000Y-128495113D02*
X101210000Y-128495113D01*
X99868000Y-128455113D02*
X101210000Y-128455113D01*
X99885000Y-128415113D02*
X101210000Y-128415113D01*
X99903000Y-128375113D02*
X101210000Y-128375113D01*
X99921000Y-128335113D02*
X101210000Y-128335113D01*
X99941000Y-128295113D02*
X101210000Y-128295113D01*
X99961000Y-128255113D02*
X101210000Y-128255113D01*
X99982000Y-128215113D02*
X101210000Y-128215113D01*
X100004000Y-128175113D02*
X101210000Y-128175113D01*
X100027000Y-128135113D02*
X101210000Y-128135113D01*
X100051000Y-128095113D02*
X101210000Y-128095113D01*
X100075000Y-128055113D02*
X101210000Y-128055113D01*
X100101000Y-128015113D02*
X101210000Y-128015113D01*
X100128000Y-127975113D02*
X101210000Y-127975113D01*
X100156000Y-127935113D02*
X101210000Y-127935113D01*
X100185000Y-127895113D02*
X101210000Y-127895113D01*
X100215000Y-127855113D02*
X101210000Y-127855113D01*
X100247000Y-127815113D02*
X101210000Y-127815113D01*
X100280000Y-127775113D02*
X101210000Y-127775113D01*
X100314000Y-127735113D02*
X101210000Y-127735113D01*
X100349000Y-127695113D02*
X101210000Y-127695113D01*
X100386000Y-127655113D02*
X101210000Y-127655113D01*
X100425000Y-127615113D02*
X101210000Y-127615113D01*
X100465000Y-127575113D02*
X101210000Y-127575113D01*
X100507000Y-127535113D02*
X101210000Y-127535113D01*
X100525000Y-132009888D02*
X101025000Y-132009888D01*
X100551000Y-127495113D02*
X101210000Y-127495113D01*
X100598000Y-127455113D02*
X101210000Y-127455113D01*
X100646000Y-127415113D02*
X101210000Y-127415113D01*
X100697000Y-127375113D02*
X101210000Y-127375113D01*
X100751000Y-127335113D02*
X101210000Y-127335113D01*
X100775000Y-132259888D02*
X100775000Y-131759888D01*
X100807000Y-127295113D02*
X101210000Y-127295113D01*
X100867000Y-127255113D02*
X101210000Y-127255113D01*
X100931000Y-127215113D02*
X101210000Y-127215113D01*
X100999000Y-127175113D02*
X101210000Y-127175113D01*
X101073000Y-127135113D02*
X103427000Y-127135113D01*
X101152000Y-127095113D02*
X103348000Y-127095113D01*
X101239000Y-127055113D02*
X103261000Y-127055113D01*
X101336000Y-127015113D02*
X103164000Y-127015113D01*
X101445000Y-126975113D02*
X103055000Y-126975113D01*
X101573000Y-126935113D02*
X102927000Y-126935113D01*
X101733000Y-126895113D02*
X102767000Y-126895113D01*
X101967000Y-126855113D02*
X102533000Y-126855113D01*
X103290000Y-127175113D02*
X103501000Y-127175113D01*
X103290000Y-127215113D02*
X103569000Y-127215113D01*
X103290000Y-127255113D02*
X103633000Y-127255113D01*
X103290000Y-127295113D02*
X103693000Y-127295113D01*
X103290000Y-127335113D02*
X103749000Y-127335113D01*
X103290000Y-127375113D02*
X103803000Y-127375113D01*
X103290000Y-127415113D02*
X103854000Y-127415113D01*
X103290000Y-127455113D02*
X103902000Y-127455113D01*
X103290000Y-127495113D02*
X103949000Y-127495113D01*
X103290000Y-127535113D02*
X103993000Y-127535113D01*
X103290000Y-127575113D02*
X104035000Y-127575113D01*
X103290000Y-127615113D02*
X104075000Y-127615113D01*
X103290000Y-127655113D02*
X104114000Y-127655113D01*
X103290000Y-127695113D02*
X104151000Y-127695113D01*
X103290000Y-127735113D02*
X104186000Y-127735113D01*
X103290000Y-127775113D02*
X104220000Y-127775113D01*
X103290000Y-127815113D02*
X104253000Y-127815113D01*
X103290000Y-127855113D02*
X104285000Y-127855113D01*
X103290000Y-127895113D02*
X104315000Y-127895113D01*
X103290000Y-127935113D02*
X104344000Y-127935113D01*
X103290000Y-127975113D02*
X104372000Y-127975113D01*
X103290000Y-128015113D02*
X104399000Y-128015113D01*
X103290000Y-128055113D02*
X104425000Y-128055113D01*
X103290000Y-128095113D02*
X104449000Y-128095113D01*
X103290000Y-128135113D02*
X104473000Y-128135113D01*
X103290000Y-128175113D02*
X104496000Y-128175113D01*
X103290000Y-128215113D02*
X104518000Y-128215113D01*
X103290000Y-128255113D02*
X104539000Y-128255113D01*
X103290000Y-128295113D02*
X104559000Y-128295113D01*
X103290000Y-128335113D02*
X104579000Y-128335113D01*
X103290000Y-128375113D02*
X104597000Y-128375113D01*
X103290000Y-128415113D02*
X104615000Y-128415113D01*
X103290000Y-128455113D02*
X104632000Y-128455113D01*
X103290000Y-128495113D02*
X104648000Y-128495113D01*
X103290000Y-128535113D02*
X104663000Y-128535113D01*
X103290000Y-128575113D02*
X104678000Y-128575113D01*
X103290000Y-128615113D02*
X104692000Y-128615113D01*
X103290000Y-128655113D02*
X104705000Y-128655113D01*
X103290000Y-128695113D02*
X104717000Y-128695113D01*
X103290000Y-128735113D02*
X104729000Y-128735113D01*
X103290000Y-128775113D02*
X104740000Y-128775113D01*
X103290000Y-128815113D02*
X104751000Y-128815113D01*
X103290000Y-128855113D02*
X104760000Y-128855113D01*
X103290000Y-128895113D02*
X104769000Y-128895113D01*
X103290000Y-128935113D02*
X104778000Y-128935113D01*
X103290000Y-128975113D02*
X104786000Y-128975113D01*
X103290000Y-129015113D02*
X104793000Y-129015113D01*
X103290000Y-129055113D02*
X104799000Y-129055113D01*
X103290000Y-129095113D02*
X104805000Y-129095113D01*
X103290000Y-129135113D02*
X104810000Y-129135113D01*
X103290000Y-129175113D02*
X104815000Y-129175113D01*
X103290000Y-129215113D02*
X104819000Y-129215113D01*
X104870000Y-129455113D02*
G75*
G02*
X99630000Y-129455113I-2620000J0D01*
G01*
X99630000Y-129455113D02*
G75*
G02*
X104870000Y-129455113I2620000J0D01*
G01*
%TO.C,C4*%
X114880000Y-98930000D02*
X121120000Y-98930000D01*
X114880000Y-100415000D02*
X114880000Y-98930000D01*
X114880000Y-103570000D02*
X114880000Y-102085000D01*
X121120000Y-98930000D02*
X121120000Y-100415000D01*
X121120000Y-102085000D02*
X121120000Y-103570000D01*
X121120000Y-103570000D02*
X114880000Y-103570000D01*
%TO.C,C1*%
X98170000Y-108210000D02*
X103330000Y-108210000D01*
X98170000Y-108250000D02*
X103330000Y-108250000D01*
X98171000Y-108170000D02*
X103329000Y-108170000D01*
X98173000Y-108130000D02*
X103327000Y-108130000D01*
X98175000Y-108090000D02*
X103325000Y-108090000D01*
X98178000Y-108050000D02*
X103322000Y-108050000D01*
X98181000Y-108010000D02*
X99710000Y-108010000D01*
X98185000Y-107970000D02*
X99710000Y-107970000D01*
X98190000Y-107930000D02*
X99710000Y-107930000D01*
X98195000Y-107890000D02*
X99710000Y-107890000D01*
X98201000Y-107850000D02*
X99710000Y-107850000D01*
X98207000Y-107810000D02*
X99710000Y-107810000D01*
X98214000Y-107770000D02*
X99710000Y-107770000D01*
X98222000Y-107730000D02*
X99710000Y-107730000D01*
X98231000Y-107690000D02*
X99710000Y-107690000D01*
X98240000Y-107650000D02*
X99710000Y-107650000D01*
X98249000Y-107610000D02*
X99710000Y-107610000D01*
X98260000Y-107570000D02*
X99710000Y-107570000D01*
X98271000Y-107530000D02*
X99710000Y-107530000D01*
X98283000Y-107490000D02*
X99710000Y-107490000D01*
X98295000Y-107450000D02*
X99710000Y-107450000D01*
X98308000Y-107410000D02*
X99710000Y-107410000D01*
X98322000Y-107370000D02*
X99710000Y-107370000D01*
X98337000Y-107330000D02*
X99710000Y-107330000D01*
X98352000Y-107290000D02*
X99710000Y-107290000D01*
X98368000Y-107250000D02*
X99710000Y-107250000D01*
X98385000Y-107210000D02*
X99710000Y-107210000D01*
X98403000Y-107170000D02*
X99710000Y-107170000D01*
X98421000Y-107130000D02*
X99710000Y-107130000D01*
X98441000Y-107090000D02*
X99710000Y-107090000D01*
X98461000Y-107050000D02*
X99710000Y-107050000D01*
X98482000Y-107010000D02*
X99710000Y-107010000D01*
X98504000Y-106970000D02*
X99710000Y-106970000D01*
X98527000Y-106930000D02*
X99710000Y-106930000D01*
X98551000Y-106890000D02*
X99710000Y-106890000D01*
X98575000Y-106850000D02*
X99710000Y-106850000D01*
X98601000Y-106810000D02*
X99710000Y-106810000D01*
X98628000Y-106770000D02*
X99710000Y-106770000D01*
X98656000Y-106730000D02*
X99710000Y-106730000D01*
X98685000Y-106690000D02*
X99710000Y-106690000D01*
X98715000Y-106650000D02*
X99710000Y-106650000D01*
X98747000Y-106610000D02*
X99710000Y-106610000D01*
X98780000Y-106570000D02*
X99710000Y-106570000D01*
X98814000Y-106530000D02*
X99710000Y-106530000D01*
X98849000Y-106490000D02*
X99710000Y-106490000D01*
X98886000Y-106450000D02*
X99710000Y-106450000D01*
X98925000Y-106410000D02*
X99710000Y-106410000D01*
X98965000Y-106370000D02*
X99710000Y-106370000D01*
X99007000Y-106330000D02*
X99710000Y-106330000D01*
X99025000Y-110804775D02*
X99525000Y-110804775D01*
X99051000Y-106290000D02*
X99710000Y-106290000D01*
X99098000Y-106250000D02*
X99710000Y-106250000D01*
X99146000Y-106210000D02*
X99710000Y-106210000D01*
X99197000Y-106170000D02*
X99710000Y-106170000D01*
X99251000Y-106130000D02*
X99710000Y-106130000D01*
X99275000Y-111054775D02*
X99275000Y-110554775D01*
X99307000Y-106090000D02*
X99710000Y-106090000D01*
X99367000Y-106050000D02*
X99710000Y-106050000D01*
X99431000Y-106010000D02*
X99710000Y-106010000D01*
X99499000Y-105970000D02*
X99710000Y-105970000D01*
X99573000Y-105930000D02*
X101927000Y-105930000D01*
X99652000Y-105890000D02*
X101848000Y-105890000D01*
X99739000Y-105850000D02*
X101761000Y-105850000D01*
X99836000Y-105810000D02*
X101664000Y-105810000D01*
X99945000Y-105770000D02*
X101555000Y-105770000D01*
X100073000Y-105730000D02*
X101427000Y-105730000D01*
X100233000Y-105690000D02*
X101267000Y-105690000D01*
X100467000Y-105650000D02*
X101033000Y-105650000D01*
X101790000Y-105970000D02*
X102001000Y-105970000D01*
X101790000Y-106010000D02*
X102069000Y-106010000D01*
X101790000Y-106050000D02*
X102133000Y-106050000D01*
X101790000Y-106090000D02*
X102193000Y-106090000D01*
X101790000Y-106130000D02*
X102249000Y-106130000D01*
X101790000Y-106170000D02*
X102303000Y-106170000D01*
X101790000Y-106210000D02*
X102354000Y-106210000D01*
X101790000Y-106250000D02*
X102402000Y-106250000D01*
X101790000Y-106290000D02*
X102449000Y-106290000D01*
X101790000Y-106330000D02*
X102493000Y-106330000D01*
X101790000Y-106370000D02*
X102535000Y-106370000D01*
X101790000Y-106410000D02*
X102575000Y-106410000D01*
X101790000Y-106450000D02*
X102614000Y-106450000D01*
X101790000Y-106490000D02*
X102651000Y-106490000D01*
X101790000Y-106530000D02*
X102686000Y-106530000D01*
X101790000Y-106570000D02*
X102720000Y-106570000D01*
X101790000Y-106610000D02*
X102753000Y-106610000D01*
X101790000Y-106650000D02*
X102785000Y-106650000D01*
X101790000Y-106690000D02*
X102815000Y-106690000D01*
X101790000Y-106730000D02*
X102844000Y-106730000D01*
X101790000Y-106770000D02*
X102872000Y-106770000D01*
X101790000Y-106810000D02*
X102899000Y-106810000D01*
X101790000Y-106850000D02*
X102925000Y-106850000D01*
X101790000Y-106890000D02*
X102949000Y-106890000D01*
X101790000Y-106930000D02*
X102973000Y-106930000D01*
X101790000Y-106970000D02*
X102996000Y-106970000D01*
X101790000Y-107010000D02*
X103018000Y-107010000D01*
X101790000Y-107050000D02*
X103039000Y-107050000D01*
X101790000Y-107090000D02*
X103059000Y-107090000D01*
X101790000Y-107130000D02*
X103079000Y-107130000D01*
X101790000Y-107170000D02*
X103097000Y-107170000D01*
X101790000Y-107210000D02*
X103115000Y-107210000D01*
X101790000Y-107250000D02*
X103132000Y-107250000D01*
X101790000Y-107290000D02*
X103148000Y-107290000D01*
X101790000Y-107330000D02*
X103163000Y-107330000D01*
X101790000Y-107370000D02*
X103178000Y-107370000D01*
X101790000Y-107410000D02*
X103192000Y-107410000D01*
X101790000Y-107450000D02*
X103205000Y-107450000D01*
X101790000Y-107490000D02*
X103217000Y-107490000D01*
X101790000Y-107530000D02*
X103229000Y-107530000D01*
X101790000Y-107570000D02*
X103240000Y-107570000D01*
X101790000Y-107610000D02*
X103251000Y-107610000D01*
X101790000Y-107650000D02*
X103260000Y-107650000D01*
X101790000Y-107690000D02*
X103269000Y-107690000D01*
X101790000Y-107730000D02*
X103278000Y-107730000D01*
X101790000Y-107770000D02*
X103286000Y-107770000D01*
X101790000Y-107810000D02*
X103293000Y-107810000D01*
X101790000Y-107850000D02*
X103299000Y-107850000D01*
X101790000Y-107890000D02*
X103305000Y-107890000D01*
X101790000Y-107930000D02*
X103310000Y-107930000D01*
X101790000Y-107970000D02*
X103315000Y-107970000D01*
X101790000Y-108010000D02*
X103319000Y-108010000D01*
X103370000Y-108250000D02*
G75*
G02*
X98130000Y-108250000I-2620000J0D01*
G01*
X98130000Y-108250000D02*
G75*
G02*
X103370000Y-108250000I2620000J0D01*
G01*
%TO.C,Q1*%
X126400000Y-103040000D02*
X126400000Y-99190000D01*
X126400000Y-103040000D02*
G75*
G02*
X126390122Y-99151389I-1700000J1940000D01*
G01*
%TD*%
M02*
